<?xml version="1.0"?>
<svg width="1254.58" height="698.41" xmlns="http://www.w3.org/2000/svg" xmlns:svg="http://www.w3.org/2000/svg">
 <defs>
  <style>.cls-1{fill:#fff;}.cls-2{fill:#fe7624;}.cls-3{fill:#2e186a;}</style>
 </defs>
 <g class="layer">
  <title>Layer 1</title>
  <g data-name="Layer 2" id="Layer_2">
   <g id="All">
    <g id="Product-Launch">
     <g data-name="Product-Launch" id="Product-Launch-2">
      <g id="Laptop">
       <path class="cls-1" d="m390.16,626.85c1.08,-4.2 2.16,-8.16 3.12,-12.24q37.26,-148.68 74.52,-297.48q22.86,-91.44 45.72,-182.76c1.32,-5.4 2.52,-10.8 5.4,-15.72c8.4,-14 20.4,-22.68 36.6,-25.32c1.2,-0.24 2.4,-0.48 3.6,-0.6a4.4,4.4 0 0 1 2.52,0.12c1.8,1.44 4,1.08 6,1.08q202,-1.26 403.8,-2.4c4.44,0 8.88,0.72 13.32,0.84l129.24,1.8c31.8,0.48 63.72,0.84 95.52,1.32c1.56,0 3,0.24 4.32,-0.84a3.33,3.33 0 0 1 2.4,-0.36c14.64,4.32 26.76,11.88 32.76,26.64a38.9,38.9 0 0 1 2.28,22.2c-0.36,1.8 -1.56,3.36 -1.92,5.16l-13.68,56.52q-25.74,106.56 -51.48,213.24q-24.66,102.6 -49.56,205a29.47,29.47 0 0 0 -0.6,12.12c2.76,17.16 -5,30.12 -17.16,41.16c-3.12,2.88 -7.08,3.6 -11.4,3.6q-93.78,0 -187.56,0.24l-781.56,1.08l-4.56,0c-1.44,0 -2.76,0 -3.84,1.32s-2.64,1 -3.84,0a55.88,55.88 0 0 1 -5.88,-4.68c-11.4,-10.08 -16.56,-22.68 -15.24,-37.92c0.36,-3.84 0.84,-7.56 1.32,-11.4a10,10 0 0 1 0.68,-2.57c0.72,-1.56 2.16,-2.16 3.48,-1.2c1.56,1.08 3,1 4.68,1q79.2,0.18 158.4,0.48q57.24,0.18 114.6,0.24a15.21,15.21 0 0 0 4,0.33z" id="Path"/>
       <path class="cls-2" d="m883.5,569.65l-391.08,0a21.85,21.85 0 0 1 -4,-0.12c-2.28,-0.36 -3,-1.56 -2.52,-3.6q29,-119.34 58.08,-238.56c2.28,-9.48 4.56,-18.84 6.84,-28.32c0.48,-1.92 1.08,-3.6 0.48,-5.76c-0.6,-1.92 2.4,-4.08 4.68,-3.72a39.72,39.72 0 0 0 6.36,0.72q194.76,0.36 389.4,0.6c1.8,0 3.72,-0.48 5.28,1.2s1.56,3.12 1.08,5.16c-3.48,13.08 -7,26.16 -10.44,39.12q-30.24,114.12 -60.6,228.12c-0.36,1.2 -0.6,2.28 -1,3.48s-1.24,2.03 -2.56,1.68z" id="svg_1"/>
       <path d="m387.56,624.61c1.56,-6.36 3.12,-12.36 4.68,-18.36q29.7,-119.34 59.4,-238.56q28.8,-115.56 57.6,-231.24c0.84,-3.36 1.32,-6.84 2.16,-10.2a47.11,47.11 0 0 1 41.6,-34.92c4.44,-0.36 8.88,-0.12 13.32,-0.12c2.64,0 5.28,0.36 7.8,0.36q310.5,-0.36 621.12,-0.84a153.57,153.57 0 0 1 18.24,0.6c10.56,1.2 20,5 28,12.36c10.8,9.84 14.76,22.2 12.48,36.36c-1.08,6.48 -3.12,12.72 -4.68,19.08q-23.4,97.38 -46.8,194.88q-24.66,103 -49.44,206q-7.92,32.94 -15.84,65.76a5.52,5.52 0 0 0 0,3.12c2.16,5.16 1.92,10.44 0.84,15.72a62.28,62.28 0 0 1 -17.76,32.52a41.61,41.61 0 0 1 -3.48,3a17.58,17.58 0 0 1 -11.4,4q-455.58,0.72 -911,1.68c-23.28,0 -46.44,0.24 -69.72,0.24a10.67,10.67 0 0 1 -3.72,-1a36.07,36.07 0 0 1 -13.68,-12.84c-6.24,-10.08 -8.52,-21.12 -7.56,-32.88a77.87,77.87 0 0 1 1.92,-10.56c0.84,-3.84 2.88,-4.92 6.48,-4.92c27.36,0.12 54.72,0.12 82.08,0.24q96.3,0.18 192.48,0.6c1.76,-0.08 3.2,-0.08 4.88,-0.08zm716.76,1.8c0.48,-1.8 1,-3.36 1.44,-5q26.64,-108 53.4,-215.88q32.4,-131 64.8,-262.2c3.6,-14.76 -0.12,-28.2 -9.72,-39.72a20.48,20.48 0 0 0 -17,-7.8c-75,0.36 -149.88,0.36 -224.88,0.48q-198,0.18 -396,0.48c-3.24,0 -6.48,-0.24 -9.84,-0.36c-4.44,0 -9,-0.36 -13.32,0.12c-18.72,2 -32.76,14.52 -37.08,32.88c-0.72,2.76 -1.08,5.52 -1.68,8.28q-21.06,85 -42.36,170q-39.08,156.78 -78.16,313.44c-0.24,1.08 -0.36,2 -0.72,3.48l711.12,1.8zm-257.88,4.59q-137,-0.36 -273.48,-0.6c-0.36,1.2 -0.72,2.16 -1,3.12c-2.88,8.88 -13.08,19.2 -26.28,19c-44.52,-0.6 -89,-0.72 -133.56,-1.08a42.37,42.37 0 0 1 -5.52,0c-10.56,-1.68 -17.76,-7.32 -21,-17.64c-0.36,-1.2 -0.72,-2.4 -1.08,-3.84l-277.32,-0.72c-0.36,1.44 -0.72,2.4 -1,3.48a51.37,51.37 0 0 0 0,23.4a41.31,41.31 0 0 0 10.44,19.68a17.21,17.21 0 0 0 13,5.52q337.68,-0.9 675.48,-1.44a24.53,24.53 0 0 0 13.32,-3.72a62.42,62.42 0 0 0 27,-35.4a21.75,21.75 0 0 0 1,-9.76zm-22.32,48.48l3.48,0q46.62,-0.18 93.24,-0.24q92.52,-0.24 185.16,-0.24a12.2,12.2 0 0 0 7.56,-2.52c0.84,-0.72 1.8,-1.32 2.52,-2a57.62,57.62 0 0 0 17.28,-31.56a20.49,20.49 0 0 0 -0.48,-11l-280.56,-0.72c-1.8,20.65 -12.84,35.53 -28.2,48.25l0,0.03zm391.32,-582.39a3.86,3.86 0 0 0 0.48,0.84c13,14 17,30.24 12.48,48.72q-11.88,47.88 -23.76,95.88q-47,190.26 -94.08,380.52c-0.24,1.08 -0.36,2 -0.6,3.36l21.84,0c0.24,-1 0.6,-1.92 0.84,-2.88c1.44,-5.88 2.88,-11.88 4.32,-17.76q26.64,-111.06 53.28,-222.24t53.4,-222.24c1.8,-7.68 4.2,-15.36 5.52,-23.16c3.6,-23.04 -14.88,-38.64 -33.72,-41.04zm-825.12,533.16a14.68,14.68 0 0 0 0.36,2a19,19 0 0 0 18.24,13.8c9.12,0.12 18.36,0.12 27.48,0.24c36.36,0.24 72.84,0.6 109.2,0.84a22.15,22.15 0 0 0 20.88,-14a17.52,17.52 0 0 0 0.84,-2.88l-177,0z" id="Shape"/>
       <path class="cls-2" d="m811.67,218.09c62,0.48 140.88,1 219.72,1.56c2.16,0 4.32,0.48 6,-1.56c0.24,-0.36 1.2,-0.48 1.8,-0.36c2.64,0.48 4.44,4.32 3,6.6c-2.76,4.32 -5.64,8.52 -8.52,12.84c-2.4,3.6 -5,7.08 -7.44,10.8a9.38,9.38 0 0 1 -8.76,4.44c-22.8,-0.24 -45.6,-0.48 -68.4,-0.84c-37.68,-0.48 -75.24,-0.84 -112.92,-1.32q-117.54,-1.26 -235,-2.64c-14.64,-0.12 -29.28,-0.48 -43.8,-0.36a12.76,12.76 0 0 1 -10.68,-5c-6.72,-8.28 -4.56,-19.56 4.8,-24.48a10.42,10.42 0 0 1 4.68,-1.2c79.72,0.32 159.28,0.92 255.52,1.52z" id="svg_2"/>
       <path d="m377.6,693.25l297.12,0a29.24,29.24 0 0 1 3.24,0.12c1.56,0.12 2.52,0.84 2.52,2.4a2.46,2.46 0 0 1 -2.52,2.52c-1.2,0.12 -2.4,0.12 -3.6,0.12q-81.72,-0.18 -163.56,-0.24l-430.56,-0.36c-1.32,0 -2.64,0 -4,-0.12a2.47,2.47 0 0 1 -2.28,-2.4c0,-1.32 0.84,-2.28 2.52,-2.52a24.1,24.1 0 0 1 3,-0.12l298.12,0l0,0.6z" id="svg_3"/>
       <path d="m1193.36,596.89c1,-1.32 1.8,-2.16 2.4,-3.12a36.16,36.16 0 0 0 5.88,-26.16c-1.08,-7.68 -2.4,-15.24 -3.84,-22.92a78.25,78.25 0 0 1 -1.68,-20.52c0.12,-2.28 0.12,-4.56 0.24,-6.84a2.54,2.54 0 0 1 2.4,-2.64c1.44,-0.12 2.52,0.84 2.76,2.64a5.16,5.16 0 0 1 0,1.92c-1,10.68 0.48,21 2.88,31.44a157.57,157.57 0 0 1 2.76,18.36c1.08,12 -2.28,22.68 -10.32,31.68a10,10 0 0 0 -2.52,6.72a83.13,83.13 0 0 1 -11.76,37.44c-6.48,10.92 -15.6,19.56 -25.2,27.6a17.15,17.15 0 0 1 -2.4,1.68a2.34,2.34 0 0 1 -3.24,-0.72a2.39,2.39 0 0 1 0.24,-3.24a3.23,3.23 0 0 1 1,-0.84c4.8,-4.44 9.84,-8.64 14.4,-13.32c12.48,-12.48 19,-28 21.6,-45.24a13.88,13.88 0 0 0 0.12,-2.52c-1.2,0.6 -2,1.08 -3,1.56a23,23 0 0 1 -10.92,3.12c-7,-0.12 -12,-4.44 -13,-11.4a19.39,19.39 0 0 1 10,-19.08c4.2,-2.16 8.16,-1.8 12.12,0.72c3.72,2.4 6,5.88 7.68,10c0.32,0.92 0.8,2 1.4,3.68zm-26.16,1c-0.12,7.32 3.48,10.68 9.72,9.84c4.2,-0.6 7.8,-2.76 11,-5.4a2,2 0 0 0 0.72,-1.68c-1,-5.28 -2.76,-10.08 -7.56,-13.2a6.13,6.13 0 0 0 -7.08,-0.12c-4.16,2.72 -6.56,6.56 -6.8,10.52l0,0.04z" id="svg_4"/>
       <path d="m1200.08,58.33c-2.16,2.28 -4.08,4.44 -6.12,6.6l-4.68,5c-2.16,2.16 -3.36,2.16 -5.52,0.12c-3.12,-3 -6.24,-6.12 -9.36,-9.24c-0.72,-0.72 -1.44,-1.32 -2.28,-2.16c-1.92,1.44 -3.84,2.88 -5.64,4.32c-2.28,1.8 -4.56,3.72 -7,5.52s-3.24,1.92 -5.88,0.24c-3.48,-2.28 -6.84,-4.68 -10.32,-7c-0.48,-0.36 -1,-0.6 -1.68,-1.08c-1.8,2 -3.48,4.08 -5.28,6.12c-1.08,1.2 -2,2.52 -3.24,3.72s-2.76,1.32 -3.72,0.36c-1.2,-1.08 -1,-2.4 -0.12,-3.6c1.08,-1.44 2.4,-2.88 3.6,-4.32c1.8,-2 3.48,-4.2 5.28,-6.24c2.28,-2.64 3.12,-2.76 6.12,-0.72c4,2.64 7.92,5.4 12.12,8.28c2.64,-2 5.28,-4.2 7.92,-6.24c1.68,-1.32 3.24,-2.64 4.92,-3.84c2.76,-2.16 3.72,-2.16 6.12,0.24c3,3 6,6 9.12,9c0.48,0.48 1.08,1.08 1.8,1.68c0.72,-0.6 1.32,-1.08 1.92,-1.68c3,-3.24 5.88,-6.48 8.88,-9.6c2.4,-2.52 3.6,-2.52 6,0c4.68,5 9.24,10.08 13.92,15.24c0.48,0.6 1.2,1.2 1.32,1.8a3.9,3.9 0 0 1 -0.48,2.64a2.21,2.21 0 0 1 -3,0.36a20.54,20.54 0 0 1 -2.4,-2.16c-4.04,-4.24 -8,-8.69 -12.32,-13.36z" id="svg_5"/>
       <path class="cls-2" d="m1035.47,251.45a2.34,2.34 0 0 1 -2.64,-3a8.38,8.38 0 0 1 1.32,-2.52c5,-7.32 10.08,-14.76 15.24,-22.08a18.91,18.91 0 0 1 1.44,-1.8a2.61,2.61 0 0 1 3.48,-0.6c0.12,0 0.12,0.12 0.24,0.24c4.44,2.52 4.32,2.88 1.2,7c-5,6.6 -10.08,13.2 -14.64,19.92c-1.56,2.39 -4.11,1.52 -5.64,2.84z" id="svg_6"/>
       <path d="m1204.52,495.85a9.66,9.66 0 1 1 0.24,-19.32a9.6,9.6 0 0 1 9.48,9.6a9.46,9.46 0 0 1 -9.72,9.72zm4.56,-9.6a4.49,4.49 0 0 0 -4.68,-4.44a4.41,4.41 0 0 0 -4.32,4.44a4.5,4.5 0 0 0 9,0z" id="svg_7"/>
       <path class="cls-2" d="m1061.75,234.77a13.12,13.12 0 0 1 -1.2,2.28c-2.16,3.12 -4.32,6.24 -6.6,9.36c-1.2,1.56 -2.64,1.92 -4,1.2s-1.44,-2.4 -0.36,-4.08c2.16,-3.24 4.44,-6.48 6.72,-9.6a2.63,2.63 0 0 1 3.36,-1.2c1.12,0.48 1.48,1.44 2.08,2.04z" id="svg_8"/>
       <path d="m750.32,607q-166.14,-0.9 -332.4,-1.92c-4.8,0 -6,-1.56 -4.8,-6.36q16.56,-66.78 33.24,-133.56q29.7,-119.16 59.28,-238.35c7,-28.2 14,-56.52 21,-84.72a10.54,10.54 0 0 1 0.84,-2.76a3.07,3.07 0 0 1 1.92,-1.56a41.22,41.22 0 0 1 6.72,-0.48l662.64,0.36l1.92,0c4.2,0.12 6,2.4 4.92,6.36l-4,15.48q-49.32,193.86 -98.52,387.84c-4.8,18.84 -9.6,37.56 -14.4,56.4c-1.32,4.92 -1.56,5.28 -6.6,5.16l-182.28,-1.08q-74.66,-0.36 -149.48,-0.81zm-332.16,-7.08l665.28,4q58.68,-230.76 117.12,-461l-668.88,0q-56.52,227.95 -113.52,456.97l0,0.03z" id="svg_9"/>
       <path d="m848.6,118.21c0,-5.4 4.32,-10 9.36,-9.84s9.36,4.92 9.24,10.32s-4.2,9.6 -9.12,9.6s-9.48,-4.68 -9.48,-10.08zm13.44,0.36c0,-2.52 -2.16,-4.92 -4.32,-4.92s-3.84,2.16 -3.84,4.44c0,2.52 1.92,4.92 4.08,5s4.04,-2 4.04,-4.52l0.04,0z" id="svg_10"/>
       <path d="m773.12,661.93l-21.24,0a29.2,29.2 0 0 0 -4.56,0.36c-3.6,0.48 -6.72,-1.44 -7.56,-4.68a7.39,7.39 0 0 1 4.56,-8.76a13.52,13.52 0 0 1 3.84,-0.6c15.24,0.12 30.48,0.36 45.72,0.48a8.1,8.1 0 0 1 7.56,4.2c2.4,4.56 -0.36,9.12 -5.52,9c-7.56,0 -15.24,0.12 -22.8,0zm23.64,-5.4c-0.72,-2.52 -0.72,-2.64 -3.6,-2.64c-14.88,-0.12 -29.88,-0.36 -44.76,-0.48c-0.72,0 -1.8,-0.12 -2.16,0.24a3.85,3.85 0 0 0 -1.2,2.4c0,1.08 1.08,1.08 2,1a33,33 0 0 1 4.92,-0.24l43.8,0a5.4,5.4 0 0 0 1,-0.28z" id="svg_11"/>
       <path d="m1088.84,645l18.24,0a19.44,19.44 0 0 1 2.64,0.12c2.28,0.36 3.12,1.8 2.16,4a12.75,12.75 0 0 1 -2.52,3.72a18.09,18.09 0 0 1 -8.64,4.44a60.81,60.81 0 0 1 -22.32,0.84a24.94,24.94 0 0 1 -10.68,-4.56a8.63,8.63 0 0 1 -2.64,-2.88c-1.56,-2.88 0,-5.52 3.24,-5.76a19.36,19.36 0 0 1 2.64,0l18,0a0.12,0.12 0 0 0 -0.12,0.08zm-16.32,5.16c7,4.44 26.28,4.32 30.36,0l-30.36,0z" id="svg_12"/>
       <path d="m1038.2,651.49a9.15,9.15 0 0 1 8.88,-9.12a8.12,8.12 0 0 1 8,8.4a9.49,9.49 0 0 1 -9,9a7.92,7.92 0 0 1 -7.88,-8.28zm8.76,-3.84a3.93,3.93 0 0 0 -3.48,4a2.85,2.85 0 0 0 2.76,3a4.18,4.18 0 0 0 3.72,-4.2a3.1,3.1 0 0 0 -2.96,-2.8l-0.04,0z" id="svg_13"/>
       <path d="m805.16,214.69q96.66,0.54 193.32,1.2l52.08,0.36a8.61,8.61 0 0 1 3.48,0.72c8.4,3.12 12.72,12.24 10.2,21.24a20.07,20.07 0 0 1 -19.68,14.79l-331.8,-2.16l-150.84,-1.08l-3.6,0a17.38,17.38 0 0 1 -17,-23.88a19.76,19.76 0 0 1 18.84,-12.72c10.8,0 21.6,0.12 32.4,0.12l209,1.44a18,18 0 0 1 3.6,0l0,-0.03zm-0.24,5.16l0,0q-121.68,-0.9 -243.48,-1.56l-2.28,0a14.39,14.39 0 0 0 -13.2,10c-2.64,8.28 3,16.2 11.64,16.2q154.8,1.08 309.6,2q88.74,0.54 177.36,1.2a15,15 0 0 0 14.4,-10c2.16,-5.88 0.12,-12.24 -4.92,-15.12a9.48,9.48 0 0 0 -4,-1.2c-13.56,-0.12 -27,-0.24 -40.56,-0.24q-102.38,-0.68 -204.56,-1.28z" id="svg_14"/>
       <path d="m525.44,532.69l3.48,0q157,-0.54 313.8,-1.2c1.44,0 2.88,0 4.2,0.12a2.28,2.28 0 0 1 2.28,2.28a2.22,2.22 0 0 1 -2,2.52a25.37,25.37 0 0 1 -4.2,0.24q-68.76,0.18 -137.4,0.48l-180,0.72c-5.88,0 -6.72,-1.08 -5.28,-6.84q25.74,-98.64 51.36,-197.4a19.25,19.25 0 0 1 1.2,-3.72a2.35,2.35 0 0 1 2.88,-1.56a2.42,2.42 0 0 1 1.8,2.76a24.58,24.58 0 0 1 -0.6,2.88q-18.54,71.28 -37.08,142.44c-4.56,17.76 -9.24,35.4 -13.8,53.16c-0.28,0.84 -0.4,1.8 -0.64,3.12z" id="svg_15"/>
       <path d="m652.88,484.69c4.8,-5.16 9.36,-5.76 14.76,-2.28a41.69,41.69 0 0 0 4.32,-3.72c3.48,-3.84 7,-7.56 10.08,-11.64c6.12,-7.8 11.88,-16 18,-23.76c5.52,-7.08 11.16,-14 17.16,-20.64c3,-3.36 7,-5.88 10.56,-8.76a5.87,5.87 0 0 0 2.16,-2.64c1.8,-4.56 5.4,-7 9.72,-6.6s7.32,3.36 8.52,7.92a8.94,8.94 0 0 0 1.32,2.88c2.52,3.48 5.16,6.72 7.56,10.2s4.8,7.32 8.4,10.32c1.8,-2.76 3.84,-5.28 7.44,-5.76s6.36,1 9,3.72a34.76,34.76 0 0 0 3.48,-2.28a121.47,121.47 0 0 0 20.4,-18.84c9.24,-11 18.36,-22.2 27.6,-33.24l10.44,-12.57c0.72,-0.84 1.32,-1.68 2.16,-2.76a20.6,20.6 0 0 1 -3.12,-0.6a2.4,2.4 0 0 1 -2,-2.64a2.31,2.31 0 0 1 2.4,-2.28c2.64,-0.24 5.28,-0.48 7.8,-0.48c2.28,0 3.48,1.08 3.48,3.48c0.12,3.6 0,7.2 -0.12,10.8a3.7,3.7 0 0 1 -0.36,1.56a2.45,2.45 0 0 1 -2.52,1.68a2.32,2.32 0 0 1 -2.16,-2.16c-0.12,-1.32 0,-2.64 0,-4.56c-1.08,1 -1.68,1.44 -2.16,1.92l-20.2,24.45c-5.88,7.08 -11.64,14.16 -17.64,21a117.74,117.74 0 0 1 -24.24,21.36a4.09,4.09 0 0 0 -1.92,2.76a8.53,8.53 0 0 1 -7.2,7.08a8.71,8.71 0 0 1 -9.24,-4.2c-0.36,-0.6 -0.84,-1.44 -1.44,-1.68c-5.28,-2.76 -8.4,-7.44 -11.64,-12.12c-1.32,-2 -2.52,-4.08 -4,-6c-0.84,-1.2 -1.92,-2.4 -3,-3.72c-2.64,2 -5.28,3.84 -8.64,3.6a10.46,10.46 0 0 1 -7.8,-5a25.88,25.88 0 0 0 -8,6.24c-4.08,4.32 -8.16,8.76 -11.88,13.44c-7.32,9.36 -14.28,19 -21.48,28.44c-2.88,3.84 -6,7.56 -9.12,11.16a51.08,51.08 0 0 1 -6.24,6.24c-1.92,1.68 -3.36,3.12 -3.36,6.12c0,4.32 -3.84,7.68 -8,8.16c-4.44,0.36 -8.28,-1.92 -9.6,-6.24a9.23,9.23 0 0 0 -3.24,-4.68c-4.56,-4.08 -8.88,-8.4 -13.44,-12.48c-5.64,-4.92 -12.24,-6.24 -19.56,-5a38.54,38.54 0 0 0 -16.2,6.72c-5.28,3.72 -10.44,7.44 -15.36,11.64c-9.24,7.8 -18.36,15.84 -26.16,25.08a3.65,3.65 0 0 1 -1,1a2.28,2.28 0 0 1 -3.24,0a2.25,2.25 0 0 1 -0.48,-3a29.71,29.71 0 0 1 2.28,-3.12a241.34,241.34 0 0 1 38.84,-34.56a78.92,78.92 0 0 1 7.56,-4.56a39.84,39.84 0 0 1 14.28,-4.56c7.92,-1 15.24,0.6 21.48,5.76c3.48,2.76 6.72,5.88 10,9c1.56,1.56 2.88,3.36 4.56,5.4zm86,-66.24a4.52,4.52 0 0 0 4.2,-4.2a4.3,4.3 0 0 0 -4.32,-4.32a4.14,4.14 0 0 0 -4.08,4.44a4.07,4.07 0 0 0 4.24,4.08l-0.04,0zm-77.76,74.76a3.89,3.89 0 0 0 4,-3.84a4.16,4.16 0 0 0 -4,-4a3.89,3.89 0 0 0 -3.84,4a3.79,3.79 0 0 0 3.88,3.84l-0.04,0zm112.92,-50.4a3.72,3.72 0 0 0 0.36,-7.44a3.73,3.73 0 1 0 -0.36,7.44z" id="svg_16"/>
       <path d="m1006.52,319.21c-1.08,1.32 -2.16,2.4 -3,3.36c-2.88,-1.08 -5.52,-2.52 -8.4,-3.12a17.81,17.81 0 0 0 -21,14a18.15,18.15 0 0 0 13.88,21.55a17.94,17.94 0 0 0 21.84,-16.44c0.12,-3.48 1.92,-5.28 4.2,-7.08c3.48,9.36 -1.56,21.24 -11.16,26.28a23.35,23.35 0 1 1 3.6,-38.52l0.04,-0.03z" id="svg_17"/>
       <path d="m962.84,484.45a4.36,4.36 0 0 1 -1,1.08c-0.84,0.72 -1.68,1.44 -2.64,2.28c-0.72,-1 -1.44,-1.8 -2,-2.52a17.72,17.72 0 0 0 -30.2,17.52a17.52,17.52 0 0 0 16,11.4c7.56,0.12 14.16,-4 16.68,-10.92c1.2,-3.24 3.36,-4.44 6.24,-5.52c0.72,9.48 -7.68,19.08 -18.36,21.24a22.86,22.86 0 0 1 -14,-43.08c10.56,-5.04 22.68,-1.68 29.28,8.52z" id="svg_18"/>
       <path d="m983.84,400.09c-1,1.08 -1.92,2.16 -3.12,3.48c-0.84,-0.72 -1.56,-1.32 -2.28,-1.92a17.1,17.1 0 1 0 -9.84,30.48a16.64,16.64 0 0 0 15.48,-12.36c0.84,-3.36 2.88,-5.4 5.28,-7.68c2.76,7.8 -3.24,19.08 -12.24,23.16a22.32,22.32 0 0 1 -21.84,-38.76c10.2,-6.84 23.28,-3.36 28.56,3.6z" id="svg_19"/>
       <path d="m1070.6,337.93l-26.76,0a19.44,19.44 0 0 1 -2.64,-0.12a2.53,2.53 0 0 1 -0.12,-5a10.32,10.32 0 0 1 1.92,-0.12l55.2,-0.72l1.92,0a2.44,2.44 0 0 1 2.52,2.4c0,1.56 -1.08,2.28 -2.4,2.64a18.58,18.58 0 0 1 -2.64,0.12l-27.12,0a3.17,3.17 0 0 1 0.12,0.8z" id="svg_20"/>
       <path d="m1036.64,489.85l24.84,0a14.52,14.52 0 0 1 2.28,0.12a2.59,2.59 0 0 1 2.4,2.64a2.47,2.47 0 0 1 -2.4,2.28a10.32,10.32 0 0 1 -1.92,0.12c-16.68,-0.24 -33.36,-0.6 -50,-0.84a5.85,5.85 0 0 1 -2.88,-0.48a2.88,2.88 0 0 1 -1.32,-2.28a2.81,2.81 0 0 1 1.68,-2a7.62,7.62 0 0 1 2.88,-0.24l24.48,0l-0.04,0.68z" id="svg_21"/>
       <path d="m993.32,338.89c1,-1 1.68,-1.68 2.52,-2.4c7.56,-7.92 15,-15.84 22.56,-23.64a21.56,21.56 0 0 1 2.4,-2.28a2.22,2.22 0 0 1 3,0.12a2.31,2.31 0 0 1 0.48,3.24a18.91,18.91 0 0 1 -1.44,1.8l-26.52,28a7.53,7.53 0 0 1 -1.44,1.32c-1.56,1.2 -3.12,1.2 -4.2,-0.6c-1.92,-3.24 -3.72,-6.6 -5.52,-10a2.41,2.41 0 0 1 1.08,-3.36a2.29,2.29 0 0 1 3.12,0.84a14.14,14.14 0 0 1 1.32,2.28c0.84,1.44 1.68,2.88 2.64,4.68z" id="svg_22"/>
       <path d="m945.68,499.69c1.2,-0.72 2.16,-1.44 3.12,-2c8.64,-6 17.4,-12 26,-18a17.75,17.75 0 0 1 2.52,-1.56a2.42,2.42 0 0 1 3.48,0.72c1,1.32 0.36,2.52 -0.72,3.48a13.58,13.58 0 0 1 -1.56,1.2c-10.2,7.08 -20.4,14 -30.6,21.12c-0.48,0.36 -1.08,0.72 -1.68,1.08c-1.8,1 -3.24,0.72 -4.08,-1.08c-1.56,-3 -2.88,-6.12 -4.2,-9.12a2.45,2.45 0 0 1 1.2,-3.36a2.37,2.37 0 0 1 3.36,1.2c1.12,1.88 2.08,4.04 3.16,6.32z" id="svg_23"/>
       <path d="m970.28,415.45c1.08,-1 1.92,-1.68 2.88,-2.52c7.2,-6.48 14.4,-13 21.48,-19.56c0.72,-0.6 1.44,-1.32 2.28,-1.92a2.44,2.44 0 0 1 3.24,3.6a14.38,14.38 0 0 1 -1.32,1.44c-8.76,7.92 -17.52,16 -26.4,23.88c-3,2.64 -4.32,2.4 -6.24,-1.08c-1.32,-2.4 -2.64,-4.8 -3.84,-7.2a3.75,3.75 0 0 1 -0.6,-1.2c-0.72,-1.8 -0.48,-3 0.72,-3.72s2.64,-0.36 3.84,1.44c0.6,1 1.2,2 1.8,3.12s1.08,1.92 1.56,2.88c0,0.39 0.12,0.48 0.6,0.84z" id="svg_24"/>
       <path d="m1106.72,232.69a19.07,19.07 0 0 1 -3.48,10.44c-1.68,2.28 -4,3.84 -7,3.24s-4.44,-2.64 -5.16,-5.28a16.92,16.92 0 0 1 3,-15.72c1.44,-1.92 3.48,-3.36 6.12,-3a6.51,6.51 0 0 1 5.64,5.16c0.4,1.68 0.52,3.47 0.88,5.16zm-7.08,-5.28c-3,1.68 -3.6,4.44 -4,7.2c-0.36,2.4 -0.36,4.68 1.44,6.6c4.24,-2.28 5.56,-9.21 2.56,-13.8z" id="svg_25"/>
       <path d="m1125,233.65a18.28,18.28 0 0 1 -3.6,10.44c-1.68,2.16 -3.84,3.6 -6.72,3s-4.2,-2.76 -4.8,-5.28a17.41,17.41 0 0 1 3.12,-14.88c1.56,-2.16 3.6,-3.48 6.48,-2.88s4.2,2.64 4.92,5.16a28.18,28.18 0 0 1 0.6,4.44zm-6.48,-4.32c-3.72,2.28 -5,8.76 -2.52,12.36c3.56,-2.28 4.88,-8.76 2.48,-12.36l0.04,0z" id="svg_26"/>
       <path d="m561.8,168.61a9.37,9.37 0 0 1 -9.48,9.24a9.28,9.28 0 0 1 -9.48,-9.12a9.54,9.54 0 0 1 9.6,-9.12a9.3,9.3 0 0 1 9.36,9zm-9.48,4.08a4.23,4.23 0 0 0 4.2,-4.08a4.17,4.17 0 0 0 -4.08,-3.84a4.24,4.24 0 0 0 -4.32,4a4.13,4.13 0 0 0 4.2,3.92z" id="svg_27"/>
       <path d="m1150.4,217.69a18.71,18.71 0 0 1 -1.2,2.64c-5.64,9.72 -11.28,19.44 -16.92,29a7.7,7.7 0 0 1 -1.2,1.56a2.36,2.36 0 0 1 -3,0.36a2.27,2.27 0 0 1 -1,-2.88c0.36,-0.84 0.72,-1.56 1.08,-2.4l16.2,-27.72a5.66,5.66 0 0 1 1.8,-2.28a3,3 0 0 1 2.64,-0.24c0.64,0.27 1,1.27 1.6,1.96z" id="svg_28"/>
       <path d="m588,171.25a8.3,8.3 0 0 1 -8.16,8.4a8.71,8.71 0 0 1 -8.88,-8.52a8.23,8.23 0 0 1 8.4,-8.52a8.84,8.84 0 0 1 8.64,8.64zm-5.16,0.24a3.56,3.56 0 0 0 -3.36,-3.6a2.92,2.92 0 0 0 -3.24,2.76a3.56,3.56 0 0 0 3.48,3.84a3.24,3.24 0 0 0 3.08,-3l0.04,0z" id="svg_29"/>
       <path d="m615,173.65a7.82,7.82 0 0 1 -7.92,8.16a9.23,9.23 0 0 1 -9,-9a7.91,7.91 0 0 1 8.16,-8.28a9,9 0 0 1 8.76,9.12zm-5.28,0a3.83,3.83 0 0 0 -3.6,-3.84a2.84,2.84 0 0 0 -2.88,2.88a4,4 0 0 0 3.72,3.84a2.62,2.62 0 0 0 2.72,-2.88l0.04,0z" id="svg_30"/>
       <path d="m1080.44,229.33c-1.92,0.6 -3.72,1.2 -4.68,-0.6s0.36,-3.12 1.56,-4.2c1.32,-1.32 2.64,-2.52 4,-3.84c1.08,-1.08 2.4,-1.68 3.84,-1s1.68,2.16 1.44,3.72c-1,6.48 -1.8,13 -2.76,19.44c-0.12,1.32 -0.24,2.64 -0.36,3.84a2.87,2.87 0 0 1 -2.76,2.76a2.48,2.48 0 0 1 -2.4,-2.88c0.12,-2.64 0.6,-5.16 1,-7.8c0.28,-3.08 0.68,-6.08 1.12,-9.44z" id="svg_31"/>
       <path d="m1035.8,413.29c2.76,-0.12 5.4,-0.36 8.16,-0.48a33.69,33.69 0 0 1 4.92,-0.12c1.8,0 3,1 3.12,2.28s-1.08,2.64 -3,2.76c-3.6,0.24 -7.2,0.48 -10.8,0.6c-4.92,0.12 -9.84,0.24 -14.76,0.24c-2.76,0 -4.08,-0.84 -4.2,-2.52s1.2,-2.52 4.08,-2.52c4.2,-0.12 8.28,-0.12 12.48,-0.24z" id="svg_32"/>
       <path d="m1152.44,249.13a7,7 0 1 1 -7,-7.32a7.28,7.28 0 0 1 7,7.32zm-4.56,-0.24c-1,-0.84 -1.56,-1.56 -2.28,-1.68c-1.08,-0.24 -1.8,0.6 -1.8,1.68a1.54,1.54 0 0 0 1.92,1.68c0.6,-0.12 1.08,-0.84 2.16,-1.68z" id="svg_33"/>
       <path d="m1134.32,224.29a7.41,7.41 0 0 1 -7.44,-7.08a6.27,6.27 0 0 1 6.24,-6.24a7.25,7.25 0 0 1 7.32,7.2c0.12,3.48 -2.52,6 -6.12,6.12zm-0.24,-4.8c0.6,-0.72 1.2,-1.08 1.2,-1.44a1.55,1.55 0 0 0 -1.8,-1.68c-0.36,0 -1.08,0.84 -1.08,0.84a18,18 0 0 0 1.68,2.28z" id="svg_34"/>
       <path d="m1072.52,418.57l-8.52,0c-2,0 -3.24,-1 -3.24,-2.52s1.2,-2.52 3.12,-2.64c5.76,-0.12 11.52,-0.12 17.28,-0.12c1.8,0 2.88,1 3,2.4s-1,2.64 -3,2.76c-2.76,0.12 -5.64,0 -8.64,0.12z" id="svg_35"/>
       <path d="m915.44,325.93c-1.44,0 -2.76,0.12 -4.08,0a2.3,2.3 0 0 1 -2.4,-2.52a2.44,2.44 0 0 1 2.52,-2.4c2.64,-0.12 5.16,-0.36 7.8,-0.36a2.63,2.63 0 0 1 2.88,2.52c0.12,1.44 -0.84,2.4 -2.64,2.64c-1.44,0.12 -2.88,0.12 -4.08,0.12z" id="svg_36"/>
       <path d="m917.72,311.29c1.32,0 2.64,-0.12 3.84,0a2.31,2.31 0 0 1 2.28,2.4a2.47,2.47 0 0 1 -2.4,2.64c-2.64,0.12 -5.16,0.12 -7.8,0a2.31,2.31 0 0 1 -2.28,-2.4a2.52,2.52 0 0 1 2.4,-2.64c1.32,0 2.64,0.12 4,0l-0.04,0z" id="svg_37"/>
       <path d="m910.88,330.73c1.44,0.24 2.76,0.36 4.2,0.6a2.22,2.22 0 0 1 2,2.52a2.31,2.31 0 0 1 -2.4,2.28a42.48,42.48 0 0 1 -5.52,-0.24c-1.92,-0.24 -3,-1.56 -2.76,-3s1.2,-2.16 3.48,-2a3,3 0 0 1 1,-0.12l0,-0.04z" id="svg_38"/>
      </g>
      <g id="Structure">
       <path class="cls-1" d="m422.36,623.53c-0.12,-1.32 -0.36,-2.4 -0.36,-3.6c0.36,-28.68 0.6,-57.36 1,-86a5.52,5.52 0 0 1 5.52,-5.88a29.18,29.18 0 0 1 3.24,0q87.12,0.36 174.36,0.84c1,0 1.92,-0.12 2.88,-0.12c2.52,0 3.36,0.72 3.24,3.24c0,2 -0.24,4.2 -0.12,6.24c0.12,6.6 0.24,13.08 0.36,19.68a16.44,16.44 0 0 0 0.24,1.92c2.52,0.24 4.92,0.72 7.44,0.72c7.68,0.24 15.24,0.6 22.92,0.6c4.44,0 6,1.08 6.12,6c0.12,6.12 -0.12,12.24 -0.12,18.36l0,4.32a71.67,71.67 0 0 0 7.32,1.32c7.56,1 15.12,1.8 22.8,2.52a27.25,27.25 0 0 0 5.4,-0.36c1.8,-0.24 3,0.48 3.24,2.28a7.26,7.26 0 0 1 0,2.28c-0.24,7.44 -0.36,14.88 -0.6,22.2c-0.12,4.32 -0.12,4.32 -4.44,4.32q-104,-0.36 -208.08,-0.6c-16.56,0 -33.12,0 -49.68,-0.12a10.35,10.35 0 0 1 -2.68,-0.16z" id="svg_39"/>
       <path d="m183,570.48c-12,-13 -23.76,-25.56 -35.64,-38.28c-0.72,0.72 -1.44,1.2 -2,1.8l-31.68,33.12a6.25,6.25 0 0 0 -1.92,4.92c0.24,15.24 0.24,30.6 0.36,45.84a29.18,29.18 0 0 1 0,3.24c-0.24,1.8 -1.32,2.88 -2.64,2.76a2.62,2.62 0 0 1 -2.4,-2.64a14.52,14.52 0 0 0 -0.08,-2.24l-1.08,-125.64q-1.26,-171.54 -2.64,-343l0,-3.12a21.55,21.55 0 0 0 -2.64,-0.24a25,25 0 0 1 -3,0c-2.16,-0.12 -3.24,-1 -3.24,-2.4s1,-2.4 3.12,-2.64a14.52,14.52 0 0 1 2.28,-0.12c1,0 1.92,-0.12 3.12,-0.12l0,-2.88a32.58,32.58 0 0 1 -3.36,0.12c-3.6,0.24 -5.16,-1 -5.4,-4.56c-0.24,-4.92 2.16,-11.28 8.76,-13.56c6.84,-2.28 14.16,2.28 15.84,9.84c0.12,0.72 0.24,1.56 0.36,2.28c0.36,3.72 -0.48,4.68 -4.08,5c-1.8,0.12 -3.72,0.24 -5.52,0.48a4.89,4.89 0 0 0 -0.84,0.24l0,2.88c2.16,-0.12 4.2,-0.24 6.36,-0.24a25,25 0 0 1 3,0c1.8,0.12 2.88,1.2 2.76,2.64a2.62,2.62 0 0 1 -2.52,2.52c-1.2,0.12 -2.4,0.12 -3.6,0.12l-5.88,0.36a25.12,25.12 0 0 0 -0.12,2.88c0,9.36 0.12,18.72 0.12,28.2a4.58,4.58 0 0 0 1.56,3.72c10.8,10.56 21.6,21.24 32.4,31.92c0.24,0.24 0.48,0.36 1,0.84c0.6,-0.6 1.32,-1.2 2,-1.92l34.56,-38.52a5.38,5.38 0 0 0 1.68,-3.68c-0.12,-7.2 -0.12,-14.4 -0.12,-21.6a13.77,13.77 0 0 0 -0.24,-1.68l-3.12,0a11.35,11.35 0 0 1 -2.88,-0.12a2.5,2.5 0 0 1 0,-4.92c1.44,-0.24 3,-0.24 4.56,-0.36s1.92,-0.72 1.44,-2.4l-4.44,0c-2.4,0 -3.12,-0.72 -3.6,-2.88c-1.2,-6.12 3.6,-13.08 9.84,-14.16c6.48,-1.08 12.24,3.36 13.2,10.08c0.48,3.84 -0.6,5.4 -4.56,6.12a29.42,29.42 0 0 1 -3.24,0.24c-1.32,0.12 -1.32,0.24 -1.44,2.4l6.84,0c2.64,0 4,0.72 4.08,2.28s-1.08,2.64 -3.72,2.76c-2.28,0.24 -4.56,0.24 -7.08,0.36a27.84,27.84 0 0 0 -0.24,2.88l0,15.72q0.18,74.52 0.36,149.16q0.54,152.28 1,304.68a18.07,18.07 0 0 1 -0.12,3.6a2.52,2.52 0 0 1 -2.64,2.4a2.36,2.36 0 0 1 -2.28,-2.28a23.12,23.12 0 0 1 -0.12,-2.88c0,-15.24 -0.12,-30.6 -0.12,-45.84a21.61,21.61 0 0 1 -0.36,-3.48zm-39.08,-117.84c-10.56,11.64 -20.92,22.8 -31.32,34.36c11.64,12.48 23.16,25 34.8,37.44c11,-11.64 21.84,-22.8 32.64,-34.2c-12.12,-12.52 -23.88,-24.88 -36.12,-37.6zm34.44,-196.92c-11.52,-11.4 -22.92,-22.56 -34.44,-34c-11,12.24 -21.6,24.12 -32.4,36.12c11.4,11.88 22.44,23.4 33.84,35c11.16,-12.28 21.96,-24.52 33,-37.12zm-32.76,45.12c-10.68,12.12 -21.12,24 -31.68,35.88c11.52,11.28 22.8,22.2 34.2,33.36c10.56,-10.8 21.36,-21.84 32.28,-33.12c-11.76,-12.12 -23.16,-23.96 -34.8,-36.12zm-32.4,112.32c10.32,10.8 20.4,21.24 30.72,31.92c11.4,-12.48 22.44,-24.6 33.48,-36.72c-10.2,-10 -20.16,-19.8 -30.36,-29.76c-10.92,11.16 -22.32,22.68 -33.84,34.56zm34.2,35.64l34.8,36.2c0.72,-4 0.48,-71.52 -0.36,-74c-11.4,12.6 -22.84,25.08 -34.44,37.8zm0,-230.76c11.52,11.28 22.68,22.32 34.32,33.72l0,-71c-0.24,-0.12 -0.36,-0.24 -0.6,-0.36c-11.12,12.44 -22.32,24.92 -33.72,37.6l0,0.04zm34.68,113.16c0.72,-7.8 0.12,-68.28 -0.72,-70.92c-10.8,12.24 -21.6,24.36 -32.4,36.6c11.04,11.4 21.84,22.56 33.12,34.32zm-72,10c0.24,22.08 0.36,44.16 0.6,66.24c0.24,0.12 0.48,0.12 0.72,0.24l32.6,-33.4c-11.48,-11.16 -22.64,-22.08 -33.92,-33.12l0,0.04zm-0.12,-77.4l0,68.2a1.73,1.73 0 0 0 0.84,0.24c10.44,-11.76 20.76,-23.52 31.2,-35.4c-10.8,-11 -21.24,-21.84 -32,-33.08l-0.04,0.04zm1.56,229.68c-0.12,1.2 -0.24,1.68 -0.24,2c0.24,21.72 0.48,43.32 0.72,65c0,0.12 0.12,0.12 0.24,0.24s0.24,0.12 0.48,0.24l31.2,-32.64c-10.92,-11.72 -21.48,-23 -32.4,-34.88l0,0.04zm71.28,2.76a5.85,5.85 0 0 0 -0.84,-0.36c-10.32,10.8 -20.52,21.48 -31,32.28c0.48,0.6 0.72,1.08 1.08,1.44c10.08,10.8 20,21.48 30.12,32.16c0,0.12 0.24,0.12 0.36,0a0.42,0.42 0 0 0 0.24,-0.12l0.04,-65.4zm-42.48,-278c-10.32,-10.24 -20.52,-20.24 -30.84,-30.44c-0.84,3.36 -0.36,61.56 0.48,64.08c10.04,-11.04 20.04,-22.2 30.36,-33.72l0,0.08zm41.88,186.16c0.72,-5.52 0.36,-58.92 -0.48,-61.32l-30.24,31a1.94,1.94 0 0 1 0.24,0.6c9.36,9.48 18.84,19.08 28.32,28.56a8.63,8.63 0 0 0 2.16,1.16zm-41.88,44.52c-9.72,-10.2 -19.32,-20.16 -28.92,-30.12l-0.72,0.36c0.24,20.28 0.36,40.56 0.6,60.84c0.24,0.12 0.36,0.12 0.6,0.24c9.36,-10.44 18.84,-20.76 28.44,-31.32zm-26.4,-316.2c-0.84,-4.92 -4,-7.68 -7.68,-7.44s-6.48,3.72 -6.36,8.16q6.84,-0.18 14.04,-0.72zm77.16,0.36c-0.72,-4.2 -2.76,-6.12 -6,-6s-5.88,2.76 -6.24,6.84c4.08,-0.36 8.04,-0.6 12.24,-0.84z" id="svg_40"/>
       <path class="cls-1" d="m577.28,496.57l0.72,24.84a14.52,14.52 0 0 1 -0.12,2.28c-0.36,1.68 -1.2,2.28 -3,2.28c-3.72,-0.12 -7.44,-0.24 -11.16,-0.24q-66.6,0 -133.2,0.24c-1.2,0 -2.4,0.12 -3.6,0c-1.92,-0.24 -2.64,-1.08 -2.64,-3c0,-2.76 0.12,-5.4 0,-8.16l-0.72,-42.48a7.65,7.65 0 0 1 0.48,-2.88a2.2,2.2 0 0 1 3.48,-1.2a7.13,7.13 0 0 0 4.32,1c45.6,-0.6 91.2,-1.08 136.8,-1.68c1.56,0 3,-0.36 4.56,-0.48c1.92,-0.24 2.88,0.36 3.24,2.28a14.74,14.74 0 0 1 0.24,3.24c0.24,7.8 0.36,15.84 0.6,24l0,-0.04z" id="svg_41"/>
       <path d="m581.32,524.28l3.68,0c8,-0.12 16.2,-0.12 24.24,-0.24l3,0c2.64,0.12 3.24,0.6 3.72,3.12a21.29,21.29 0 0 1 0.24,3.84c-0.24,7.32 -0.6,14.64 -1,22l0,2.88c1.32,0.12 2.52,0.24 3.6,0.24c9.84,0.12 19.68,0.12 29.4,0.24c3.84,0 4.44,0.36 4.56,4.2c0.36,8 0.6,16.08 0.84,24.24c0,1.08 0.12,2.16 0.24,3.48c1.32,0.12 2.52,0.12 3.72,0.24c9.48,0.12 19,0.24 28.44,0.48c4.56,0.12 5.88,1.56 5.76,6c-0.36,9.12 -0.84,18.36 -1.32,27.48a5.44,5.44 0 0 1 -0.36,1.92a2.45,2.45 0 0 1 -2.52,1.68a2.31,2.31 0 0 1 -2.16,-2a11.56,11.56 0 0 1 0,-2.88c0.36,-7.68 0.84,-15.24 1.2,-22.92l0,-3.84c-1.44,-0.12 -2.76,-0.12 -4.08,-0.24c-9.84,-0.12 -19.68,-0.24 -29.4,-0.48a7.86,7.86 0 0 1 -1.68,0c-2.16,-0.24 -2.88,-1.2 -2.88,-3.48c-0.24,-9 -0.48,-18.12 -0.72,-27.12a3.18,3.18 0 0 0 -0.36,-1.2a31.62,31.62 0 0 0 -3.36,-0.24c-9.24,-0.12 -18.6,-0.12 -27.84,-0.24l-2.64,0c-2.4,-0.24 -3.72,-1.56 -3.72,-4.08c0,-2.88 0.12,-5.64 0.24,-8.52c0.24,-5.76 0.6,-11.52 0.84,-17.28c0,-0.48 -0.12,-1.08 -0.12,-1.68l-29.56,0l0,4.12c0.24,29.28 0.48,58.44 0.72,87.72c0,1.2 0,2.4 -0.12,3.6a2.28,2.28 0 0 1 -2.4,2.16a2.14,2.14 0 0 1 -2.28,-1.92c-0.24,-1.2 -0.24,-2.4 -0.36,-3.6c-0.24,-29.4 -0.48,-58.68 -0.72,-88.08l0,-4.2c-50.52,0.24 -100.68,0.48 -151.2,0.84c-0.12,1.32 -0.12,2.28 -0.12,3.36l-0.72,86a29.24,29.24 0 0 1 -0.12,3.24a2.47,2.47 0 0 1 -2.4,2.28a2.52,2.52 0 0 1 -2.6,-2.4a19.44,19.44 0 0 1 -0.12,-2.64q0.54,-74.52 1.2,-149.16c0,-4.56 1.68,-6.24 6.36,-6.24q72.9,-0.18 145.92,-0.48a20,20 0 0 0 4.68,-0.72c1.8,-0.48 3,0.12 3.36,1.92a11.59,11.59 0 0 1 0.12,2.88c0.12,17.4 0.24,34.92 0.48,52.32a20.46,20.46 0 0 1 0.32,3.4zm-89,-27.12a1.52,1.52 0 0 0 -0.12,-0.72c-22.2,-7.8 -44.4,-15.72 -67,-23.64c-0.12,17 -0.36,33.48 -0.48,50.52c22.92,-8.76 45.28,-17.4 67.56,-26.16l0.04,0zm76.68,27.24a1.08,1.08 0 0 1 0.12,-0.6a11.15,11.15 0 0 0 -1.2,-0.6c-21.72,-7.68 -43.56,-15.36 -65.28,-23a5.33,5.33 0 0 0 -4.08,0.24c-20,7.8 -40,15.6 -60,23.4a24.34,24.34 0 0 0 -2.4,1.44c44.84,-0.4 88.76,-0.64 132.84,-0.88zm-60.48,-28c5.52,2.76 64.92,23.4 67.08,23.4l0,-49.4c-22.6,8.76 -44.68,17.4 -67.12,26.04l0.04,-0.04zm53.28,-26.28c-6.72,-1.08 -124.8,-0.48 -127.56,0.36a26.42,26.42 0 0 1 2.52,1.08c20.28,7.2 40.68,14.4 61,21.6a7.08,7.08 0 0 0 5.64,-0.12c18.6,-7.32 37.08,-14.52 55.68,-21.72c0.92,-0.44 1.84,-0.8 2.68,-1.16l0.04,-0.04z" id="svg_42"/>
      </g>
      <g id="Smoke">
       <path d="m382.08,522.92c21.24,-3 38.4,5 53.28,19.08c15.24,14.28 20.88,32.16 19.08,52.92a8.52,8.52 0 0 0 1.68,-1.2a29,29 0 0 1 12.12,-6.12a19.94,19.94 0 0 1 14.88,1.8a90.88,90.88 0 0 1 10.08,6.6c2.64,1.92 4.92,4.32 7.44,6.36c6.48,5.16 14,7.32 22.32,7.08c10.2,-0.36 22,-12.24 18.12,-25.2c-0.36,-1.08 -1,-2.16 -1.44,-3.24c-1,-2 -0.6,-3.6 1.44,-4.08c7.32,-1.56 14.52,-2.28 21.48,2.16c11.4,7.56 16.56,17.88 16.08,31.56c-0.36,10.8 -4.8,19.44 -12.36,26.88a52,52 0 0 1 -30.72,15.36c-7.68,1 -15,-0.6 -22.08,-3.24c-8,-3 -15.36,-7.2 -21.24,-13.68a18,18 0 0 0 -1.56,-1.32c-2.52,1.44 -4.8,3 -7.32,4.32c-15,8.52 -30.12,8.16 -45.12,0a29.19,29.19 0 0 1 -11.4,-10.56a5.12,5.12 0 0 0 -4.44,-2.4c-1.44,-0.12 -2.88,-0.12 -4.2,-0.12q-159.3,-0.54 -318.72,-1a8,8 0 0 1 -7.32,-3.72a37.4,37.4 0 0 1 5.16,-50.16c7.32,-6.6 16.08,-9.24 25.92,-8.52c7.8,0.6 15.12,3.36 22.44,5.76c0.84,0.24 1.68,0.6 2.52,0.84a0.91,0.91 0 0 0 0.48,-0.12c-0.24,-0.84 -0.36,-1.56 -0.6,-2.4c-4.8,-16.32 -0.6,-30.24 11.76,-41.52a25.64,25.64 0 0 1 24,-6.24c4.92,1.08 9.84,3 14.64,4.56a59.3,59.3 0 0 0 13.68,3c11.64,1 21.48,-2.88 29.76,-10.8a137.46,137.46 0 0 0 17,-20.28c12.6,-17.88 21.72,-37.56 28.2,-58.32c7.44,-23.64 13.56,-47.64 19,-71.76c3.24,-14.64 6.36,-29.4 9.48,-44.16c0.48,-2.16 0.72,-4.32 1.08,-6.48a12.66,12.66 0 0 1 0.72,-2.88c1,-2 3.24,-2.4 4.32,-0.36a5.67,5.67 0 0 0 3.24,2.4a126.16,126.16 0 0 0 28.68,7.44c4.32,0.6 4.8,1.44 3.6,5.64c-5.76,20.64 -11.4,41.16 -17.16,61.8c-6.72,24.24 -13.44,48.48 -20.4,72.72a29.45,29.45 0 0 0 0.24,16.44a27.87,27.87 0 0 0 6.36,10.92a10.88,10.88 0 0 0 13.08,2.4a62.18,62.18 0 0 1 12.12,-4.8c16.08,-4 32,8 32.88,24.6a25.26,25.26 0 0 1 -1,6.72a26.06,26.06 0 0 1 -1.28,5.32z" id="svg_43"/>
       <path d="m32.52,611.72c-1,-3.36 -2.28,-6.48 -2.88,-9.6c-3.24,-16.12 11.76,-28.12 26.28,-24.12a21.75,21.75 0 0 1 15.84,21.12c-0.12,9.12 -6.72,17 -16.08,19.32c-1.44,0.36 -2.88,0.72 -4.44,1a5.76,5.76 0 0 0 0,1.44c1.08,4.8 -0.84,8.52 -4.44,11.4a17.65,17.65 0 0 1 -10.2,4c-6.72,0.48 -12.36,-3.48 -13.56,-9.72c-1.04,-5.36 1.56,-12.44 8.4,-14.56a4.45,4.45 0 0 0 1.08,-0.28z" id="svg_44"/>
       <path d="m225.48,499.28c5.52,6.24 5.52,11.72 0.24,15.72c-5,3.84 -11.52,2.16 -15.6,-3.84l-2.28,0c-13.32,1.2 -22.56,-9.6 -18.6,-22.32c2.76,-8.84 8.76,-14.64 17.88,-17.4c10,-2.88 20.28,6.12 21.24,14.4c0.64,4.8 0.12,9.36 -2.88,13.44z" id="svg_45"/>
       <path d="m520.44,576.32a21.08,21.08 0 0 1 -8.4,-10.8c-2.88,-7.92 3.6,-14.76 9.6,-15.72c5,-0.84 9.6,1.8 10.8,6.72a32.21,32.21 0 0 1 0.6,9a11,11 0 0 0 1.08,5.88c3.12,6.24 0.72,12.84 -5.4,15.6a7.06,7.06 0 0 1 -7.2,-0.48a6,6 0 0 1 -2.4,-7.68c0.36,-0.72 0.88,-1.44 1.32,-2.52z" id="svg_46"/>
       <path d="m400.8,479.36c4.32,-0.72 7.68,0.48 9.84,4.32c2.16,4.08 2.16,8.28 -0.48,12.12c-4.08,5.88 -10,7.56 -16.68,6.6c-6.36,-1 -10,-5.4 -11.28,-11.28s1.32,-10.8 5.16,-14.76c3.72,-3.72 8.52,-2.88 12,1.2a10.53,10.53 0 0 1 1.44,1.8z" id="svg_47"/>
       <path d="m361,472.52c-7.44,-0.12 -13,-5.76 -12.6,-13c0.36,-8.16 5.76,-12.84 13.8,-13.2c6.6,-0.24 12.12,6.24 11.88,13.32c-0.4,7.48 -6.16,13 -13.08,12.88z" id="svg_48"/>
       <path d="m18.12,601.28c0,5.16 -4.44,9.84 -9.36,9.72c-4.32,0 -8.76,-4.56 -8.76,-8.88c0,-4.56 4.8,-9.36 9.48,-9.36c5.04,-0.12 8.52,3.48 8.64,8.52z" id="svg_49"/>
       <path d="m418.32,452.24a8.37,8.37 0 0 1 -8.16,-10.92a10.48,10.48 0 0 1 4.08,-5.76c1.2,-0.84 2.52,-1.44 4,-0.6s1.32,2.28 1,3.84c-0.72,3.12 -0.72,3.12 1.68,4.44c2.88,1.68 3.72,3.12 3.24,5.4c-0.8,2.04 -3.16,3.48 -5.84,3.6z" id="svg_50"/>
       <path class="cls-1" d="m219.76,616.67q-37.08,0.72 -74.28,1.56c-7.32,0.12 -14.64,0.6 -21.84,1a23.06,23.06 0 0 1 -2.88,0a2.23,2.23 0 0 1 -2.16,-2.23a2.53,2.53 0 0 1 1.8,-2.76a17.52,17.52 0 0 1 2.64,-0.36c23.28,-0.6 46.68,-1.44 70,-1.92c41.16,-1 82.44,-1.8 123.6,-2.64a29.24,29.24 0 0 1 3.24,0.12a2.28,2.28 0 0 1 2.16,2.4a2.14,2.14 0 0 1 -1.92,2.28a21.8,21.8 0 0 1 -3.84,0.36l-32,0.72l-64.44,1.44l-0.08,0.03z" id="svg_51"/>
       <path class="cls-1" d="m295.48,430.91c0.24,-0.84 0.6,-1.92 1,-3.12q9.54,-29.88 19,-59.76c1.44,-4.56 2.76,-9.12 4.2,-13.68a8.38,8.38 0 0 1 1,-2.4c0.84,-1.44 2.16,-1.92 3.24,-1.32a2.59,2.59 0 0 1 1.44,3a17.09,17.09 0 0 1 -0.6,1.92c-7.92,25.2 -16,50.4 -23.88,75.72c-0.12,0.36 -0.24,0.84 -0.36,1.2c-0.6,1.32 -1.56,2.16 -3,1.8s-2.16,-1.44 -2.04,-3.36z" id="svg_52"/>
       <path class="cls-1" d="m365.8,527.15c2.64,-0.12 4.8,-0.12 7,-0.36c7.56,-0.6 14.16,2.16 20.52,5.52a5,5 0 0 1 1.56,1.2a2.61,2.61 0 0 1 0.12,3.6a2.29,2.29 0 0 1 -3.24,0.36c-2.64,-1.32 -5.28,-2.64 -7.92,-3.84a20.18,20.18 0 0 0 -9.6,-1.8c-3.48,0.12 -7,0.6 -10.44,0.84c-1.56,0.12 -3.36,0.72 -4.44,-1c-1.08,-1.44 -0.36,-2.88 0.36,-4.32c1.68,-3.72 3.36,-7.32 3.48,-11.52s-1.08,-7.92 -4.68,-10.56c-3,-2 -5.16,-2.16 -8.28,-0.12c-1.2,0.72 -2.28,1 -3.24,-0.12a2.44,2.44 0 0 1 -0.48,-3.24a9.7,9.7 0 0 1 2.88,-2.52a10.58,10.58 0 0 1 7.68,-0.48c5.64,1.44 10.56,7.32 11.28,13.2a24.13,24.13 0 0 1 -1.2,11.28c-0.52,1.36 -0.88,2.32 -1.36,3.88z" id="svg_53"/>
       <path class="cls-1" d="m187.24,535.31c-3.48,0.48 -7,0.72 -10.32,1.32a16.63,16.63 0 0 0 -10.2,6c-3.36,4.08 -6.48,8.16 -6.6,13.8a2.49,2.49 0 0 1 -1.68,1.92a2.75,2.75 0 0 1 -2.52,-0.84a6.61,6.61 0 0 1 -0.84,-4c1.92,-11.51 12.36,-21.32 23.92,-22.76c3.6,-0.36 7.2,-0.6 10.68,-0.72a5.47,5.47 0 0 1 3.12,0.72a3.64,3.64 0 0 1 1.44,2.52a2.12,2.12 0 0 1 -2.4,2l-4.6,0.04z" id="svg_54"/>
       <path class="cls-1" d="m108.52,582.59a7.67,7.67 0 0 1 2.64,1.2a3.52,3.52 0 0 1 1,2.52a2.86,2.86 0 0 1 -1.92,1.8c-3.72,-0.24 -5.76,2.28 -7.56,4.92a11.32,11.32 0 0 0 -1.56,10c1.08,3.24 2,6.72 4.8,9a2.2,2.2 0 0 1 0.48,3.24c-0.84,1.2 -2.16,1.8 -3.36,1.08a6.89,6.89 0 0 1 -2.64,-2.28a70.05,70.05 0 0 1 -4.4,-9.16c-2.52,-7.68 1.2,-16.8 8.4,-20.76c1.36,-0.6 2.68,-0.96 4.12,-1.56z" id="svg_55"/>
       <path class="cls-1" d="m326.8,373.79c0.36,-1.8 0.84,-4.08 1.32,-6.24c1.32,-5.76 2.64,-11.52 4,-17.16a23.7,23.7 0 0 1 1,-3.12a2.51,2.51 0 0 1 4.8,1.32a5.1,5.1 0 0 1 -0.24,1.32c-1.92,8.52 -3.84,17 -5.76,25.44c-0.48,1.92 -1.32,2.76 -2.76,2.52s-2.48,-1.44 -2.36,-4.08z" id="svg_56"/>
       <path class="cls-1" d="m468.64,598.91c6.84,0.36 11.88,2.64 16.68,5.4a5.16,5.16 0 0 1 1.2,1.08a2.4,2.4 0 0 1 0.12,3.24a2.43,2.43 0 0 1 -3.24,0.6c-2.28,-1.08 -4.32,-2.52 -6.72,-3.36a32.58,32.58 0 0 0 -7.56,-1.56a6.47,6.47 0 0 0 -6,2.64c-1.2,1.56 -2.52,1.68 -3.6,0.72a2.68,2.68 0 0 1 -0.48,-3.84a12.73,12.73 0 0 1 3.84,-3.36a42.74,42.74 0 0 1 5.76,-1.56z" id="svg_57"/>
       <path class="cls-1" d="m531.64,642.71a54.51,54.51 0 0 1 -6.12,-1.08a2.53,2.53 0 0 1 -2,-3.12a2.5,2.5 0 0 1 3.36,-1.68c6.48,1.44 12,-0.24 17,-4.32c1.56,-1.32 3,-1.08 4,0.12a2.62,2.62 0 0 1 -0.72,4c-4.48,3.2 -9.4,6.2 -15.52,6.08z" id="svg_58"/>
       <path class="cls-1" d="m312.4,481.91c-0.12,5.4 2,10.2 4.32,14.88l0.72,1.08a2.34,2.34 0 0 1 -0.72,3.24a2.56,2.56 0 0 1 -3.36,-0.12a5.16,5.16 0 0 1 -1.08,-1.2c-2.88,-6 -5.52,-12.12 -5.16,-19a5.9,5.9 0 0 1 0.48,-2.52a2.21,2.21 0 0 1 2.88,-1.56a2.32,2.32 0 0 1 1.92,2.29l0,2.91z" id="svg_59"/>
       <path class="cls-1" d="m49.36,581.87c4.44,0 8.28,1.92 11.76,4.2a2.76,2.76 0 0 1 1,4c-0.84,1.2 -2,1.32 -3.72,0.36a34.42,34.42 0 0 0 -4.68,-2.4c-3.12,-1.2 -6.36,-1.68 -9.24,0.6a2.28,2.28 0 0 1 -3.48,-0.24c-1,-1.08 -0.84,-2.52 0.36,-3.84c2.12,-2.08 5,-2.68 8,-2.68z" id="svg_60"/>
       <path class="cls-1" d="m551.2,590.87a21.32,21.32 0 0 1 -0.6,3.36c-1.32,3 -2.52,6 -4.08,8.88c-1,1.8 -2.52,2.16 -3.84,1.44s-1.56,-2 -0.6,-4s1.92,-3.84 2.88,-5.88a7.45,7.45 0 0 0 0.48,-6c-0.72,-2 -0.36,-3.36 1.08,-3.84s3,0.12 3.84,2.16c0.36,1.24 0.64,2.68 0.84,3.88z" id="svg_61"/>
       <path class="cls-1" d="m208.36,476.15a3,3 0 0 1 3.24,2.64c0.12,1.32 -0.84,2.28 -2.76,2.64c-3.48,0.6 -6.84,1.32 -9.12,4.44a2.17,2.17 0 0 1 -3.24,0.36a2.32,2.32 0 0 1 -0.84,-3.12a10,10 0 0 1 2.16,-2.76c2.2,-2.16 7.68,-4.2 10.56,-4.2z" id="svg_62"/>
       <path class="cls-1" d="m386.08,484.55a15.09,15.09 0 0 1 3.84,-6.12a2.44,2.44 0 0 1 3.72,3.12c-1,1.8 -2,3.6 -3.12,5.28a2.22,2.22 0 0 1 -3.12,0.84c-1.08,-0.48 -1.4,-1.67 -1.32,-3.12z" id="svg_63"/>
       <path class="cls-1" d="m262.84,509.51c0,2.52 -3.24,6.84 -5,7.56c-1.08,0.36 -2.28,0.36 -2.88,-0.72a3.44,3.44 0 0 1 -0.24,-2.64a30.37,30.37 0 0 1 4.08,-5.4a3.33,3.33 0 0 1 2.64,-0.48c0.68,0.24 1.04,1.32 1.4,1.68z" id="svg_64"/>
       <path class="cls-1" d="m338.08,614.87a7.27,7.27 0 0 1 -2.28,0c-0.84,-0.36 -1.92,-1.08 -1.92,-1.8a3.09,3.09 0 0 1 1.2,-2.64a8.4,8.4 0 0 1 7.2,-0.12a2.72,2.72 0 0 1 1.08,2.4a3.31,3.31 0 0 1 -1.8,2a16.6,16.6 0 0 1 -3.48,0.12l0,0.04z" id="svg_65"/>
       <path class="cls-1" d="m411.28,543.23c-1.68,-0.84 -3.24,-1.44 -4.56,-2.28a2.3,2.3 0 0 1 -0.6,-3.24a2.22,2.22 0 0 1 2.76,-1.08a21.9,21.9 0 0 1 3.84,1.68a2,2 0 0 1 1,3a6.53,6.53 0 0 1 -2.44,1.92z" id="svg_66"/>
       <path class="cls-1" d="m358.84,451.43c2.28,0 3.6,1 3.84,2.28s-0.6,2.28 -2.52,2.88a19.18,19.18 0 0 1 -2.52,0.6c-1.2,0.24 -2.4,-0.12 -2.64,-1.32a3.38,3.38 0 0 1 0.6,-2.88a11.12,11.12 0 0 1 3.24,-1.56z" id="svg_67"/>
       <path class="cls-1" d="m204.4,539.51a24.29,24.29 0 0 1 -3.36,-1.8a2,2 0 0 1 -0.36,-2.88a3.45,3.45 0 0 1 2.4,-1.08a10.07,10.07 0 0 1 3.12,0.84a2.53,2.53 0 0 1 1.68,3.12c-0.48,1.29 -1.44,1.68 -3.48,1.8z" id="svg_68"/>
       <path class="cls-1" d="m9.16,601.43a2.67,2.67 0 0 1 -2.76,-2.52c0.12,-1.56 2.16,-3 4.08,-3a2.44,2.44 0 0 1 2.52,2.4c0,1.56 -1.92,3 -3.84,3.12z" id="svg_69"/>
       <path class="cls-1" d="m521,553.31a3,3 0 0 1 3.24,2.52c0,1.56 -1.2,2.64 -3.12,2.64s-3.12,-1.08 -3.12,-2.47a2.69,2.69 0 0 1 3,-2.69z" id="svg_70"/>
       <path class="cls-1" d="m535,608.75a2.43,2.43 0 0 1 2.4,2.52a3.3,3.3 0 0 1 -3.48,2.76a2.43,2.43 0 0 1 -2.4,-2.52c0,-1.51 1.68,-2.88 3.48,-2.76z" id="svg_71"/>
       <path class="cls-1" d="m221.44,481.67a2.38,2.38 0 0 1 -2.28,2.64a3,3 0 0 1 -2.76,-2.76a2.46,2.46 0 0 1 2.16,-2.4a2.56,2.56 0 0 1 2.88,2.52z" id="svg_72"/>
       <path class="cls-1" d="m64.48,593.51a2.43,2.43 0 0 1 2.52,2.4a2.37,2.37 0 0 1 -2.28,2.64a2.41,2.41 0 0 1 -2.52,-2.28a2.57,2.57 0 0 1 2.28,-2.76z" id="svg_73"/>
      </g>
      <g id="Rocket">
       <path class="cls-3" d="m390.62,305.28a252,252 0 0 0 19.56,-35.16c5.52,-12.12 10.8,-24.48 16.2,-36.84a8.16,8.16 0 0 1 5.28,3c16.8,20.76 24.48,44.16 21.6,70.8c-1.68,16.08 -7.32,31 -15.48,44.76c-3.48,5.76 -7.56,11.16 -11.4,16.8c-0.36,0.48 -0.6,0.84 -1,1.32c-1,1.08 -1.92,2.16 -3.6,1.56a3.63,3.63 0 0 1 -2,-4.08c2,-8 -0.48,-15.6 -3,-22.92a105.63,105.63 0 0 0 -11.64,-23.64c-4.08,-6 -8.28,-11.52 -14.52,-15.6z" id="svg_74"/>
       <path class="cls-3" d="m304.62,281.16c-0.6,0.24 -1,0.48 -1.32,0.6a63.21,63.21 0 0 0 -19.56,9.6c-12.6,8.76 -23.28,19.32 -30.6,33a18.43,18.43 0 0 0 -1.32,3.6c-0.36,1.32 -1,2.28 -2.4,2.28a2.47,2.47 0 0 1 -2.64,-2c-0.84,-3.6 -1.8,-7.2 -2.4,-10.8c-4.92,-31 3.36,-58.2 23.4,-82.08c9.36,-11.16 20.64,-20.28 33,-28.08a0.42,0.42 0 0 0 0.24,-0.12c1.68,-1 3.36,-1.92 5.16,-0.72s1.08,3.12 0.84,4.8c-2.16,12 -3.84,24.12 -4,36.36a246.84,246.84 0 0 0 1.2,29.76a38,38 0 0 1 0.4,3.8z" id="svg_75"/>
       <path class="cls-1" d="m372.07,66.93c3.72,-0.24 7.32,-0.36 11,-0.72c8.16,-0.84 16.2,0.36 24,2.52a87.85,87.85 0 0 1 33.93,17.16l2.52,2.16c4.92,4 7.44,9 6.84,15.36c-0.36,3.84 -0.6,7.56 -0.84,11.4c-0.6,8.76 -1.2,17.64 -1.8,26.4c-1.08,15.36 -4.8,30.12 -9.84,44.52c-4.32,12.24 -8.52,24.48 -11.64,37.08c-2.16,9.12 -6.12,17.76 -9.84,26.28c-2.28,5.16 -4.44,10.44 -6.6,15.72c-4.2,10.32 -9.84,19.92 -15.84,29.28c-1.92,3 -3.6,6.12 -5.64,9.12a5.69,5.69 0 0 1 -2.52,1.92a58.86,58.86 0 0 1 -7.56,2a2.56,2.56 0 0 0 -2.28,1.92c-0.72,2.4 -1.68,4.68 -2.52,7.08c-1.2,3.6 -2,4.44 -5.88,4.44a43.33,43.33 0 0 1 -10.44,-0.84a191.38,191.38 0 0 1 -35.88,-12.12c-5.64,-2.76 -5.76,-3 -4.56,-9.36c0.36,-1.68 0.6,-3.48 0.84,-5.16a3,3 0 0 0 -3.36,-3.6a5.61,5.61 0 0 1 -6,-6a5.17,5.17 0 0 0 0,-1.92c-3.6,-9.72 -3.84,-19.92 -4.08,-30a228,228 0 0 1 7.68,-61.08c7.32,-28 16.56,-55.08 28.8,-81.24c7.2,-15.24 16.56,-29.16 25.68,-43.32c2.11,-2.84 4.03,-2.6 5.83,1z" id="svg_76"/>
       <path d="m379.48,310c-1.32,3.12 -2.88,6.48 -4.08,9.84s-3.36,4.68 -6.84,4.92c-18.72,1.08 -35.4,-4.56 -50.76,-15a17.55,17.55 0 0 1 -2.28,-1.92a5.72,5.72 0 0 1 -1.8,-5.88c0.48,-1.8 0.84,-3.6 1.32,-5.64c-1.68,-1.2 -3.36,-2.52 -5,-3.72a12,12 0 0 1 -5,-7.68a134.62,134.62 0 0 1 -3.24,-22c-1.68,-26.64 1.8,-52.68 7.92,-78.48c7.92,-33.48 19.8,-65.52 37.2,-95.28c3.84,-6.72 8.4,-13 12.6,-19.44a8.28,8.28 0 0 1 1.92,-2.16a2.22,2.22 0 0 1 3,-0.12a2.45,2.45 0 0 1 0.84,2.88a7.65,7.65 0 0 1 -1,1.68c-17.8,24.44 -30.16,51.56 -39.88,80a339.6,339.6 0 0 0 -15.84,68c-2,16.56 -2.88,33.24 -0.84,49.92c0.6,4.92 1.68,9.84 2.64,14.76a5.16,5.16 0 0 0 2.16,3.12a73.6,73.6 0 0 0 10.48,6.76a108.91,108.91 0 0 0 53.64,10.56a15.43,15.43 0 0 0 11.64,-5.52a104.52,104.52 0 0 0 12.24,-16.92c8.76,-14.64 15.36,-30.36 21,-46.44a485.71,485.71 0 0 0 23,-94.8a366.5,366.5 0 0 0 3.48,-38.16a7.92,7.92 0 0 1 0.12,-1.68c0.24,-2 1.2,-3.12 2.76,-3s2.28,1.2 2.4,3.36l0,1.92a405.17,405.17 0 0 1 -4.68,46.56a488.39,488.39 0 0 1 -21.72,86.56c-5.16,14.64 -10.92,29 -18.6,42.48c-3.6,6.48 -7.92,12.48 -12,18.72a55.2,55.2 0 0 1 -4.92,5.64c-4.68,4.52 -5.52,4.88 -11.88,6.16zm-59.64,-11.16a7.56,7.56 0 0 1 -0.72,2.16c-0.84,1.8 -0.24,3.12 1.32,4.08c0.84,0.48 1.56,1.2 2.4,1.68a77.57,77.57 0 0 0 29.88,11.76c4.92,0.84 10,0.6 15,0.72a3.33,3.33 0 0 0 2.4,-1.2c1.2,-2.4 2.16,-4.92 3.36,-7.8a118.63,118.63 0 0 1 -53.64,-11.36l0,-0.04z" id="svg_77"/>
       <path d="m389.8,172.4a34.68,34.68 0 0 1 0.12,-69.36a34.68,34.68 0 1 1 -0.12,69.36zm-0.12,-5.28a29.4,29.4 0 1 0 -29.28,-29.64a29.35,29.35 0 0 0 29.28,29.64z" id="svg_78"/>
       <path d="m312.52,234.32c1.44,-10.32 2.76,-20.76 4.56,-31c1.56,-8.88 3.6,-17.76 5.4,-26.52a7.33,7.33 0 0 1 0.36,-1.56c0.6,-1.68 1.8,-2.52 3.12,-2.16c1.56,0.36 2,1.56 1.92,3a18.63,18.63 0 0 1 -0.48,2.52c-2.4,12.36 -4.8,24.72 -7,37.2c-1.08,6.48 -1.68,13 -2.28,19.44c-0.36,2.76 -1.2,4.08 -2.88,3.84s-2.4,-1.44 -2.28,-4.08l0,-0.6a0.91,0.91 0 0 0 -0.44,-0.08z" id="svg_79"/>
       <path d="m353.08,121.52c-2,0.12 -3.36,-1.2 -3,-2.64a9.14,9.14 0 0 1 1.56,-3.48a49.82,49.82 0 0 1 17.4,-15c3.36,-1.68 7,-3.12 10.44,-4.68a8.27,8.27 0 0 1 1,-0.36c1.44,-0.48 2.64,-0.24 3.36,1.08s0.12,2.64 -1.32,3.6c-1.08,0.6 -2.16,1 -3.24,1.44c-4.2,2 -8.52,4 -12.48,6.36a38.64,38.64 0 0 0 -11.52,11.4a13.55,13.55 0 0 1 -2.2,2.28z" id="svg_80"/>
       <path d="m397.84,181.28c-2.16,0 -3.6,-0.84 -3.6,-2.4a2.55,2.55 0 0 1 2.28,-2.76c4.44,-0.48 8.16,-2.88 12,-4.92a8.06,8.06 0 0 1 1.44,-0.72a2.45,2.45 0 0 1 2.64,4.08a3.18,3.18 0 0 1 -0.72,0.6c-4,2.28 -7.8,4.8 -12.36,5.64a3.61,3.61 0 0 1 -1.68,0.48z" id="svg_81"/>
       <path d="m316.12,255c0,2 -0.84,3.24 -2.28,3.24s-2.64,-1 -2.88,-2.88c-0.24,-1.56 -0.36,-3.12 1.2,-4.08a3.3,3.3 0 0 1 2.4,-0.24c1.08,0.32 1.56,1.76 1.56,3.96z" id="svg_82"/>
       <path d="m393.52,93.56c2.64,0.12 4.08,1.08 4,2.88c-0.12,1.56 -1.32,2.4 -3.24,2.4c-2.28,0 -4.08,-1.32 -4,-3c0,-1.44 1.2,-2.28 3.24,-2.28z" id="svg_83"/>
       <path d="m389.56,112.52a25.2,25.2 0 1 1 -25.2,25.08a25.17,25.17 0 0 1 25.2,-25.08z" id="svg_84"/>
       <path class="cls-3" d="m452.34,84.12l0,16.2a19.62,19.62 0 0 1 -0.24,2.64c-0.6,2.4 -2.28,3 -4.32,1.68a17.89,17.89 0 0 1 -2.4,-1.8c-16.08,-14.16 -35.16,-22.44 -55.68,-27.6a73,73 0 0 0 -19.08,-2.4c-2,0 -4.08,0.36 -6.24,0.48c-3.12,0.24 -4.68,-1.8 -3.72,-4.8c0.36,-1.08 1.08,-2.16 1.56,-3.24a131.46,131.46 0 0 1 13.68,-19.44a220.14,220.14 0 0 1 44.16,-39.6a90.23,90.23 0 0 1 9.36,-5.4c3.24,-1.68 5.28,-0.84 6.72,2.52c7.44,18.48 11.88,37.8 14.4,57.6c0.96,7.68 1.2,15.48 1.8,23.16z" id="svg_85"/>
       <path class="cls-3" d="m323.58,303.72c0.6,-27.12 6.84,-50.52 21.12,-71.4a80.37,80.37 0 0 1 21.24,-21.48a16.2,16.2 0 0 1 3.48,-1.92c2.64,-1.08 3.72,-0.6 4.92,2c0.6,1.32 1.08,2.64 1.56,4a73.9,73.9 0 0 1 3.84,20.52c1.08,19.32 -2.4,38 -8.64,56.16c-5.76,16.56 -13.68,32 -24.6,45.84a103.43,103.43 0 0 1 -7.56,8.52c-2.52,2.64 -4.8,2.16 -6.36,-1.08a88,88 0 0 1 -7.58,-26.28c-0.82,-5.52 -1.18,-11.16 -1.42,-14.88z" id="svg_86"/>
      </g>
      <g id="Accent">
       <path d="m305.54,346c-0.12,0.6 -0.36,1.44 -0.6,2.28c-5.64,19.44 -11.16,39 -16.8,58.44a16,16 0 0 1 -0.84,2.16a2.42,2.42 0 0 1 -3.12,1.2a2.35,2.35 0 0 1 -1.56,-2.88a14.51,14.51 0 0 1 0.6,-2.16q8.46,-29.16 16.8,-58.44c0.24,-0.6 0.36,-1.32 0.6,-1.92a2.41,2.41 0 0 1 2.88,-1.56c1.44,0.2 2.04,1.16 2.04,2.88z" id="svg_87"/>
       <path d="m306.38,116.52a16.19,16.19 0 0 1 1,-2.88c2.28,-5 4.44,-10.2 7.08,-15c3.72,-6.84 7.92,-13.56 11.88,-20.28a5.64,5.64 0 0 1 0.72,-1.08a2.6,2.6 0 0 1 3.48,-0.84a2.36,2.36 0 0 1 1,3.12a31.67,31.67 0 0 1 -1.8,3.48c-3.36,5.76 -7,11.4 -10.08,17.16c-2.88,5.52 -5.28,11.16 -7.92,16.8c-0.24,0.36 -0.24,0.84 -0.48,1.2c-0.6,1.2 -1.44,1.92 -2.88,1.56s-2.12,-1.56 -2,-3.24z" id="svg_88"/>
       <path d="m488.66,38.76c-2.28,-0.12 -3.36,-1.68 -2.64,-3.24a7.93,7.93 0 0 1 1.68,-2.4c6,-6.12 12.12,-12.24 18.12,-18.36c0.48,-0.48 1.08,-1.08 1.56,-1.08a3.94,3.94 0 0 1 2.64,0.6a2.92,2.92 0 0 1 0.48,2.64c-0.12,0.72 -1,1.44 -1.56,2c-6,6 -11.88,12.12 -17.88,18.12a18,18 0 0 1 -2.4,1.72z" id="svg_89"/>
       <path d="m495.74,46.92c-0.6,-0.36 -1.56,-0.72 -1.8,-1.32a2.91,2.91 0 0 1 0.12,-2.64a6.12,6.12 0 0 1 2.52,-2c7.56,-3.76 15.12,-7.36 22.68,-10.96a6,6 0 0 1 1.56,-0.6a2.23,2.23 0 0 1 2.76,1.2a2.46,2.46 0 0 1 -0.72,3.24a5.67,5.67 0 0 1 -1.44,0.84l-23.76,11.52a9.1,9.1 0 0 1 -1.92,0.72z" id="svg_90"/>
       <path d="m481.22,27.6c-1.92,0 -3,-1.08 -2.88,-2.64a6.46,6.46 0 0 1 1.08,-3c4.32,-6.84 8.76,-13.68 13.2,-20.52a2.59,2.59 0 0 1 3.6,-1.08c1.2,0.72 1.56,2.16 0.72,3.72a13.18,13.18 0 0 1 -1.08,1.68c-4.32,6.72 -8.52,13.32 -12.84,20a6.37,6.37 0 0 1 -1.8,1.84z" id="svg_91"/>
       <path d="m352.7,368.52a31.15,31.15 0 0 1 0.84,-3.72c1.92,-6.24 3.72,-12.48 5.76,-18.72a7.8,7.8 0 0 1 1.32,-2.64a2.05,2.05 0 0 1 2.88,-0.72a5.19,5.19 0 0 1 1.44,2.64c0.12,0.48 -0.36,1.2 -0.48,1.92c-2.16,7.56 -4.32,15 -6.48,22.56c-0.48,1.8 -1.56,2.64 -2.88,2.4c-1.56,-0.24 -2.4,-1.44 -2.4,-3.72z" id="svg_92"/>
       <path d="m289.94,129.72c0.24,-0.84 0.48,-1.8 0.72,-2.76a116,116 0 0 1 8.4,-19.44c0.12,-0.24 0.24,-0.36 0.36,-0.6c1.2,-1.92 2.64,-2.64 4,-1.8s1.68,2.16 0.6,4.32a115.09,115.09 0 0 0 -9,21.36c-0.48,1.8 -1.68,2.52 -3.12,2.16s-1.96,-1.68 -1.96,-3.24z" id="svg_93"/>
       <path d="m281.42,424.32a11.15,11.15 0 0 1 -0.48,1.56c-2.64,6.12 -5.4,12.36 -8.16,18.48a3,3 0 0 1 -1.08,1.56a3.51,3.51 0 0 1 -2.64,0.36a2.84,2.84 0 0 1 -1.32,-2.28a9,9 0 0 1 0.84,-2.76l7.56,-17.24c0.24,-0.6 0.36,-1.44 0.84,-1.68a6.62,6.62 0 0 1 2.76,-1.08c1.2,0.2 1.8,1.4 1.68,3.08z" id="svg_94"/>
       <path d="m466.34,573.36c-0.12,0.36 -0.12,0.84 -0.24,1.32a2.68,2.68 0 0 1 -2.52,2.16a2.38,2.38 0 0 1 -2.4,-2.28c-0.48,-2.52 -0.72,-4.92 -1.32,-7.32a24.54,24.54 0 0 0 -4.44,-10.08a3.7,3.7 0 0 1 -0.84,-1.68a4.3,4.3 0 0 1 1,-2.52a2.92,2.92 0 0 1 2.64,0c0.84,0.36 1.44,1.32 2,2c3.96,5.44 5.16,11.92 6.12,18.4z" id="svg_95"/>
       <path d="m25.94,578.52c-2,-0.12 -3.12,-1.44 -2.76,-3a11.26,11.26 0 0 1 1.68,-3.12c3.12,-3.72 7.32,-6.12 11.64,-8.28a2.66,2.66 0 0 1 3.72,1c0.6,1.2 0.24,2.52 -1.32,3.6s-3.12,1.68 -4.44,2.76c-2.16,1.68 -4.2,3.6 -6.36,5.52c-0.84,0.56 -1.68,1.16 -2.16,1.52z" id="svg_96"/>
       <path d="m478.46,575.16c-0.24,1.92 -1,3 -2.28,3.24s-2.64,-0.72 -3,-2.76c-0.72,-3.84 -1,-7.8 -2.76,-11.4a2.14,2.14 0 0 1 1.08,-3a2.41,2.41 0 0 1 3,0.6a7.45,7.45 0 0 1 1.68,2.76c0.82,3.6 1.56,7.08 2.28,10.56z" id="svg_97"/>
       <path d="m330.5,469.2c0.24,-1.92 0.24,-3.48 0.6,-5c0.36,-1.8 1.44,-2.64 2.88,-2.52s2.28,1.32 2.28,3.12l0,8.76c0,1.44 -0.6,2.64 -2.16,2.88a2.4,2.4 0 0 1 -2.88,-2a29.45,29.45 0 0 1 -0.72,-5.24z" id="svg_98"/>
       <path d="m27.86,556.08c1.92,0.36 3.12,1.2 3.36,2.52c0.24,1.56 -0.72,2.28 -2,2.88s-2.52,1.08 -3.84,1.68q-2.88,1.26 -4,-0.72c-0.72,-1.2 -0.48,-2.52 1.2,-3.6s3.48,-1.84 5.28,-2.76z" id="svg_99"/>
       <path d="m347.06,386.88c0.24,-1 0.24,-2 0.6,-3.12a2.48,2.48 0 0 1 2.64,-1.92a2.45,2.45 0 0 1 2.16,2.76c0,1.44 -0.24,2.76 -0.36,4.2s-0.84,2.52 -2.4,2.52s-2.28,-1.08 -2.52,-2.52a11,11 0 0 0 -0.12,-1.92z" id="svg_100"/>
      </g>
     </g>
    </g>
   </g>
  </g>
  <text fill="#000000" font-family="Fantasy" font-size="26" font-style="italic" font-weight="bold" id="svg_101" letter-spacing="0" stroke="#000000" stroke-width="0" text-anchor="middle" transform="matrix(1 0 0 1 0 0)" x="847.42" xml:space="preserve" y="189.59">Optimize Business with Tailored GPT</text>
  <text fill="#ffffff" font-family="Fantasy" font-size="27" font-weight="bold" id="svg_102" stroke="#000000" stroke-width="0" style="cursor: move;" text-anchor="middle" transform="rotate(20.0747 416.061 56.09)" x="416.42" xml:space="preserve" y="60.59">AI+</text>
 </g>
</svg>