<?xml version="1.0" encoding="UTF-8"?>
<!DOCTYPE svg PUBLIC "-//W3C//DTD SVG 1.1//EN" "http://www.w3.org/Graphics/SVG/1.1/DTD/svg11.dtd">
<svg xmlns="http://www.w3.org/2000/svg" version="1.1" width="3848px" height="2176px" style="shape-rendering:geometricPrecision; text-rendering:geometricPrecision; image-rendering:optimizeQuality; fill-rule:evenodd; clip-rule:evenodd" xmlns:xlink="http://www.w3.org/1999/xlink">
<g><path style="opacity:1" fill="#ffffff" d="M -0.5,-0.5 C 402.833,-0.5 806.167,-0.5 1209.5,-0.5C 1243.16,65.3274 1291.82,117.161 1355.5,155C 1397.95,176.705 1442.61,192.039 1489.5,201C 1534.2,209.14 1578.54,218.807 1622.5,230C 1643.26,235.549 1662.26,244.549 1679.5,257C 1700.7,275.291 1706.87,297.791 1698,324.5C 1692.12,342.924 1683.62,359.924 1672.5,375.5C 1347.5,375.333 1022.5,375.5 697.5,376C 668.814,380.683 650.981,397.183 644,425.5C 643.5,719.5 643.333,1013.5 643.5,1307.5C 643.082,1308.22 642.416,1308.72 641.5,1309C 593.65,1316.77 545.983,1325.44 498.5,1335C 475.959,1339.2 453.292,1342.53 430.5,1345C 391.584,1348.64 353.584,1344.31 316.5,1332C 304.276,1327.22 292.609,1321.39 281.5,1314.5C 304.932,1291.13 318.599,1262.97 322.5,1230C 319.466,1200.81 303.132,1186.65 273.5,1187.5C 224.446,1191.71 206.946,1217.38 221,1264.5C 230.402,1285.24 244.235,1302.4 262.5,1316C 234.388,1341.39 201.388,1356.39 163.5,1361C 146.833,1361.67 130.167,1361.67 113.5,1361C 75.2924,1356.85 37.2924,1351.35 -0.5,1344.5C -0.5,896.167 -0.5,447.833 -0.5,-0.5 Z"/></g>
<g><path style="opacity:1" fill="#fdfdfe" d="M 1209.5,-0.5 C 1213.83,-0.5 1218.17,-0.5 1222.5,-0.5C 1249.9,49.7537 1286.57,92.2537 1332.5,127C 1367,149.957 1404.34,166.957 1444.5,178C 1460.72,182.472 1477.05,186.472 1493.5,190C 1538.3,197.626 1582.63,207.293 1626.5,219C 1650.06,225.449 1671.4,236.116 1690.5,251C 1710.88,270.477 1717.71,293.977 1711,321.5C 1708.6,330.381 1705.6,339.047 1702,347.5C 1695.32,360.876 1688.15,373.876 1680.5,386.5C 1677.08,390.323 1674.42,394.657 1672.5,399.5C 1646.67,439.314 1632.01,482.981 1628.5,530.5C 1627.43,547.889 1630.93,564.222 1639,579.5C 1648.37,589.747 1658.03,590.08 1668,580.5C 1672.05,575.058 1675.05,569.058 1677,562.5C 1682.8,542.949 1688.14,523.282 1693,503.5C 1695.43,493.804 1699.6,484.97 1705.5,477C 1710.44,472.568 1716.11,471.401 1722.5,473.5C 1725.82,480.389 1723.49,483.889 1715.5,484C 1711.18,488.797 1708.02,494.297 1706,500.5C 1700.11,524.412 1693.44,548.079 1686,571.5C 1682.23,581.24 1676.39,589.406 1668.5,596C 1670.74,604.481 1673.24,612.981 1676,621.5C 1687.56,649.005 1707.39,658.171 1735.5,649C 1741.87,644.284 1746.37,638.117 1749,630.5C 1750.87,625.228 1752.54,619.894 1754,614.5C 1758.58,585.925 1762.58,557.258 1766,528.5C 1768.56,513.486 1774.22,499.819 1783,487.5C 1786.83,482.786 1790.83,482.453 1795,486.5C 1795.67,488.5 1795.67,490.5 1795,492.5C 1784.77,503.84 1778.77,517.173 1777,532.5C 1774.12,561.326 1770.12,589.993 1765,618.5C 1762.34,631.154 1757,642.488 1749,652.5C 1747.88,675.055 1757.71,691.222 1778.5,701C 1791.92,702.875 1803.08,698.708 1812,688.5C 1825.22,672.722 1834.22,654.722 1839,634.5C 1844.41,605.953 1849.08,577.286 1853,548.5C 1855.65,534.525 1860.65,521.525 1868,509.5C 1870.46,506.035 1873.3,502.869 1876.5,500C 1882.79,498.622 1885.62,501.122 1885,507.5C 1876.15,516.865 1870.15,527.865 1867,540.5C 1861.88,564.979 1857.88,589.645 1855,614.5C 1852.47,626.944 1849.47,639.277 1846,651.5C 1833.67,679.5 1821.33,707.5 1809,735.5C 1797.55,762.848 1789.55,791.181 1785,820.5C 1783.46,833.322 1785.13,845.656 1790,857.5C 1798.18,868.336 1808.02,870.169 1819.5,863C 1827.96,856.872 1835.46,849.706 1842,841.5C 1865.49,809.547 1885.15,775.214 1901,738.5C 1936.51,659.629 1960.51,577.296 1973,491.5C 1986.29,359.427 1952.63,241.094 1872,136.5C 1841.75,96.2535 1806.25,61.4202 1765.5,32C 1747.59,19.8775 1728.92,9.04412 1709.5,-0.5C 1717.83,-0.5 1726.17,-0.5 1734.5,-0.5C 1782.99,26.4587 1825.16,61.4587 1861,104.5C 1916.05,168.248 1954.05,241.248 1975,323.5C 1978.86,340.72 1982.03,358.054 1984.5,375.5C 1991.33,440.62 1986.83,504.954 1971,568.5C 1963.24,599.52 1954.24,630.187 1944,660.5C 1940.66,688.141 1945.66,714.141 1959,738.5C 1964.75,747.672 1970.75,756.672 1977,765.5C 1979,770.167 1981,774.833 1983,779.5C 1985.83,790.499 1984.66,800.999 1979.5,811C 1993.41,811.176 2007.24,811.676 2021,812.5C 2091.4,997.183 2161.9,1181.85 2232.5,1366.5C 2188.17,1367.67 2143.84,1367.83 2099.5,1367C 2085.2,1327.27 2071.2,1287.44 2057.5,1247.5C 1980.17,1247.33 1902.83,1247.5 1825.5,1248C 1810.79,1287.62 1796.79,1327.45 1783.5,1367.5C 1741.17,1367.5 1698.83,1367.5 1656.5,1367.5C 1722.37,1192.21 1789.04,1017.21 1856.5,842.5C 1847.7,853.46 1837.37,863.627 1825.5,873C 1804.29,883.484 1788.12,878.318 1777,857.5C 1775.26,853.351 1774.26,849.017 1774,844.5C 1772.31,823.035 1774.65,802.035 1781,781.5C 1788.86,755.898 1797.86,730.898 1808,706.5C 1790.13,716.997 1773.29,715.497 1757.5,702C 1745.94,691.269 1738.94,678.103 1736.5,662.5C 1702.54,669.702 1678.71,657.368 1665,625.5C 1661.66,617.127 1659.49,608.461 1658.5,599.5C 1643.51,600.257 1632.68,593.924 1626,580.5C 1618.53,561.561 1615.53,541.894 1617,521.5C 1621.28,482.992 1632.61,446.658 1651,412.5C 1658.02,400.003 1665.19,387.669 1672.5,375.5C 1683.62,359.924 1692.12,342.924 1698,324.5C 1706.87,297.791 1700.7,275.291 1679.5,257C 1662.26,244.549 1643.26,235.549 1622.5,230C 1578.54,218.807 1534.2,209.14 1489.5,201C 1442.61,192.039 1397.95,176.705 1355.5,155C 1291.82,117.161 1243.16,65.3274 1209.5,-0.5 Z"/></g>
<g><path style="opacity:1" fill="#4548c4" d="M 1222.5,-0.5 C 1384.83,-0.5 1547.17,-0.5 1709.5,-0.5C 1728.92,9.04412 1747.59,19.8775 1765.5,32C 1806.25,61.4202 1841.75,96.2535 1872,136.5C 1952.63,241.094 1986.29,359.427 1973,491.5C 1960.51,577.296 1936.51,659.629 1901,738.5C 1885.15,775.214 1865.49,809.547 1842,841.5C 1835.46,849.706 1827.96,856.872 1819.5,863C 1808.02,870.169 1798.18,868.336 1790,857.5C 1785.13,845.656 1783.46,833.322 1785,820.5C 1789.55,791.181 1797.55,762.848 1809,735.5C 1821.33,707.5 1833.67,679.5 1846,651.5C 1849.47,639.277 1852.47,626.944 1855,614.5C 1857.88,589.645 1861.88,564.979 1867,540.5C 1870.15,527.865 1876.15,516.865 1885,507.5C 1885.62,501.122 1882.79,498.622 1876.5,500C 1873.3,502.869 1870.46,506.035 1868,509.5C 1860.65,521.525 1855.65,534.525 1853,548.5C 1849.08,577.286 1844.41,605.953 1839,634.5C 1834.22,654.722 1825.22,672.722 1812,688.5C 1803.08,698.708 1791.92,702.875 1778.5,701C 1757.71,691.222 1747.88,675.055 1749,652.5C 1757,642.488 1762.34,631.154 1765,618.5C 1770.12,589.993 1774.12,561.326 1777,532.5C 1778.77,517.173 1784.77,503.84 1795,492.5C 1795.67,490.5 1795.67,488.5 1795,486.5C 1790.83,482.453 1786.83,482.786 1783,487.5C 1774.22,499.819 1768.56,513.486 1766,528.5C 1762.58,557.258 1758.58,585.925 1754,614.5C 1752.54,619.894 1750.87,625.228 1749,630.5C 1746.37,638.117 1741.87,644.284 1735.5,649C 1707.39,658.171 1687.56,649.005 1676,621.5C 1673.24,612.981 1670.74,604.481 1668.5,596C 1676.39,589.406 1682.23,581.24 1686,571.5C 1693.44,548.079 1700.11,524.412 1706,500.5C 1708.02,494.297 1711.18,488.797 1715.5,484C 1723.49,483.889 1725.82,480.389 1722.5,473.5C 1716.11,471.401 1710.44,472.568 1705.5,477C 1699.6,484.97 1695.43,493.804 1693,503.5C 1688.14,523.282 1682.8,542.949 1677,562.5C 1675.05,569.058 1672.05,575.058 1668,580.5C 1658.03,590.08 1648.37,589.747 1639,579.5C 1630.93,564.222 1627.43,547.889 1628.5,530.5C 1632.01,482.981 1646.67,439.314 1672.5,399.5C 1675.99,395.673 1678.66,391.34 1680.5,386.5C 1688.15,373.876 1695.32,360.876 1702,347.5C 1705.6,339.047 1708.6,330.381 1711,321.5C 1717.71,293.977 1710.88,270.477 1690.5,251C 1671.4,236.116 1650.06,225.449 1626.5,219C 1582.63,207.293 1538.3,197.626 1493.5,190C 1477.05,186.472 1460.72,182.472 1444.5,178C 1404.34,166.957 1367,149.957 1332.5,127C 1286.57,92.2537 1249.9,49.7537 1222.5,-0.5 Z"/></g>
<g><path style="opacity:1" fill="#ffffff" d="M 1734.5,-0.5 C 2438.83,-0.5 3143.17,-0.5 3847.5,-0.5C 3847.5,480.833 3847.5,962.167 3847.5,1443.5C 3739.29,1434.24 3633.62,1412.74 3530.5,1379C 3475.33,1360.25 3424.33,1333.92 3377.5,1300C 3358.55,1284.72 3342.05,1267.22 3328,1247.5C 3316.42,1229.84 3311.75,1210.51 3314,1189.5C 3345.8,1103.78 3377.8,1018.11 3410,932.5C 3416.08,917.615 3417.75,902.281 3415,886.5C 3406.8,862.819 3390.63,853.985 3366.5,860C 3357.88,863.955 3350.38,869.455 3344,876.5C 3303.07,941.342 3267.07,1009.01 3236,1079.5C 3239.98,1017.88 3243.64,956.212 3247,894.5C 3247.89,865.479 3247.56,836.479 3246,807.5C 3245.15,790.632 3240.49,774.965 3232,760.5C 3225.03,749.43 3215.2,745.097 3202.5,747.5C 3202.67,640.166 3202.5,532.833 3202,425.5C 3196.48,400.286 3181.31,384.119 3156.5,377C 2765.87,375.503 2375.2,375.003 1984.5,375.5C 1982.03,358.054 1978.86,340.72 1975,323.5C 1954.05,241.248 1916.05,168.248 1861,104.5C 1825.16,61.4587 1782.99,26.4587 1734.5,-0.5 Z"/></g>
<g><path style="opacity:1" fill="#2e186a" d="M 1672.5,375.5 C 1665.19,387.669 1658.02,400.003 1651,412.5C 1632.61,446.658 1621.28,482.992 1617,521.5C 1615.53,541.894 1618.53,561.561 1626,580.5C 1632.68,593.924 1643.51,600.257 1658.5,599.5C 1659.49,608.461 1661.66,617.127 1665,625.5C 1678.71,657.368 1702.54,669.702 1736.5,662.5C 1738.94,678.103 1745.94,691.269 1757.5,702C 1773.29,715.497 1790.13,716.997 1808,706.5C 1797.86,730.898 1788.86,755.898 1781,781.5C 1774.65,802.035 1772.31,823.035 1774,844.5C 1774.26,849.017 1775.26,853.351 1777,857.5C 1788.12,878.318 1804.29,883.484 1825.5,873C 1837.37,863.627 1847.7,853.46 1856.5,842.5C 1789.04,1017.21 1722.37,1192.21 1656.5,1367.5C 1698.83,1367.5 1741.17,1367.5 1783.5,1367.5C 1796.79,1327.45 1810.79,1287.62 1825.5,1248C 1902.83,1247.5 1980.17,1247.33 2057.5,1247.5C 2071.2,1287.44 2085.2,1327.27 2099.5,1367C 2143.84,1367.83 2188.17,1367.67 2232.5,1366.5C 2161.9,1181.85 2091.4,997.183 2021,812.5C 2007.24,811.676 1993.41,811.176 1979.5,811C 1984.66,800.999 1985.83,790.499 1983,779.5C 1981,774.833 1979,770.167 1977,765.5C 1970.75,756.672 1964.75,747.672 1959,738.5C 1945.66,714.141 1940.66,688.141 1944,660.5C 1954.24,630.187 1963.24,599.52 1971,568.5C 1986.83,504.954 1991.33,440.62 1984.5,375.5C 2375.2,375.003 2765.87,375.503 3156.5,377C 3181.31,384.119 3196.48,400.286 3202,425.5C 3202.5,532.833 3202.67,640.166 3202.5,747.5C 3197.28,749.876 3193.12,753.543 3190,758.5C 3178.92,782.087 3171.25,806.754 3167,832.5C 3165.08,843.091 3163.75,853.758 3163,864.5C 3161.68,892.857 3160.02,921.19 3158,949.5C 3154.93,982.825 3152.1,1016.16 3149.5,1049.5C 3148.83,1049.83 3148.17,1050.17 3147.5,1050.5C 3131.96,948.694 3107.8,849.028 3075,751.5C 3069.14,734.974 3057.97,723.807 3041.5,718C 3031.71,716.229 3023.05,718.562 3015.5,725C 3008.09,731.36 3002.25,738.86 2998,747.5C 2997.33,755.167 2997.33,762.833 2998,770.5C 3010.67,890.88 3031.5,1009.55 3060.5,1126.5C 2978.8,1092.95 2899.8,1098.45 2823.5,1143C 2812.9,1149.79 2802.9,1157.29 2793.5,1165.5C 2792.83,1132.17 2792.17,1098.83 2791.5,1065.5C 2707.5,1065.5 2623.5,1065.5 2539.5,1065.5C 2539.17,1097.34 2539.5,1129 2540.5,1160.5C 2585.17,1160.5 2629.83,1160.5 2674.5,1160.5C 2674.5,1161.83 2674.5,1163.17 2674.5,1164.5C 2667.63,1202.07 2647.97,1230.9 2615.5,1251C 2570.83,1276.02 2524.16,1280.36 2475.5,1264C 2431.66,1245.82 2401.82,1214.32 2386,1169.5C 2367.77,1113.67 2368.1,1058 2387,1002.5C 2413.83,937.728 2462.49,904.395 2533,902.5C 2562.96,902.032 2591.13,908.866 2617.5,923C 2640.6,936.265 2656.6,955.432 2665.5,980.5C 2707.16,981.5 2748.83,981.833 2790.5,981.5C 2778.77,920.953 2746.77,874.453 2694.5,842C 2637.29,809.021 2575.62,795.021 2509.5,800C 2430.69,805.661 2364.52,837.161 2311,894.5C 2265.65,949.361 2243.15,1012.69 2243.5,1084.5C 2243.04,1144.65 2257.87,1200.65 2288,1252.5C 2336.09,1326.14 2404.26,1367.3 2492.5,1376C 2553.45,1380.49 2608.45,1364.83 2657.5,1329C 2667.67,1320.17 2677.17,1310.67 2686,1300.5C 2686.5,1322.83 2686.67,1345.16 2686.5,1367.5C 2713.17,1367.5 2739.83,1367.5 2766.5,1367.5C 2779.53,1388.37 2796.2,1405.87 2816.5,1420C 2866.58,1452.28 2921.58,1468.94 2981.5,1470C 3002.18,1470.58 3022.84,1470.25 3043.5,1469C 3060.43,1466.58 3077.43,1464.75 3094.5,1463.5C 3107.74,1462.31 3119.74,1465.48 3130.5,1473C 3155.91,1494.24 3179.91,1517.07 3202.5,1541.5C 3202.67,1589.17 3202.5,1636.83 3202,1684.5C 3195.24,1714.27 3176.74,1731.1 3146.5,1735C 2967.83,1735.33 2789.17,1735.67 2610.5,1736C 2596.23,1739.22 2584.4,1746.38 2575,1757.5C 2530.08,1829.67 2485.42,1902 2441,1974.5C 2431.78,1985.35 2420.28,1988.85 2406.5,1985C 2401.39,1982.69 2396.89,1979.53 2393,1975.5C 2343.42,1911.35 2294.09,1847.01 2245,1782.5C 2234.5,1769.66 2221,1762.16 2204.5,1760C 2014.34,1758.9 1824.17,1758.4 1634,1758.5C 1319.5,1759 1005,1759.17 690.5,1759C 666.233,1752.4 651.066,1736.9 645,1712.5C 643.532,1661.2 643.032,1609.86 643.5,1558.5C 702.298,1531.1 760.631,1502.6 818.5,1473C 827.477,1468.73 836.81,1465.56 846.5,1463.5C 851.42,1464.45 856.42,1465.12 861.5,1465.5C 868.214,1469.37 874.547,1473.87 880.5,1479C 906.559,1504.17 933.559,1528.17 961.5,1551C 1031.41,1601.42 1109.75,1628.42 1196.5,1632C 1290.96,1635.69 1383.63,1624.69 1474.5,1599C 1495.57,1592.96 1515.24,1583.96 1533.5,1572C 1544.01,1564.83 1551.51,1555.33 1556,1543.5C 1558.69,1530.05 1554.52,1519.21 1543.5,1511C 1529.26,1502.25 1513.76,1498.75 1497,1500.5C 1485.45,1500.46 1473.95,1501.12 1462.5,1502.5C 1459.61,1502.81 1456.95,1502.47 1454.5,1501.5C 1510.26,1477.97 1562.59,1448.8 1611.5,1414C 1625.37,1403.13 1637.54,1390.63 1648,1376.5C 1654.28,1366.67 1656.61,1356 1655,1344.5C 1651.44,1332.95 1643.61,1326.45 1631.5,1325C 1620.43,1324.17 1609.43,1324.67 1598.5,1326.5C 1599.36,1330.55 1601.02,1334.21 1603.5,1337.5C 1609.36,1348.05 1615.36,1358.55 1621.5,1369C 1582.83,1369.5 1544.17,1369.67 1505.5,1369.5C 1495.17,1369.5 1484.83,1369.5 1474.5,1369.5C 1465.75,1353.67 1456.75,1338 1447.5,1322.5C 1446.27,1318.37 1444.27,1314.71 1441.5,1311.5C 1416.26,1320.54 1391.42,1330.54 1367,1341.5C 1357.85,1330.43 1346.01,1324.27 1331.5,1323C 1325.17,1322.33 1318.83,1322.33 1312.5,1323C 1299.05,1326.92 1285.39,1329.76 1271.5,1331.5C 1271.5,1276.17 1271.5,1220.83 1271.5,1165.5C 1299.83,1165.5 1328.17,1165.5 1356.5,1165.5C 1362.72,1165.88 1367.22,1168.88 1370,1174.5C 1404.58,1238.66 1439.41,1302.66 1474.5,1366.5C 1522.5,1367.67 1570.5,1367.83 1618.5,1367C 1576.55,1293.77 1534.89,1220.43 1493.5,1147C 1493.83,1146.17 1494.17,1145.33 1494.5,1144.5C 1558.33,1120.47 1594.5,1074.47 1603,1006.5C 1607.49,965.936 1599.82,927.936 1580,892.5C 1559.73,860.935 1531.9,838.769 1496.5,826C 1472.18,817.671 1447.18,813.005 1421.5,812C 1329.83,811.5 1238.17,811.333 1146.5,811.5C 1146.5,962.833 1146.5,1114.17 1146.5,1265.5C 1110.13,1259 1073.47,1256.5 1036.5,1258C 969.838,1260.97 903.504,1267.3 837.5,1277C 772.702,1286.41 708.035,1296.58 643.5,1307.5C 643.333,1013.5 643.5,719.5 644,425.5C 650.981,397.183 668.814,380.683 697.5,376C 1022.5,375.5 1347.5,375.333 1672.5,375.5 Z"/></g>
<g><path style="opacity:1" fill="#2b276a" d="M 1680.5,386.5 C 1678.66,391.34 1675.99,395.673 1672.5,399.5C 1674.42,394.657 1677.08,390.323 1680.5,386.5 Z"/></g>
<g><path style="opacity:1" fill="#4649c4" d="M 1930.5,674.5 C 1930.98,698.408 1936.81,721.075 1948,742.5C 1955,753.5 1962,764.5 1969,775.5C 1978.06,796.151 1972.23,810.651 1951.5,819C 1935.69,824.13 1921.36,821.463 1908.5,811C 1900.19,804.862 1893.52,797.362 1888.5,788.5C 1902.52,750.464 1916.52,712.464 1930.5,674.5 Z"/></g>
<g><path style="opacity:1" fill="#e6ecf5" d="M 3147.5,1050.5 C 3147.24,1051.98 3147.57,1053.31 3148.5,1054.5C 3149.45,1052.95 3149.79,1051.29 3149.5,1049.5C 3152.1,1016.16 3154.93,982.825 3158,949.5C 3160.02,921.19 3161.68,892.857 3163,864.5C 3163.75,853.758 3165.08,843.091 3167,832.5C 3171.25,806.754 3178.92,782.087 3190,758.5C 3193.12,753.543 3197.28,749.876 3202.5,747.5C 3215.2,745.097 3225.03,749.43 3232,760.5C 3240.49,774.965 3245.15,790.632 3246,807.5C 3247.56,836.479 3247.89,865.479 3247,894.5C 3243.64,956.212 3239.98,1017.88 3236,1079.5C 3267.07,1009.01 3303.07,941.342 3344,876.5C 3350.38,869.455 3357.88,863.955 3366.5,860C 3390.63,853.985 3406.8,862.819 3415,886.5C 3417.75,902.281 3416.08,917.615 3410,932.5C 3377.8,1018.11 3345.8,1103.78 3314,1189.5C 3311.75,1210.51 3316.42,1229.84 3328,1247.5C 3342.05,1267.22 3358.55,1284.72 3377.5,1300C 3424.33,1333.92 3475.33,1360.25 3530.5,1379C 3633.62,1412.74 3739.29,1434.24 3847.5,1443.5C 3847.5,1447.5 3847.5,1451.5 3847.5,1455.5C 3762.61,1447.89 3678.94,1433.39 3596.5,1412C 3534.99,1396.25 3476.33,1373.25 3420.5,1343C 3391.23,1326.94 3364.73,1307.11 3341,1283.5C 3329.04,1270.91 3319.04,1256.91 3311,1241.5C 3303.22,1226.4 3299.89,1210.4 3301,1193.5C 3302.53,1186.38 3304.53,1179.38 3307,1172.5C 3340.02,1086.42 3372.02,1000.09 3403,913.5C 3407.86,896.763 3403.7,882.93 3390.5,872C 3384.31,869.135 3377.98,868.801 3371.5,871C 3364.83,874.003 3359,878.169 3354,883.5C 3317.41,941.991 3284.41,1002.66 3255,1065.5C 3246.11,1085.94 3237.78,1106.61 3230,1127.5C 3223.25,1131.25 3219.75,1129.25 3219.5,1121.5C 3228.76,1020.7 3233.92,919.695 3235,818.5C 3233.94,804.938 3231.61,791.604 3228,778.5C 3224.99,770.172 3219.83,763.672 3212.5,759C 3206.56,757.581 3202.39,759.748 3200,765.5C 3195.22,775.181 3191.22,785.181 3188,795.5C 3184.19,810.401 3180.86,825.401 3178,840.5C 3171.16,933.193 3163.83,1025.86 3156,1118.5C 3151.93,1122.62 3148.26,1122.29 3145,1117.5C 3133.95,1031.14 3117.62,945.805 3096,861.5C 3086.35,823.243 3074.68,785.576 3061,748.5C 3043.57,722.883 3026.57,723.216 3010,749.5C 3009.94,765.548 3010.94,781.548 3013,797.5C 3027.17,913.656 3048.5,1028.32 3077,1141.5C 3074.79,1144.29 3071.96,1145.12 3068.5,1144C 2998.69,1109.31 2928.02,1107.65 2856.5,1139C 2832.37,1150.38 2810.71,1165.22 2791.5,1183.5C 2791.5,1177.83 2791.5,1172.17 2791.5,1166.5C 2792.49,1166.67 2793.16,1166.34 2793.5,1165.5C 2802.9,1157.29 2812.9,1149.79 2823.5,1143C 2899.8,1098.45 2978.8,1092.95 3060.5,1126.5C 3031.5,1009.55 3010.67,890.88 2998,770.5C 2997.33,762.833 2997.33,755.167 2998,747.5C 3002.25,738.86 3008.09,731.36 3015.5,725C 3023.05,718.562 3031.71,716.229 3041.5,718C 3057.97,723.807 3069.14,734.974 3075,751.5C 3107.8,849.028 3131.96,948.694 3147.5,1050.5 Z"/></g>
<g><path style="opacity:1" fill="#4548c4" d="M 3847.5,1455.5 C 3847.5,1637.5 3847.5,1819.5 3847.5,2001.5C 3783.85,1947.52 3722.35,1890.85 3663,1831.5C 3631.79,1798.64 3602.46,1764.3 3575,1728.5C 3562.5,1710.84 3551,1692.51 3540.5,1673.5C 3560.86,1663.31 3576.03,1647.97 3586,1627.5C 3595.03,1605.64 3593.03,1584.98 3580,1565.5C 3566.73,1550.41 3550.23,1544.91 3530.5,1549C 3505.65,1558.86 3496.15,1577.02 3502,1603.5C 3506.48,1625.43 3513.64,1646.43 3523.5,1666.5C 3523.29,1667.09 3522.96,1667.59 3522.5,1668C 3458.04,1687.91 3396.04,1681.91 3336.5,1650C 3326.31,1644.07 3316.64,1637.41 3307.5,1630C 3261.5,1583 3215.17,1536.33 3168.5,1490C 3158.17,1481 3147.83,1472 3137.5,1463C 3124.25,1454.17 3109.58,1450.34 3093.5,1451.5C 3074.15,1453.15 3054.82,1454.98 3035.5,1457C 2984.38,1461.84 2934.38,1456.51 2885.5,1441C 2844.16,1427.29 2809.66,1403.79 2782,1370.5C 2778.67,1363.83 2775.33,1357.17 2772,1350.5C 2766.86,1333.76 2771.03,1320.1 2784.5,1309.5C 2787.39,1310.01 2789.72,1309.34 2791.5,1307.5C 2797.57,1308.02 2803.24,1309.86 2808.5,1313C 2819.5,1322.67 2829.83,1333 2839.5,1344C 2868.4,1366.93 2901.4,1379.6 2938.5,1382C 2967.38,1385.84 2995.72,1383.51 3023.5,1375C 3061.36,1358.84 3081.02,1330.01 3082.5,1288.5C 3078.88,1244.07 3057.21,1211.9 3017.5,1192C 2989.89,1179.01 2960.89,1174.34 2930.5,1178C 2902.78,1182.02 2876.78,1191.02 2852.5,1205C 2837,1214.92 2821.33,1224.58 2805.5,1234C 2801.03,1236.08 2796.36,1237.24 2791.5,1237.5C 2791.5,1219.5 2791.5,1201.5 2791.5,1183.5C 2810.71,1165.22 2832.37,1150.38 2856.5,1139C 2928.02,1107.65 2998.69,1109.31 3068.5,1144C 3071.96,1145.12 3074.79,1144.29 3077,1141.5C 3048.5,1028.32 3027.17,913.656 3013,797.5C 3010.94,781.548 3009.94,765.548 3010,749.5C 3026.57,723.216 3043.57,722.883 3061,748.5C 3074.68,785.576 3086.35,823.243 3096,861.5C 3117.62,945.805 3133.95,1031.14 3145,1117.5C 3148.26,1122.29 3151.93,1122.62 3156,1118.5C 3163.83,1025.86 3171.16,933.193 3178,840.5C 3180.86,825.401 3184.19,810.401 3188,795.5C 3191.22,785.181 3195.22,775.181 3200,765.5C 3202.39,759.748 3206.56,757.581 3212.5,759C 3219.83,763.672 3224.99,770.172 3228,778.5C 3231.61,791.604 3233.94,804.938 3235,818.5C 3233.92,919.695 3228.76,1020.7 3219.5,1121.5C 3219.75,1129.25 3223.25,1131.25 3230,1127.5C 3237.78,1106.61 3246.11,1085.94 3255,1065.5C 3284.41,1002.66 3317.41,941.991 3354,883.5C 3359,878.169 3364.83,874.003 3371.5,871C 3377.98,868.801 3384.31,869.135 3390.5,872C 3403.7,882.93 3407.86,896.763 3403,913.5C 3372.02,1000.09 3340.02,1086.42 3307,1172.5C 3304.53,1179.38 3302.53,1186.38 3301,1193.5C 3299.89,1210.4 3303.22,1226.4 3311,1241.5C 3319.04,1256.91 3329.04,1270.91 3341,1283.5C 3364.73,1307.11 3391.23,1326.94 3420.5,1343C 3476.33,1373.25 3534.99,1396.25 3596.5,1412C 3678.94,1433.39 3762.61,1447.89 3847.5,1455.5 Z"/></g>
<g><path style="opacity:1" fill="#fefefe" d="M 2674.5,1164.5 C 2675.45,1163.08 2675.78,1161.41 2675.5,1159.5C 2630.5,1159.5 2585.5,1159.5 2540.5,1159.5C 2540.5,1128.5 2540.5,1097.5 2540.5,1066.5C 2624.17,1066.5 2707.83,1066.5 2791.5,1066.5C 2791.5,1099.83 2791.5,1133.17 2791.5,1166.5C 2791.5,1172.17 2791.5,1177.83 2791.5,1183.5C 2791.5,1201.5 2791.5,1219.5 2791.5,1237.5C 2791.5,1241.5 2791.5,1245.5 2791.5,1249.5C 2791.5,1265.17 2791.5,1280.83 2791.5,1296.5C 2791.5,1300.17 2791.5,1303.83 2791.5,1307.5C 2789.72,1309.34 2787.39,1310.01 2784.5,1309.5C 2778.49,1309.33 2772.49,1309.5 2766.5,1310C 2754.57,1329.12 2754.57,1348.29 2766.5,1367.5C 2739.83,1367.5 2713.17,1367.5 2686.5,1367.5C 2686.67,1345.16 2686.5,1322.83 2686,1300.5C 2677.17,1310.67 2667.67,1320.17 2657.5,1329C 2608.45,1364.83 2553.45,1380.49 2492.5,1376C 2404.26,1367.3 2336.09,1326.14 2288,1252.5C 2257.87,1200.65 2243.04,1144.65 2243.5,1084.5C 2243.15,1012.69 2265.65,949.361 2311,894.5C 2364.52,837.161 2430.69,805.661 2509.5,800C 2575.62,795.021 2637.29,809.021 2694.5,842C 2746.77,874.453 2778.77,920.953 2790.5,981.5C 2748.83,981.833 2707.16,981.5 2665.5,980.5C 2656.6,955.432 2640.6,936.265 2617.5,923C 2591.13,908.866 2562.96,902.032 2533,902.5C 2462.49,904.395 2413.83,937.728 2387,1002.5C 2368.1,1058 2367.77,1113.67 2386,1169.5C 2401.82,1214.32 2431.66,1245.82 2475.5,1264C 2524.16,1280.36 2570.83,1276.02 2615.5,1251C 2647.97,1230.9 2667.63,1202.07 2674.5,1164.5 Z"/></g>
<g><path style="opacity:1" fill="#211d5d" d="M 1881.5,801.5 C 1884.89,804.385 1888.22,807.552 1891.5,811C 1886.5,811.667 1881.5,811.667 1876.5,811C 1878.43,807.924 1880.09,804.758 1881.5,801.5 Z"/></g>
<g><path style="opacity:1" fill="#fdfdfe" d="M 1356.5,1165.5 C 1328,1164.5 1299.34,1164.17 1270.5,1164.5C 1270.17,1220.34 1270.5,1276 1271.5,1331.5C 1285.39,1329.76 1299.05,1326.92 1312.5,1323C 1318.83,1322.33 1325.17,1322.33 1331.5,1323C 1346.01,1324.27 1357.85,1330.43 1367,1341.5C 1391.42,1330.54 1416.26,1320.54 1441.5,1311.5C 1444.27,1314.71 1446.27,1318.37 1447.5,1322.5C 1401.21,1338.99 1355.87,1357.65 1311.5,1378.5C 1310.48,1379 1310.31,1379.67 1311,1380.5C 1327.57,1393.12 1343.57,1406.46 1359,1420.5C 1397.73,1403.77 1436.23,1386.77 1474.5,1369.5C 1484.83,1369.5 1495.17,1369.5 1505.5,1369.5C 1459.86,1389.14 1414.19,1409.14 1368.5,1429.5C 1380.84,1441.23 1392.01,1453.89 1402,1467.5C 1408.7,1476.9 1413.2,1487.24 1415.5,1498.5C 1415.19,1500.92 1415.53,1503.26 1416.5,1505.5C 1417.11,1505.38 1417.44,1505.04 1417.5,1504.5C 1478.32,1480.43 1535.98,1450.59 1590.5,1415C 1600.2,1408.15 1609.53,1400.82 1618.5,1393C 1629.76,1383.63 1637.93,1372.13 1643,1358.5C 1646.15,1348.31 1642.98,1341.15 1633.5,1337C 1623.47,1335.09 1613.47,1335.26 1603.5,1337.5C 1601.02,1334.21 1599.36,1330.55 1598.5,1326.5C 1609.43,1324.67 1620.43,1324.17 1631.5,1325C 1643.61,1326.45 1651.44,1332.95 1655,1344.5C 1656.61,1356 1654.28,1366.67 1648,1376.5C 1637.54,1390.63 1625.37,1403.13 1611.5,1414C 1562.59,1448.8 1510.26,1477.97 1454.5,1501.5C 1453.53,1501.99 1452.53,1502.49 1451.5,1503C 1455.36,1503.81 1459.02,1503.64 1462.5,1502.5C 1473.95,1501.12 1485.45,1500.46 1497,1500.5C 1513.76,1498.75 1529.26,1502.25 1543.5,1511C 1554.52,1519.21 1558.69,1530.05 1556,1543.5C 1551.51,1555.33 1544.01,1564.83 1533.5,1572C 1515.24,1583.96 1495.57,1592.96 1474.5,1599C 1383.63,1624.69 1290.96,1635.69 1196.5,1632C 1109.75,1628.42 1031.41,1601.42 961.5,1551C 933.559,1528.17 906.559,1504.17 880.5,1479C 874.547,1473.87 868.214,1469.37 861.5,1465.5C 860.942,1464.21 859.942,1463.38 858.5,1463C 854.311,1462.19 850.311,1462.35 846.5,1463.5C 836.81,1465.56 827.477,1468.73 818.5,1473C 760.631,1502.6 702.298,1531.1 643.5,1558.5C 510.376,1619.15 371.042,1657.98 225.5,1675C 150.268,1682.23 74.9345,1683.4 -0.5,1678.5C -0.5,1674.5 -0.5,1670.5 -0.5,1666.5C 173.436,1678.77 342.769,1656.6 507.5,1600C 568.866,1578.32 628.866,1553.32 687.5,1525C 729.043,1504.06 770.71,1483.4 812.5,1463C 825.326,1456.61 838.826,1452.45 853,1450.5C 856.235,1450.58 859.402,1451.08 862.5,1452C 868.337,1455.42 874.004,1459.08 879.5,1463C 900.133,1481.3 920.467,1499.96 940.5,1519C 1004.08,1574.45 1078.08,1607.11 1162.5,1617C 1207.09,1622.18 1251.76,1622.85 1296.5,1619C 1359.18,1614.49 1420.51,1603.15 1480.5,1585C 1497.12,1579.19 1512.79,1571.52 1527.5,1562C 1535.86,1556.44 1541.69,1548.94 1545,1539.5C 1545.9,1530.47 1542.4,1523.63 1534.5,1519C 1523.56,1513.29 1511.89,1510.79 1499.5,1511.5C 1470.54,1513.76 1441.54,1515.59 1412.5,1517C 1402.39,1530.27 1388.89,1536.44 1372,1535.5C 1356.07,1534.19 1340.91,1530.03 1326.5,1523C 1319.17,1519.33 1311.83,1515.67 1304.5,1512C 1274,1494.25 1243.67,1476.25 1213.5,1458C 1188.26,1443.05 1161.59,1431.38 1133.5,1423C 1124.32,1420.69 1114.98,1419.52 1105.5,1419.5C 1105.5,1415.5 1105.5,1411.5 1105.5,1407.5C 1130.23,1409.43 1153.9,1415.6 1176.5,1426C 1190.99,1433.08 1205.32,1440.41 1219.5,1448C 1249.17,1465.67 1278.83,1483.33 1308.5,1501C 1325.87,1510.86 1344.21,1518.19 1363.5,1523C 1378.73,1526.78 1391.57,1522.95 1402,1511.5C 1404.27,1507.07 1404.94,1502.4 1404,1497.5C 1400.07,1485.63 1394.07,1474.97 1386,1465.5C 1380,1458.83 1374,1452.17 1368,1445.5C 1342.38,1421.54 1315.88,1398.71 1288.5,1377C 1250.29,1348.73 1212.63,1319.73 1175.5,1290C 1164.4,1283.12 1152.4,1278.45 1139.5,1276C 1102.4,1269.98 1065.07,1267.98 1027.5,1270C 970.576,1272.72 913.909,1278.05 857.5,1286C 733.252,1304.1 609.585,1325.1 486.5,1349C 468.548,1352.04 450.548,1354.71 432.5,1357C 389.59,1360.94 347.923,1355.6 307.5,1341C 295.626,1335.81 284.126,1329.98 273,1323.5C 224.671,1364.55 168.838,1380.72 105.5,1372C 70.0084,1367.81 34.6751,1362.64 -0.5,1356.5C -0.5,1352.5 -0.5,1348.5 -0.5,1344.5C 37.2924,1351.35 75.2924,1356.85 113.5,1361C 130.167,1361.67 146.833,1361.67 163.5,1361C 201.388,1356.39 234.388,1341.39 262.5,1316C 244.235,1302.4 230.402,1285.24 221,1264.5C 206.946,1217.38 224.446,1191.71 273.5,1187.5C 303.132,1186.65 319.466,1200.81 322.5,1230C 318.599,1262.97 304.932,1291.13 281.5,1314.5C 292.609,1321.39 304.276,1327.22 316.5,1332C 353.584,1344.31 391.584,1348.64 430.5,1345C 453.292,1342.53 475.959,1339.2 498.5,1335C 545.983,1325.44 593.65,1316.77 641.5,1309C 642.416,1308.72 643.082,1308.22 643.5,1307.5C 708.035,1296.58 772.702,1286.41 837.5,1277C 903.504,1267.3 969.838,1260.97 1036.5,1258C 1073.47,1256.5 1110.13,1259 1146.5,1265.5C 1146.5,1114.17 1146.5,962.833 1146.5,811.5C 1238.17,811.333 1329.83,811.5 1421.5,812C 1447.18,813.005 1472.18,817.671 1496.5,826C 1531.9,838.769 1559.73,860.935 1580,892.5C 1599.82,927.936 1607.49,965.936 1603,1006.5C 1594.5,1074.47 1558.33,1120.47 1494.5,1144.5C 1494.17,1145.33 1493.83,1146.17 1493.5,1147C 1534.89,1220.43 1576.55,1293.77 1618.5,1367C 1570.5,1367.83 1522.5,1367.67 1474.5,1366.5C 1439.41,1302.66 1404.58,1238.66 1370,1174.5C 1367.22,1168.88 1362.72,1165.88 1356.5,1165.5 Z"/></g>
<g><path style="opacity:1" fill="#161453" d="M 1271.5,911.5 C 1317.53,911.041 1363.53,911.541 1409.5,913C 1462.26,923.986 1484.09,956.152 1475,1009.5C 1466.48,1038.02 1447.65,1055.52 1418.5,1062C 1412.18,1062.97 1405.84,1063.81 1399.5,1064.5C 1356.83,1064.5 1314.17,1064.5 1271.5,1064.5C 1271.5,1013.5 1271.5,962.5 1271.5,911.5 Z"/></g>
<g><path style="opacity:1" fill="#171453" d="M 2020.5,1146.5 C 1967.5,1147.83 1914.5,1147.83 1861.5,1146.5C 1887.48,1071.41 1913.98,996.412 1941,921.5C 1968.07,996.298 1994.57,1071.3 2020.5,1146.5 Z"/></g>
<g><path style="opacity:1" fill="#717299" d="M 3149.5,1049.5 C 3149.79,1051.29 3149.45,1052.95 3148.5,1054.5C 3147.57,1053.31 3147.24,1051.98 3147.5,1050.5C 3148.17,1050.17 3148.83,1049.83 3149.5,1049.5 Z"/></g>
<g><path style="opacity:1" fill="#6f6e94" d="M 1271.5,911.5 C 1271.5,962.5 1271.5,1013.5 1271.5,1064.5C 1314.17,1064.5 1356.83,1064.5 1399.5,1064.5C 1356.67,1065.5 1313.67,1065.83 1270.5,1065.5C 1270.17,1014 1270.5,962.664 1271.5,911.5 Z"/></g>
<g><path style="opacity:1" fill="#a7a6be" d="M 2791.5,1065.5 C 2791.5,1065.83 2791.5,1066.17 2791.5,1066.5C 2707.83,1066.5 2624.17,1066.5 2540.5,1066.5C 2540.5,1097.5 2540.5,1128.5 2540.5,1159.5C 2540.5,1159.83 2540.5,1160.17 2540.5,1160.5C 2539.5,1129 2539.17,1097.34 2539.5,1065.5C 2623.5,1065.5 2707.5,1065.5 2791.5,1065.5 Z"/></g>
<g><path style="opacity:1" fill="#6d6c94" d="M 2791.5,1065.5 C 2792.17,1098.83 2792.83,1132.17 2793.5,1165.5C 2793.16,1166.34 2792.49,1166.67 2791.5,1166.5C 2791.5,1133.17 2791.5,1099.83 2791.5,1066.5C 2791.5,1066.17 2791.5,1065.83 2791.5,1065.5 Z"/></g>
<g><path style="opacity:1" fill="#51507e" d="M 1861.5,1146.5 C 1914.5,1147.83 1967.5,1147.83 2020.5,1146.5C 2021.04,1146.56 2021.38,1146.89 2021.5,1147.5C 1967.83,1148.83 1914.17,1148.83 1860.5,1147.5C 1860.62,1146.89 1860.96,1146.56 1861.5,1146.5 Z"/></g>
<g><path style="opacity:1" fill="#c1c1d2" d="M 2540.5,1160.5 C 2540.5,1160.17 2540.5,1159.83 2540.5,1159.5C 2585.5,1159.5 2630.5,1159.5 2675.5,1159.5C 2675.78,1161.41 2675.45,1163.08 2674.5,1164.5C 2674.5,1163.17 2674.5,1161.83 2674.5,1160.5C 2629.83,1160.5 2585.17,1160.5 2540.5,1160.5 Z"/></g>
<g><path style="opacity:1" fill="#7b7a9f" d="M 1356.5,1165.5 C 1328.17,1165.5 1299.83,1165.5 1271.5,1165.5C 1271.5,1220.83 1271.5,1276.17 1271.5,1331.5C 1270.5,1276 1270.17,1220.34 1270.5,1164.5C 1299.34,1164.17 1328,1164.5 1356.5,1165.5 Z"/></g>
<g><path style="opacity:1" fill="#e6ecf5" d="M 2791.5,1307.5 C 2791.5,1303.83 2791.5,1300.17 2791.5,1296.5C 2793.5,1296.5 2795.5,1296.5 2797.5,1296.5C 2804.48,1297.32 2810.81,1299.82 2816.5,1304C 2828.52,1315.03 2840.19,1326.36 2851.5,1338C 2879.52,1357.99 2910.85,1368.99 2945.5,1371C 2969.17,1372.6 2992.5,1370.6 3015.5,1365C 3045.13,1354.36 3062.96,1333.53 3069,1302.5C 3072.4,1268.03 3060.9,1239.53 3034.5,1217C 2998.3,1191.06 2958.3,1183.06 2914.5,1193C 2895.29,1198.18 2876.96,1205.51 2859.5,1215C 2846.33,1223.08 2833.33,1231.42 2820.5,1240C 2811.79,1245.07 2802.46,1248.24 2792.5,1249.5C 2792.17,1249.5 2791.83,1249.5 2791.5,1249.5C 2791.5,1245.5 2791.5,1241.5 2791.5,1237.5C 2796.36,1237.24 2801.03,1236.08 2805.5,1234C 2821.33,1224.58 2837,1214.92 2852.5,1205C 2876.78,1191.02 2902.78,1182.02 2930.5,1178C 2960.89,1174.34 2989.89,1179.01 3017.5,1192C 3057.21,1211.9 3078.88,1244.07 3082.5,1288.5C 3081.02,1330.01 3061.36,1358.84 3023.5,1375C 2995.72,1383.51 2967.38,1385.84 2938.5,1382C 2901.4,1379.6 2868.4,1366.93 2839.5,1344C 2829.83,1333 2819.5,1322.67 2808.5,1313C 2803.24,1309.86 2797.57,1308.02 2791.5,1307.5 Z"/></g>
<g><path style="opacity:1" fill="#161453" d="M 2797.5,1296.5 C 2796.08,1295.55 2794.41,1295.22 2792.5,1295.5C 2792.5,1280.17 2792.5,1264.83 2792.5,1249.5C 2802.46,1248.24 2811.79,1245.07 2820.5,1240C 2833.33,1231.42 2846.33,1223.08 2859.5,1215C 2876.96,1205.51 2895.29,1198.18 2914.5,1193C 2958.3,1183.06 2998.3,1191.06 3034.5,1217C 3060.9,1239.53 3072.4,1268.03 3069,1302.5C 3062.96,1333.53 3045.13,1354.36 3015.5,1365C 2992.5,1370.6 2969.17,1372.6 2945.5,1371C 2910.85,1368.99 2879.52,1357.99 2851.5,1338C 2840.19,1326.36 2828.52,1315.03 2816.5,1304C 2810.81,1299.82 2804.48,1297.32 2797.5,1296.5 Z"/></g>
<g><path style="opacity:1" fill="#ffffff" d="M 263.5,1199.5 C 273.31,1198.93 282.977,1199.76 292.5,1202C 301.705,1205.89 307.539,1212.72 310,1222.5C 311.172,1238.32 308.172,1253.32 301,1267.5C 293.257,1282.4 283.424,1295.74 271.5,1307.5C 249.123,1292.73 234.623,1272.4 228,1246.5C 224.439,1229.8 229.606,1216.64 243.5,1207C 249.885,1203.38 256.552,1200.88 263.5,1199.5 Z"/></g>
<g><path style="opacity:1" fill="#717097" d="M 2791.5,1249.5 C 2791.83,1249.5 2792.17,1249.5 2792.5,1249.5C 2792.5,1264.83 2792.5,1280.17 2792.5,1295.5C 2794.41,1295.22 2796.08,1295.55 2797.5,1296.5C 2795.5,1296.5 2793.5,1296.5 2791.5,1296.5C 2791.5,1280.83 2791.5,1265.17 2791.5,1249.5 Z"/></g>
<g><path style="opacity:1" fill="#4548c4" d="M -0.5,1666.5 C -0.5,1563.17 -0.5,1459.83 -0.5,1356.5C 34.6751,1362.64 70.0084,1367.81 105.5,1372C 168.838,1380.72 224.671,1364.55 273,1323.5C 284.126,1329.98 295.626,1335.81 307.5,1341C 347.923,1355.6 389.59,1360.94 432.5,1357C 450.548,1354.71 468.548,1352.04 486.5,1349C 609.585,1325.1 733.252,1304.1 857.5,1286C 913.909,1278.05 970.576,1272.72 1027.5,1270C 1065.07,1267.98 1102.4,1269.98 1139.5,1276C 1152.4,1278.45 1164.4,1283.12 1175.5,1290C 1212.63,1319.73 1250.29,1348.73 1288.5,1377C 1315.88,1398.71 1342.38,1421.54 1368,1445.5C 1374,1452.17 1380,1458.83 1386,1465.5C 1394.07,1474.97 1400.07,1485.63 1404,1497.5C 1404.94,1502.4 1404.27,1507.07 1402,1511.5C 1391.57,1522.95 1378.73,1526.78 1363.5,1523C 1344.21,1518.19 1325.87,1510.86 1308.5,1501C 1278.83,1483.33 1249.17,1465.67 1219.5,1448C 1205.32,1440.41 1190.99,1433.08 1176.5,1426C 1153.9,1415.6 1130.23,1409.43 1105.5,1407.5C 1105.5,1411.5 1105.5,1415.5 1105.5,1419.5C 1114.98,1419.52 1124.32,1420.69 1133.5,1423C 1161.59,1431.38 1188.26,1443.05 1213.5,1458C 1243.67,1476.25 1274,1494.25 1304.5,1512C 1311.83,1515.67 1319.17,1519.33 1326.5,1523C 1340.91,1530.03 1356.07,1534.19 1372,1535.5C 1388.89,1536.44 1402.39,1530.27 1412.5,1517C 1441.54,1515.59 1470.54,1513.76 1499.5,1511.5C 1511.89,1510.79 1523.56,1513.29 1534.5,1519C 1542.4,1523.63 1545.9,1530.47 1545,1539.5C 1541.69,1548.94 1535.86,1556.44 1527.5,1562C 1512.79,1571.52 1497.12,1579.19 1480.5,1585C 1420.51,1603.15 1359.18,1614.49 1296.5,1619C 1251.76,1622.85 1207.09,1622.18 1162.5,1617C 1078.08,1607.11 1004.08,1574.45 940.5,1519C 920.467,1499.96 900.133,1481.3 879.5,1463C 874.004,1459.08 868.337,1455.42 862.5,1452C 859.402,1451.08 856.235,1450.58 853,1450.5C 838.826,1452.45 825.326,1456.61 812.5,1463C 770.71,1483.4 729.043,1504.06 687.5,1525C 628.866,1553.32 568.866,1578.32 507.5,1600C 342.769,1656.6 173.436,1678.77 -0.5,1666.5 Z"/></g>
<g><path style="opacity:1" fill="#ffffff" d="M 2784.5,1309.5 C 2771.03,1320.1 2766.86,1333.76 2772,1350.5C 2775.33,1357.17 2778.67,1363.83 2782,1370.5C 2809.66,1403.79 2844.16,1427.29 2885.5,1441C 2934.38,1456.51 2984.38,1461.84 3035.5,1457C 3054.82,1454.98 3074.15,1453.15 3093.5,1451.5C 3109.58,1450.34 3124.25,1454.17 3137.5,1463C 3147.83,1472 3158.17,1481 3168.5,1490C 3215.17,1536.33 3261.5,1583 3307.5,1630C 3316.64,1637.41 3326.31,1644.07 3336.5,1650C 3396.04,1681.91 3458.04,1687.91 3522.5,1668C 3522.96,1667.59 3523.29,1667.09 3523.5,1666.5C 3513.64,1646.43 3506.48,1625.43 3502,1603.5C 3496.15,1577.02 3505.65,1558.86 3530.5,1549C 3550.23,1544.91 3566.73,1550.41 3580,1565.5C 3593.03,1584.98 3595.03,1605.64 3586,1627.5C 3576.03,1647.97 3560.86,1663.31 3540.5,1673.5C 3551,1692.51 3562.5,1710.84 3575,1728.5C 3602.46,1764.3 3631.79,1798.64 3663,1831.5C 3722.35,1890.85 3783.85,1947.52 3847.5,2001.5C 3847.5,2006.83 3847.5,2012.17 3847.5,2017.5C 3773.14,1954.99 3701.97,1888.65 3634,1818.5C 3601.28,1783.13 3571.62,1745.46 3545,1705.5C 3539.96,1696.58 3534.79,1687.75 3529.5,1679C 3458.08,1701.47 3389.74,1694.14 3324.5,1657C 3316.22,1651.72 3308.22,1646.06 3300.5,1640C 3268.38,1606.71 3235.71,1573.88 3202.5,1541.5C 3179.91,1517.07 3155.91,1494.24 3130.5,1473C 3119.74,1465.48 3107.74,1462.31 3094.5,1463.5C 3077.43,1464.75 3060.43,1466.58 3043.5,1469C 3022.84,1470.25 3002.18,1470.58 2981.5,1470C 2921.58,1468.94 2866.58,1452.28 2816.5,1420C 2796.2,1405.87 2779.53,1388.37 2766.5,1367.5C 2754.57,1348.29 2754.57,1329.12 2766.5,1310C 2772.49,1309.5 2778.49,1309.33 2784.5,1309.5 Z"/></g>
<g><path style="opacity:1" fill="#4548c4" d="M 1447.5,1322.5 C 1456.75,1338 1465.75,1353.67 1474.5,1369.5C 1436.23,1386.77 1397.73,1403.77 1359,1420.5C 1343.57,1406.46 1327.57,1393.12 1311,1380.5C 1310.31,1379.67 1310.48,1379 1311.5,1378.5C 1355.87,1357.65 1401.21,1338.99 1447.5,1322.5 Z"/></g>
<g><path style="opacity:1" fill="#4749c4" d="M 1272.5,1349.5 C 1272.5,1347.5 1272.5,1345.5 1272.5,1343.5C 1285.66,1341.46 1298.66,1338.63 1311.5,1335C 1322.73,1333.72 1333.73,1334.72 1344.5,1338C 1348.45,1340.28 1352.11,1342.95 1355.5,1346C 1337.06,1354.3 1318.56,1362.47 1300,1370.5C 1290.37,1364.03 1281.21,1357.03 1272.5,1349.5 Z"/></g>
<g><path style="opacity:1" fill="#4548c4" d="M 1417.5,1504.5 C 1416.83,1502.5 1416.17,1500.5 1415.5,1498.5C 1413.2,1487.24 1408.7,1476.9 1402,1467.5C 1392.01,1453.89 1380.84,1441.23 1368.5,1429.5C 1414.19,1409.14 1459.86,1389.14 1505.5,1369.5C 1544.17,1369.67 1582.83,1369.5 1621.5,1369C 1615.36,1358.55 1609.36,1348.05 1603.5,1337.5C 1613.47,1335.26 1623.47,1335.09 1633.5,1337C 1642.98,1341.15 1646.15,1348.31 1643,1358.5C 1637.93,1372.13 1629.76,1383.63 1618.5,1393C 1609.53,1400.82 1600.2,1408.15 1590.5,1415C 1535.98,1450.59 1478.32,1480.43 1417.5,1504.5 Z"/></g>
<g><path style="opacity:1" fill="#373169" d="M 1272.5,1343.5 C 1272.5,1345.5 1272.5,1347.5 1272.5,1349.5C 1271.31,1349.03 1270.64,1348.03 1270.5,1346.5C 1270.64,1344.97 1271.31,1343.97 1272.5,1343.5 Z"/></g>
<g><path style="opacity:1" fill="#ffffff" d="M 846.5,1463.5 C 850.311,1462.35 854.311,1462.19 858.5,1463C 859.942,1463.38 860.942,1464.21 861.5,1465.5C 856.42,1465.12 851.42,1464.45 846.5,1463.5 Z"/></g>
<g><path style="opacity:1" fill="#8485d8" d="M 1415.5,1498.5 C 1416.17,1500.5 1416.83,1502.5 1417.5,1504.5C 1417.44,1505.04 1417.11,1505.38 1416.5,1505.5C 1415.53,1503.26 1415.19,1500.92 1415.5,1498.5 Z"/></g>
<g><path style="opacity:1" fill="#7f7ea0" d="M 1454.5,1501.5 C 1456.95,1502.47 1459.61,1502.81 1462.5,1502.5C 1459.02,1503.64 1455.36,1503.81 1451.5,1503C 1452.53,1502.49 1453.53,1501.99 1454.5,1501.5 Z"/></g>
<g><path style="opacity:1" fill="#ffffff" d="M 3202.5,1541.5 C 3235.71,1573.88 3268.38,1606.71 3300.5,1640C 3308.22,1646.06 3316.22,1651.72 3324.5,1657C 3389.74,1694.14 3458.08,1701.47 3529.5,1679C 3534.79,1687.75 3539.96,1696.58 3545,1705.5C 3571.62,1745.46 3601.28,1783.13 3634,1818.5C 3701.97,1888.65 3773.14,1954.99 3847.5,2017.5C 3847.5,2070.17 3847.5,2122.83 3847.5,2175.5C 2564.83,2175.5 1282.17,2175.5 -0.5,2175.5C -0.5,2009.83 -0.5,1844.17 -0.5,1678.5C 74.9345,1683.4 150.268,1682.23 225.5,1675C 371.042,1657.98 510.376,1619.15 643.5,1558.5C 643.032,1609.86 643.532,1661.2 645,1712.5C 651.066,1736.9 666.233,1752.4 690.5,1759C 1005,1759.17 1319.5,1759 1634,1758.5C 1824.17,1758.4 2014.34,1758.9 2204.5,1760C 2221,1762.16 2234.5,1769.66 2245,1782.5C 2294.09,1847.01 2343.42,1911.35 2393,1975.5C 2396.89,1979.53 2401.39,1982.69 2406.5,1985C 2420.28,1988.85 2431.78,1985.35 2441,1974.5C 2485.42,1902 2530.08,1829.67 2575,1757.5C 2584.4,1746.38 2596.23,1739.22 2610.5,1736C 2789.17,1735.67 2967.83,1735.33 3146.5,1735C 3176.74,1731.1 3195.24,1714.27 3202,1684.5C 3202.5,1636.83 3202.67,1589.17 3202.5,1541.5 Z"/></g>
<g><path style="opacity:1" fill="#4649c4" d="M 3536.5,1559.5 C 3563.02,1559.68 3577.35,1573.02 3579.5,1599.5C 3578.6,1619.47 3570.6,1635.97 3555.5,1649C 3548.94,1653.89 3542.1,1658.39 3535,1662.5C 3523.17,1639.85 3515.67,1615.85 3512.5,1590.5C 3513.02,1574.32 3521.02,1563.98 3536.5,1559.5 Z"/></g>
</svg>
