<svg xmlns="http://www.w3.org/2000/svg" viewBox="0 0 1206.74 829.59"><defs><style>.cls-1{fill:#fff;}.cls-2{fill:#2e186a;}.cls-3{fill:#fe7624;}</style></defs><g id="Layer_2" data-name="Layer 2"><g id="All"><g id="SEO"><g id="SEO1"><g id="Woman1"><path id="Path" class="cls-1" d="M1034,274.56a26.56,26.56,0,0,1,3-3.24,13.26,13.26,0,0,1,4.08-2.64c2.76-1.2,4.8.24,4.8,3.24a20,20,0,0,1-.72,4.56,22.73,22.73,0,0,0,2.64,18.48c1.08,1.8,1.92,3.84,2.88,5.76,1.2.36,1.56-.48,1.92-1.32,1.68-3.84,3.36-7.56,4.8-11.4,2.28-5.76,5-11,9.48-15.48a20.35,20.35,0,0,1,7.92-5,48.66,48.66,0,0,1,24.48-2.16,96.89,96.89,0,0,1,10.2,2.52c2.4-7.44,4.8-15.24,5.52-23.52-3.12-.72-6-1.32-8.88-2-7.2-1.92-11.4-4.68-11.16-15.48a55.86,55.86,0,0,1,1.8-11.64c2-7.56,4.44-15,6.72-22.56a4.58,4.58,0,0,1,2.52-3.24c.6-.24,1.08-1,1.68-1.56,1.56-1.56,3.12-3.12,4.68-4.56,4.32-3.6,9.12-4,14-1.44a21.81,21.81,0,0,1,4.92,3.24,129.76,129.76,0,0,1,24,25.32,34.83,34.83,0,0,1,3.72,6.48,26.84,26.84,0,0,1,1.68,7,10.2,10.2,0,0,1-5.4,10.08,42.77,42.77,0,0,1-8.4,3.48c-5.28,1.32-8.52,4.56-9.72,9.84-.48,2.28-1.08,4.44-1.56,6.72-.36,1.56-.24,3.24-1.92,4.32a1.83,1.83,0,0,0-.48,1.2c.24,2.52.36,5,.72,7.44.24,1.56,1.44,2.52,3.24,2.76,1.56.12,3,.48,4.56.72a27.41,27.41,0,0,1,11.28,4.2c2,1.32,4.2,2.64,6.36,4,.48.36,1.2.24,1.92.36l4.56.72c10.32,1.92,15.72,9.12,19.44,18a15.92,15.92,0,0,1,.72,6.72,136.17,136.17,0,0,1-5,26.88c-2.88,10.32-5.52,20.64-7.8,31.08-1.56,7.56-3.72,15-5.76,22.44-1.44,5.16-4.44,9.72-7.56,14a13.09,13.09,0,0,1-9,5.52c-5.52.84-11,2.16-16.56,1.8-10.2-.6-20.4.84-30.6.24a111.28,111.28,0,0,0-22.8.84c-5.4.84-10.92.36-16.32,1-9,1-18.12.6-27.12.48a15.11,15.11,0,0,1-3.24-.48,3,3,0,0,1-2.4-2.76,57.77,57.77,0,0,0-1.56-7.92c-2.76-9.6-5.4-19.32-8.52-28.8-3.24-9.72-7-19.32-10.32-28.92-2.88-8.4-5.64-16.92-8.52-25.44a30.05,30.05,0,0,1-.84-3.12c-.48-2.64.36-4.32,3.12-4.92,3-.72,6-1,9-1.44,1.44-.24,3-.6,4.68-.84-.36-2.88-.6-5.4-1.08-7.92-.12-.84-1.08-1.56-1.56-2.4a63.89,63.89,0,0,1-4.2-7.32c-.84-2-1-4.44.72-6.12,1.08-1.2,2.88-1.68,4.68-2.52,1.68-7.92,1.68-7.92,5.52-11.28-.24-1-.48-2.16-.84-3.24-1.56-5.28-3.12-10.44-4.56-15.72a12.21,12.21,0,0,1-.36-4.2,4.58,4.58,0,0,1,4-3.84c1.8-.24,3.12.84,3.84,3.24.84,2.76,1.32,5.52,2.16,8.28,2.16,7.32,4.44,14.64,6.6,22C1033.44,273.36,1033.68,273.84,1034,274.56Z"/><path class="cls-1" d="M1094.28,799.08c-.84,1.56-1.44,2.64-2,3.84-1.08,2.4-2.16,4.8-3.24,7.08-1.56,3-2.88,3.36-5.64,1.56-1.44-1-2.88-2-4.2-3.12-1.68-1.32-3.36-2.88-5.16-4.08-2.88-1.92-3.6-4.44-3.12-7.56.72-5.28,1.32-10.56,1.92-16,1.32-10.44,2.4-21,3.84-31.44,1-7.08,2.16-14.28,3.12-21.36.48-4,1-8,1.08-12,.12-6.48,0-13.08,0-19.8-3.12-.84-3.6-2.88-3.72-5.52a447.7,447.7,0,0,1,.36-52.32c.36-5.76,1.2-11.52,1.92-17.16a12.46,12.46,0,0,1,1.92-4.68c1.08-1.56,2.28-1.68,3.72-.48,6,4.92,13.32,6.12,20.76,7,3.24.36,6.48,1,9.72,1.08a65.51,65.51,0,0,0,6.84-.48c4.2-.36,8.4-.84,12.72-1.08,2.64-.12,3.24.72,3.24,3.36a104.29,104.29,0,0,1-4.08,25.08c-3.6,12.24-7.08,24.48-10.56,36.72-.6,2-1.08,4-1.8,5.88A360.09,360.09,0,0,0,1108.8,735c-3.24,6.36-3.48,13.44-4,20.28a121.21,121.21,0,0,0,.24,20.88c.72,6.48,2.64,12.72,4.08,19.2.24,1.08.6,2,.84,3.12.6,3.12-.84,4.92-4.08,4.56a29.89,29.89,0,0,1-5.28-1.68C1098.48,800.52,1096.44,799.8,1094.28,799.08Z"/><path class="cls-2" d="M1061.16,527.88a320,320,0,0,1,3-40.08c1.32-9.84,2.4-19.68,3.6-29.52.84-6.84,1.8-13.56,2.4-20.4.72-7.92,1-15.84,1.44-23.88.12-1.68.24-3.48.48-5.16.48-2.4,1.68-2.88,4-1.92a6.9,6.9,0,0,0,3.12.6c11.88-.48,23.76-1.08,35.64-1.56,5.28-.24,10.44-.24,15.72-.48,7-.24,13.92-.48,20.88-.84a4.09,4.09,0,0,0,2.28-.84c2.28-2,3.72-1.8,4.92,1a70.71,70.71,0,0,1,2.88,7c4.32,11.16,8.52,22.44,11,34.2,4.92,23.4,4.8,46.68-1.32,70-4.56,17.28-8,34.8-13.8,51.72a385.25,385.25,0,0,0-11.4,41.88c-1.08,5.16-2,10.2-3,15.36a3.32,3.32,0,0,1-3,2.88,54.73,54.73,0,0,1-18.24.6c-9.12-1.44-18.36-2.64-27.48-4-7.08-1.08-13.44-4.32-19.68-7.8a6.39,6.39,0,0,1-3.36-4.92c-2.52-15.6-5.52-31.08-7.68-46.8A238.06,238.06,0,0,1,1061.16,527.88Z"/><path id="Shape" d="M1016.64,302.76c-.48-2.64-.84-5.28-1.32-7.8a3,3,0,0,0-1.32-1.68,10.11,10.11,0,0,1-3.84-6.24,18.84,18.84,0,0,1,.24-10.32,6.91,6.91,0,0,1,3.24-4.32,4.61,4.61,0,0,0,1.32-1.32c1.44-2.16,2.76-4.32,4.56-7.2-.84-3-1.8-6.84-2.76-10.56-.72-2.76-1.56-5.4-2.16-8.16-.84-3.6.36-5.4,3.84-6.24,1.2-.24,2.4-.48,3.48-.72,3.84-.6,4.56-.12,5.52,3.6,1.08,4.44,2.16,8.88,3.36,13.32l3.24,13a14.91,14.91,0,0,0,.72,2.16,11.37,11.37,0,0,0,1.32-1.56c1.92-2.52,4.08-3.36,7.08-2.64a6.49,6.49,0,0,1,5.28,5.64,11.86,11.86,0,0,1-1.08,7.32,5.86,5.86,0,0,0-.24,5.28,101,101,0,0,0,4.32,11.16c1.2-2.28,2.28-4.56,3.48-6.84,2.4-4.68,4.68-9.36,7.2-13.92,4.92-8.76,12.36-13,22.44-12.24,4.56.24,9.12.24,13.68.6a43.89,43.89,0,0,1,6.72,1.2c1.08.24,2,.36,2.76-.84a62.86,62.86,0,0,0,5-15c-.6-.24-1.32-.48-2-.72s-1.32-.36-1.92-.6c-11.64-3.84-17-11.28-16.32-23.64a73.65,73.65,0,0,1,2.76-15.36c1.44-5.4,3.72-10.44,5.52-15.72a16.2,16.2,0,0,0,.72-4.08,32.13,32.13,0,0,1,6.24-18.24,9.49,9.49,0,0,1,10.08-4,13.09,13.09,0,0,1,4.2,1.8,5.3,5.3,0,0,0,5.16.48,64.85,64.85,0,0,1,8.64-2,31.88,31.88,0,0,1,16.08,1.8,14.78,14.78,0,0,1,7.56,6.48c1,1.8,1.92,3.6,3,6,.48-1.44,1-2.52,1.32-3.6,3.36-10.44,20.88-20.28,33.36-10.32,6.12,4.92,9,11.64,9.6,19.32a9.46,9.46,0,0,1-.84,4.44c-3.72,8.4-9.6,14.52-18.72,16.92-3.12.84-6.48.36-10,.6a13.57,13.57,0,0,0,.48,1.8A18.41,18.41,0,0,1,1175,228.6a41.61,41.61,0,0,1-8.4,8.16,99.88,99.88,0,0,1-11.28,7.2c-2.76,1.68-5.76,3.12-8.4,5a64.45,64.45,0,0,0-6.72,6.12,7.06,7.06,0,0,0-2,5.64c.12,2.52.36,5.16.48,7.92,4.2-.84,7.56.48,10.92,1.8,7.44,2.88,14.76,5.88,22.08,8.88a43.21,43.21,0,0,1,4.68,2.4c8.88,4.8,12.36,12.48,11.76,22.32-.36,7.08-2,14-3.6,20.88-3.12,14.4-6,28.8-9.24,43.08-1.8,7.68-4.08,15.12-6.36,22.68a29.54,29.54,0,0,1-10.56,15,5.17,5.17,0,0,1-2.64,1.08,83.19,83.19,0,0,1-9.36,1.2c-13.2.36-26.4.48-39.6.72-1.44,0-2.88-.24-4.2-.36-1.56-.24-3.12-.6-4.68.6-.6.48-1.68.36-2.52.36-19.68.48-39.48,1-59.16,1.32h-2.28c-4,0-4.68-.6-5.76-4.32-4.2-13.8-8.28-27.6-12.48-41.28-5.4-18-10.8-36.12-16.32-54.12a15.06,15.06,0,0,1-.84-3.12c-.48-3,.6-4.2,3.6-4.44,4.08-.24,8-.36,12.12-.6A8,8,0,0,0,1016.64,302.76Zm122.64-27.48a15.68,15.68,0,0,0-1.44,1.32c-4.68,5.76-9.24,11.64-13.8,17.4a25.32,25.32,0,0,1-2.28,2.76c-2.4,2.28-4.56,1.92-5.88-1a8.27,8.27,0,0,1-.36-1c-3.24-7.56-6.72-15.12-9.84-22.8a5.25,5.25,0,0,0-5.16-3.6c-6.6-.24-13.32-.6-19.92-.72a14.28,14.28,0,0,0-12.24,6.48,90.73,90.73,0,0,0-6.24,10.32c-2.52,4.68-4.68,9.6-7,14.4a17.4,17.4,0,0,0-.72,2.28c6.36-.24,12.24-.36,18.24-.6.72,0,1.44-.72,1.92-1.32,1.08-1.44,1.92-3.12,3-4.68s2.4-1.92,3.6-1.2,1.44,2.16.6,3.72c-.6,1.08-1.32,2-1.92,3a5.33,5.33,0,0,0-.84,4.08c2.16,11.16,4.44,22.2,6.6,33.36a3.53,3.53,0,0,0,.84,2c4,2.88,6.72,6.84,9.12,10.56,1.56.36,2.88.6,4.08,1,10.92,3.24,22,6.48,32.88,9.72a24.28,24.28,0,0,0,3.12.48c.36-.84.6-1.44.84-2,3.12-10.44,6.12-20.88,9.24-31.32.24-.6.24-1.44.6-1.8a5.26,5.26,0,0,1,2.64-1.44,2.08,2.08,0,0,1,1.92,2.52,29.7,29.7,0,0,1-.72,3.48c-2.88,10-5.88,19.92-8.76,29.76a19.77,19.77,0,0,0-.48,3.84c-.12,1.92-1,2.76-2.88,2.76a18.2,18.2,0,0,1-2.52-.36c-6-1.56-12-3.12-18.12-4.56-1-.24-1.8-.36-2.88-.6-2.88,5.4-5.52,10.44-4.56,16.56a2.55,2.55,0,0,1-1.92,3c-1.32.36-2.64-.6-3-2.28-.12-.6-.12-1.32-.24-1.92a23.66,23.66,0,0,1,2.4-12.12c.72-1.56,1.44-3.12,2.16-4.8-1.56-.48-2.88-1-4.2-1.44s-2.64-.84-4.08-1.32c-4.68-1.68-5.16-1.68-8,2.4a21,21,0,0,0-2.64,5.16,37.19,37.19,0,0,0-1.68,12.6c.12,3.12,1.2,5.16,4.56,6.24,6.84,2,13.56,4.68,20.4,7,8.16,2.76,16.2,5.76,24.48,8.16a91.81,91.81,0,0,0,14.16,2.4,7.6,7.6,0,0,0,7.32-3.6,31.61,31.61,0,0,0,3.72-6.84,162.1,162.1,0,0,0,5.16-16.92c4.32-19.08,8.52-38,12.48-57.12a84,84,0,0,0,1.8-15.6,14.91,14.91,0,0,0-7.68-13.92,41.53,41.53,0,0,0-6-3.24c-6.84-2.88-13.68-5.64-20.64-8.4a62,62,0,0,0-6.24-1.92c-1.08-.36-2.16-.48-2.64,1.08A1.28,1.28,0,0,1,1139.28,275.28ZM1003.8,308.52c9.84,32.76,19.56,65,29.16,97.08,5.4.6,57.72-.84,60.36-1.68-1-4.92-1.92-9.84-2.76-14.76a2.68,2.68,0,0,0-2.16-2.16c-1.92-.72-3.24-1.8-3.6-3.84-.36-1.8-1.44-2.4-3-3-8-3.36-16-7-23.88-10.56a14.7,14.7,0,0,1-4.56-3.12c-1.68-1.56-1.68-3.24-.24-5.16.24-.36.6-.72,1-1.2-1.2-.72-2-1.32-3-1.92-1.44-1.08-2.52-2.52-1.92-4.56a4.25,4.25,0,0,1,4-3c1.2-.12,2.52-.12,4.08-.24a37,37,0,0,1-2.4-3.48c-1.68-2.88-.36-5.52,3-5.88a11.59,11.59,0,0,1,2.88.12c6.24.72,11.88,3.36,17.76,5.4,1.2.48,2.4.84,4.08,1.44-2.88-14.4-5.52-28.2-8.4-42.48C1050.84,306.6,1027.68,307.56,1003.8,308.52Zm114.6-60.36a6.43,6.43,0,0,0-.6,1.32,79.31,79.31,0,0,1-7.08,18.6,3.34,3.34,0,0,0,.12,3.36c2.16,4.68,4.32,9.24,6.48,13.92.84,1.8,1.44,3.6,2.28,5.64.6-.72,1.08-1.2,1.44-1.68,3.84-4.8,7.56-9.6,11.52-14.28a5.43,5.43,0,0,0,1.32-5.28,29.76,29.76,0,0,1,0-14.88c1.44-6.12,3.12-12.24,4.68-18.36a2.56,2.56,0,0,1,2.4-1.92c.84,0,1.8.12,2.64.12a10.71,10.71,0,0,0,10.2-9.72,5.08,5.08,0,0,0-2.76-5.16,5.43,5.43,0,0,0-6.12.24,14.38,14.38,0,0,0-1.44,1.32c-1.08.84-2.16,1.08-3.24.12s-1.08-2.16-.12-3.48a26.28,26.28,0,0,1,2.52-2.76,44.68,44.68,0,0,1-19.92-29.76c-1.2.84-2.16,1.32-3,1.92-3.6,2.28-7.32,4.56-11.52,5.28a3.72,3.72,0,0,0-3.36,3c-2,5.88-4.08,11.76-5.76,17.64a43.27,43.27,0,0,0-1.56,13.56,14.88,14.88,0,0,0,8.4,13.44,37.56,37.56,0,0,0,6.12,2.28c3.24,1.08,6.48.12,9.6-.6,1.8-.48,3.12.24,3.48,1.68s-.36,2.64-2.16,3.24A32,32,0,0,1,1118.4,248.16Zm-59.64,107.76c0,.12-.12.24-.12.36.6.36,1.2.84,1.8,1.2,1.68,1,3.36,1.92,5.16,2.88,1.32.72,2.28,1.8,1.68,3.48s-1.92,1.92-3.48,1.56c-.48-.12-1.08-.12-1.56-.24,6.72,4.08,13.92,7,21.48,10.08.72-8.16,1.8-16,8-21.72-1.08-1.68-2-3-3-4.44a2.28,2.28,0,0,0-.48,1.8c.24,3.48-.84,4.32-4.32,3.12a8.33,8.33,0,0,1-1.56-.6c-5.28-1.92-10.56-4-16-5.88-1.44-.48-2.88-.72-4.32-1.08l-.36.72c2,1.44,4.08,2.88,6,4.32,1.44,1,3.12,1.92,2.4,4.08-.48,1.56-1.8,2-4.8,1.44A47.11,47.11,0,0,1,1058.76,355.92Zm39.6,46.68c2.52.36,4.92,1.08,7.32,1.08,8.88.12,17.88,0,26.76,0,.6,0,1.32-.24,2.4-.36-15.12-6.12-35.4-13-38.76-13C1096.8,394.32,1097.52,398.16,1098.36,402.6Zm-78.6-158.52a.93.93,0,0,0-.12.36c3.6,13.68,7.32,27.36,10.92,41a5.33,5.33,0,0,0,2.76,3.36c.48-1.2.72-2.28,1-2.88a38.45,38.45,0,0,1-2.28-4.32c-.84-2.64-1.44-5.52-2-8.16l-7.2-28.8a11.1,11.1,0,0,0-.6-1.2c-.6.12-1.2.12-1.68.24A1,1,0,0,0,1019.76,244.08Zm5.64,45.6a3.18,3.18,0,0,0,.6-.72c-1.2.48-2.28,1.08-3.48,1.56-.12,0-.24.12-.36.12a3.55,3.55,0,0,0-1.92,4c.36,2.28.72,4.44,1.2,6.72.12.48.72.84,1.2,1.44.24-.6.48-.84.48-1.2.48-4.08,1.44-5,5.52-5.16,1.2,0,2.4-.12,4.44-.12C1030.32,293.64,1027.92,291.72,1025.4,289.68Zm19.8,6.12c-1.2-3.6-2.28-6.72-3.36-10-2.52.84-2.52.84-3,2.4-.72,2.52-1.44,4.92-2.16,7.56Zm-1.8-22.56c-.24-.36-.6-1.56-1.44-2-1.2-.72-2,.48-2.52,1.44-1,2-1.8,4.2-2.52,6.24a2.31,2.31,0,0,0,.84,2.16c.36.24,1.44-.12,2-.48C1042,279,1043.16,276.72,1043.4,273.24Zm-22.2-2.88c-2.64,4.08-2,11.4.84,14.76,1.2-1.44,2.28-3,1.8-4.92C1023,277.08,1022.16,274,1021.2,270.36Zm24.24,31.32V301c-5.4.24-10.92.48-16.32.6v.84ZM1015.2,284c-.24,1.8-.12,3.48,1.56,4.56.12-.48.24-.6.12-.84C1016.4,286.56,1015.8,285.24,1015.2,284Z"/><path d="M1076,616.44c1.8.72,3.12,1.32,4.68,1.92-.6,18.48-1.32,36.72.12,55.08,2.64-17.16,5.4-34.2,8.16-51.84,1.92.6,3.24,1.2,4.92,1.68-.72,4-1.32,7.8-1.92,11.64-2.52,16.8-5,33.6-7.44,50.52-.72,5.52-1,11-1.56,16.56-1.56,15.84-3.24,31.68-4.92,47.52-1.44,13.8-3.12,27.48-4.68,41.28a54.11,54.11,0,0,0,0,6.24,28.49,28.49,0,0,1,14.4,11.52,28.48,28.48,0,0,0,1.2-4.08c1.44-12.36,4.32-24.48,7.56-36.48,8.4-31.32,18.24-62,28.56-92.76a253.67,253.67,0,0,0,10.44-45.12c.12-.72.36-1.44.48-2.28.84,0,1.56-.12,2.4-.12a21.16,21.16,0,0,1,2.28.24c-.12,1.56-.12,2.88-.24,4.2A283.93,283.93,0,0,1,1128.72,681c-6.72,20.28-13,40.68-19.32,61.08a29.48,29.48,0,0,0-1.2,8.64,275.48,275.48,0,0,0,1.92,34.56,92,92,0,0,0,2.28,11.16c.36,2,.84,4.08,1.2,6.12a5.49,5.49,0,0,1-2.64,5.88,25.9,25.9,0,0,1-4.08,2c-4.08,1.68-8.16,3.12-12.12,4.8a4.79,4.79,0,0,0-2.4,1.92,7.23,7.23,0,0,1-5.88,4.08c-7,1-14,2-21.12,2.52-6,.48-12,.24-18,.12a10.29,10.29,0,0,1-3.24-.6c-3.12-1.2-3.72-4.08-1.32-6.36a16.41,16.41,0,0,1,2.88-2.16c4.2-2.88,8.52-5.64,12.72-8.64,2.64-1.92,5.16-4,7.8-6a5,5,0,0,0,2.16-4.08c.6-15.24,3-30.36,4.8-45.48,1.8-14.4,3.24-28.8,4.8-43.2.24-2.28-.24-4.56-.36-6.84-.72-12.6-1.92-25.2-2-37.92-.24-14.76.36-29.4.72-44.16C1075.8,618,1075.92,617.52,1076,616.44Zm32,184.68c-4.2-11.88-4.08-23.88-5.4-35.76a248.12,248.12,0,0,0-7.2,29.64Z"/><path d="M1139.64,274.92c3-.6,4.2-.12,4.56,2.88,1,6.84,1.8,13.8,2.52,20.76.36,3.72-2.16,5.16-5.52,3.36-1.2-.72-2.28-1.56-3.48-2.4s-2.16-1.68-3.48-2.76c-1,1.44-1.8,2.52-2.64,3.72-1.08,1.44-2.4,1.8-3.6,1.08s-1.56-2.16-.72-3.72a26.68,26.68,0,0,1,2.28-3.24c2.88-3.72,4.8-4,8.52-1.32.84.6,1.68,1.2,3.24,2.4-.48-3.72-.84-6.84-1.08-9.84-.36-3.48-.6-7-1-10.32A1.28,1.28,0,0,1,1139.64,274.92Z"/><path d="M1104.6,292.44c-1.32,1-2.4,1.92-3.6,2.76s-2.28,1.68-3.48,2.4-2.88,1.32-4.2.24-1.32-2.4-.84-3.84c1.92-7.08,3.72-14,5.64-21.12a6.08,6.08,0,0,1,.84-1.8,2.31,2.31,0,0,1,2.88-1,2.37,2.37,0,0,1,1.56,2.64c-.12.72-.36,1.44-.48,2.16-1.2,4.56-2.52,9-3.72,13.56a16.66,16.66,0,0,0-.36,2c1.56-1.08,2.64-1.92,3.84-2.64,2.52-1.56,4.2-1.2,6,1a39.19,39.19,0,0,1,3,4.32,2.49,2.49,0,0,1-.6,3.48,2.62,2.62,0,0,1-3.6-.24A37.71,37.71,0,0,1,1104.6,292.44Z"/><path d="M1101.24,360.12a3.18,3.18,0,0,1,3.12,3.12c-.12,1.92-2,3.84-3.84,3.6a2.94,2.94,0,0,1-2.64-3.12A3.57,3.57,0,0,1,1101.24,360.12Z"/><path d="M1109.52,217.92c.6.84,1.2,1.44,1.68,2.16.72,1.08,1,2.4-.24,3.24a3.3,3.3,0,0,1-3,.24,8.12,8.12,0,0,1-4-4.92,4,4,0,0,1,1.8-4.56,9.79,9.79,0,0,0,4.56-6.12,2.44,2.44,0,0,1,3-1.92c1.32.24,2,1.56,1.8,3.36a11.94,11.94,0,0,1-3.6,6.72C1111,216.72,1110.24,217.32,1109.52,217.92Z"/><path d="M1117.2,235.68c-3.84,0-6.36-1-8.28-3.36a4.46,4.46,0,0,1-1.08-2.28,3.23,3.23,0,0,1,1.08-2.4c.6-.36,1.8,0,2.64.12.36.12.6.6.84,1,2.16,2.28,4.2,2.52,7,1.08a27,27,0,0,1,2.52-1.44,2.36,2.36,0,0,1,3.12,1,2.25,2.25,0,0,1-.48,3C1122.24,234.36,1119.6,235.68,1117.2,235.68Z"/><path d="M1128.12,213c-.72,1.32-1.32,3-2.4,4.08a2.68,2.68,0,0,1-4.68-1.8,9,9,0,0,1,.84-4,2.76,2.76,0,0,1,3.36-1.8C1126.8,209.76,1127.76,211,1128.12,213Z"/><path d="M1108.08,205.92a24.29,24.29,0,0,1-1.8,3.36,2.43,2.43,0,0,1-3.24.84,2.54,2.54,0,0,1-1.56-3.24,11.26,11.26,0,0,1,1.2-3.36,2.41,2.41,0,0,1,3.12-1.56C1107.24,202.32,1108.2,203.64,1108.08,205.92Z"/></g><g id="Main-Screen"><path d="M310.81,796.71c.48-2.4,1.08-6.24,1.92-10q13-65.88,26-131.88l22.68-114.48c7.44-37.92,15-76,22.44-113.88q12.6-64.08,25.32-128.28c7.08-35.88,14.16-71.88,21.24-107.76,7.32-37,14.64-74,22-111,1.32-7,2.76-13.92,4.08-20.88,1-4.92,1.68-5.52,6.72-5.52q132.84,0,265.68-.12,101.88,0,203.88-.12a18.07,18.07,0,0,1,3.6.12c2,.24,2.76,1.44,2.4,3.36-4.08,19.8-8.28,39.72-12.24,59.52-7.32,36.48-14.64,72.84-22,109.32-7.56,37.44-15,74.76-22.56,112.2s-15.12,75-22.56,112.56-15.12,75-22.56,112.56C829,602,821.05,641.31,813.13,680.79q-11.52,57.42-23,114.72c-.12.48-.12.84-.24,1.32-.6,3.72-1.08,4.08-4.92,3.72a25,25,0,0,0-3,0q-232.74.72-465.36,1.32h-1.92C311.41,801.87,310.69,801.15,310.81,796.71Zm5,.12q234.9-.54,468.84-1.32,74.16-369,148.2-737.16H461.53Q388.81,427.53,315.85,796.83Z"/><g id="Chart2"><path class="cls-3" d="M684.24,644.4c-5.16.24-10.2.36-15.36.6a2.51,2.51,0,0,1-2.76-2.88,30.69,30.69,0,0,1,.6-3.24Q687.78,550.32,709,461.76c.24-1.2.6-2.28.84-3.48.72-3,1.08-3.24,4.32-3.24,2.76,0,5.4.12,8.16.12,5.28.12,10.44.12,15.72.12a19.44,19.44,0,0,1,2.64.12c2.28.36,2.88,1.56,2.4,3.72-3.6,15.12-7.08,30.36-10.68,45.48q-15.66,67.5-31.2,135a11.24,11.24,0,0,1-.48,1.92c-.72,2.64-1.2,2.88-3.84,2.88H684.12C684.24,644.52,684.24,644.4,684.24,644.4Z"/><path class="cls-3" d="M565.2,645H550.56a2.51,2.51,0,0,1-2.76-2.88,12.32,12.32,0,0,1,.6-2.88q15.48-65.16,31.08-130.32c.12-.36.12-.6.24-1,.84-3,1.68-3.72,4.8-3.6l22,.36c1.56,0,3-.12,4.56,0,3,.24,3.72,1.8,2.52,4.32a15,15,0,0,0-1.08,3q-14.76,64.08-29.52,128c-.12.48-.24,1.08-.36,1.56-.84,2.64-1.68,3.36-4.44,3.36H565.44C565.2,645.12,565.2,645,565.2,645Z"/><path class="cls-3" d="M429.6,642.36c.12-.48.24-1.2.48-1.92,3.6-15.36,7.2-30.72,10.92-46.08.6-2.4,1.08-3,3.6-2.88q13.86.18,27.72.72c2.76.12,3.6,1.2,3,3.36-2.64,11-5.28,22-7.8,33-1,4.2-1.92,8.52-3,12.72s-1.08,3.84-5.28,3.48a85,85,0,0,0-12.36,0c-4.8.24-9.6.6-14.28,1C430.56,645.72,429.48,644.76,429.6,642.36Z"/><path class="cls-3" d="M658,556.44h-23.4a17,17,0,0,0-.72,2.64q-9.72,40.86-19.56,81.72a18.55,18.55,0,0,1-.84,2.76A2.29,2.29,0,0,1,610.8,645a2.14,2.14,0,0,1-1.8-2.4,12,12,0,0,1,.48-2.88L628.92,558c.36-1.32.6-2.52.84-3.84.6-2.52,1.08-3,3.72-3.12h4l22,.36a14.52,14.52,0,0,1,2.28.12c2,.36,2.76,1.44,2.28,3.48-3.48,14.64-7,29.28-10.32,43.92-3.24,13.92-6.48,27.84-9.6,41.76a18.55,18.55,0,0,1-.84,2.76,2.1,2.1,0,0,1-2.76,1.08,3.83,3.83,0,0,1-1.68-2.16,4.79,4.79,0,0,1,.36-2.52c6-26.28,12.12-52.68,18.12-79A37.49,37.49,0,0,1,658,556.44Z"/><path class="cls-3" d="M539.64,557.76H516.12c-1.32,5.4-2.64,10.92-4,16.44-5.28,22.32-10.68,44.76-16,67.08a19.86,19.86,0,0,1-.72,2.52c-.6,1.56-1.8,2.28-3,1.8a2.53,2.53,0,0,1-1.68-3.12c.12-.84.36-1.68.48-2.52,6.6-27.84,13.32-55.8,20-83.64.84-3.48,1.44-4.08,5.16-4,8.52.12,17,.36,25.56.6a7.92,7.92,0,0,1,1.68.12c1.8.48,2.4,1.32,1.92,3.12-4.68,20.16-9.48,40.32-14.16,60.48-1.92,8-3.72,16.2-5.64,24.24a19.86,19.86,0,0,1-.72,2.52c-.48,1.44-1.44,2.28-3,1.92s-1.92-1.68-1.8-3a24.58,24.58,0,0,1,.6-2.88C527,613.08,533,586.8,539.16,560.4,539.28,559.56,539.4,559,539.64,557.76Z"/><path d="M438.11,596.45c-1,.84-1.8,1.56-2.52,2.28-6,5.76-12,11.4-18,17.16-.6.48-1.08,1.08-1.68,1.56-1.68,1.44-3,1.56-4.08.48s-1-2.4.48-4.08a7.24,7.24,0,0,1,1-1c7-6.6,13.8-13.32,20.76-19.92,2.76-2.64,5.16-2.64,8,0a16.46,16.46,0,0,1,1.92,2.16c7.8,9.36,15.6,18.84,23.4,28.2.72,1,1.56,1.8,2.4,2.76.36-.36.6-.48.84-.72,3-5.16,5.88-10.44,9.12-15.48l37.44-58.32c.6-1,1.32-2,2-3,2-2.76,3.72-2.76,5.52,0,.6,1,1.08,1.92,1.68,2.76,6.48,11.16,13,22.2,19.32,33.36.6,1,1.2,2,2,3.36.84-1.2,1.44-2,2-2.88,16-25.08,31.92-50.28,47.88-75.36a40.71,40.71,0,0,1,2.76-4.08c1.44-1.8,3.12-1.8,4.68-.12a21.22,21.22,0,0,1,1.92,2.64c9.36,13.32,18.72,26.64,28.08,39.84.6.84,1.32,1.8,1.92,2.64,2-1.56,71.16-94,73.8-98.52-.84.12-1.56.24-2.28.36a25.25,25.25,0,0,1-2.88.72,2.64,2.64,0,0,1-3.24-2c-.24-1.56.72-2.4,2-2.88,3.24-1.08,6.36-2.16,9.6-3.24.84-.24,1.68-.6,2.52-.84,3-.84,4.44.12,4.56,3.12.12,4.32.24,8.76.36,13.08,0,1.44-.48,2.64-2,2.88s-2.64-.48-3-2.28-.36-3.84-.6-6.6c-1.08,1.32-1.8,2.16-2.52,3-19.8,26.52-39.72,53.16-59.52,79.68-4,5.28-7.92,10.68-11.88,16a13.58,13.58,0,0,1-1.2,1.56c-2.28,2.76-5.16,2.76-7.32-.12s-3.84-5.52-5.88-8.28c-7.68-10.92-15.24-21.84-22.92-32.64-.48-.72-1.08-1.32-1.92-2.52-.84,1.2-1.56,2.28-2.28,3.24-16.44,25.8-33,51.72-49.44,77.52a21.82,21.82,0,0,1-1.8,2.76c-1.56,1.8-3.12,1.44-4.32-.72-7.56-13.2-15-26.28-22.56-39.48a2.7,2.7,0,0,1-.6-.6c-.48.6-1.08,1.2-1.56,1.92l-42.12,65.52a71.65,71.65,0,0,0-4.8,9.6c-1.44,3.12-3,3.48-5.16,1-4.08-4.8-8.16-9.72-12.12-14.64-5.4-6.48-10.68-13-16.08-19.44A4.76,4.76,0,0,1,438.11,596.45Z"/><path d="M389.63,642.77h4.08q191.88-.36,383.76-.84c1.32,0,2.64,0,4,.12a2.15,2.15,0,0,1,2.16,2.4,2.21,2.21,0,0,1-2.28,2.28c-1.32.12-2.64.12-4,.12q-188.82.36-377.64.84h-10.8c-4.68,0-5.64-1.2-4.44-5.88,2.4-10,4.8-19.92,7.32-29.88q14.58-59.76,29.16-119.4a19.86,19.86,0,0,1,.72-2.52c.6-1.8,1.8-2.64,3.12-2.16,1.56.48,1.92,1.68,1.68,3.12a15.43,15.43,0,0,1-.48,2.28Q408.17,566,390.47,638.69C390.23,639.89,390,641.09,389.63,642.77Z"/></g><g id="Chart1"><path class="cls-1" d="M846,307.56c7-2,13.44-3.72,19.8-5.76s12.6-4.8,19-7q8.1-2.7,16.2-5c2.88-.84,3.72-.12,4.8,2.76,2.28,6.36,2.16,13,1.68,19.44a66.57,66.57,0,0,1-8.16,28.08c-4.44,8-10.32,14.64-18.48,19-6.6,3.48-13.44,6.84-20.16,10-3.36,1.56-7,1.92-10.8,2a100.38,100.38,0,0,1-25.32-2.64,30,30,0,0,1-5.4-1.44c-20.16-8.4-33.24-22.68-37.32-44.52a107.08,107.08,0,0,1-1.68-12.24c-1.56-24.24,10.2-54.24,38.28-65.64a53.56,53.56,0,0,1,25.68-3.48c1.92.24,3.72.6,5.16,2.4a6.23,6.23,0,0,1,1.32,4.56c-1.2,13.08-2.52,26-3.6,39.12C846.62,293.4,846.38,300.24,846,307.56Z"/><path class="cls-1" d="M909.62,269.64c-.12,4.08-.12,4-3.48,5.4-7.2,3-14.4,6.24-21.72,9-7.68,3-15.6,5.64-23.4,8.28-6,2-8,.24-7.08-5.88,2.52-16.56,5.92-33.24,8.44-49.8.72-5.16-.16-5,5-5.88a18.51,18.51,0,0,1,14,2.76c5.64,3.84,11.28,7.8,16.8,12a19,19,0,0,1,4.32,4.92,54.11,54.11,0,0,1,7,17.52A9.12,9.12,0,0,1,909.62,269.64Z"/><path d="M948.33,220.08H924.45c-4.2,0-8.52.24-12.72.24a3.76,3.76,0,0,0-4,2.64c-6.48,13.32-13,26.64-19.56,40-.48,1-1,1.92-1.56,2.88a2.45,2.45,0,0,1-3.36,1.2c-1.2-.48-1.56-1.8-1.08-3.36a10.64,10.64,0,0,1,1-2c7-14.16,14-28.32,20.88-42.6,1.32-2.76,3-3.72,6-3.72,12.36-.12,24.6-.6,37-.84a4.32,4.32,0,0,0,3.6-1.68,8.26,8.26,0,0,1,14.28,7.08,8.58,8.58,0,0,1-6.84,6.72,9.81,9.81,0,0,1-9.72-6.48Zm8.28,1.44a3.1,3.1,0,0,0,3.24-3,3.19,3.19,0,1,0-6.36-.12A3,3,0,0,0,956.61,221.52Z"/><path d="M945.93,304c-3.6-4.92-4-8.64-1.2-12.24a8.62,8.62,0,0,1,15.48,5.88c-.48,4.44-3.36,7.08-9.48,8.16-.48,1.08-1,2.16-1.44,3.36-3,7.68-6.24,15.36-9.12,23.16-1.08,3-2.88,4.2-6.12,4.2-15.6.36-31.2,1-46.8,1.44a10.26,10.26,0,0,1-1.92,0c-1.8-.12-3-1.2-2.88-2.52a2.54,2.54,0,0,1,2.64-2.4c.72,0,1.56-.12,2.28-.12,14.76-.48,29.4-1,44.16-1.56,1.08,0,2.16-.12,3.48-.24C938.73,322.2,942.33,313.2,945.93,304Zm9.12-7.08a3.54,3.54,0,1,0-3.48,3.6A3.51,3.51,0,0,0,955.05,296.88Z"/><path d="M993.81,220.56c-4.68.24-9.36.48-14,.6-2.64.12-4-.72-4.08-2.28s1.2-2.76,4-2.88c9.36-.36,18.72-.84,28.08-1.2a5.84,5.84,0,0,1,2.52.24,3.77,3.77,0,0,1,1.8,2c.36,1.2-.48,2-1.56,2.52a5.28,5.28,0,0,1-1.92.24c-5,.48-10,.6-14.76.72Z"/><path d="M987.93,301.2H975.21a14.52,14.52,0,0,1-2.28-.12,2.38,2.38,0,0,1-2.28-2.4,2.47,2.47,0,0,1,2.16-2.52,10.32,10.32,0,0,1,1.92-.12c8.76-.12,17.64-.36,26.4-.48a14.52,14.52,0,0,1,2.28.12,2.39,2.39,0,0,1,2.16,2.52,2.47,2.47,0,0,1-2.28,2.4,14.52,14.52,0,0,1-2.28.12H987.93Z"/><path d="M846.47,303c7.2-2.28,13.92-4.32,20.52-6.36,11.28-3.48,22.44-7,33.72-10.44.48-.12,1.08-.36,1.56-.48,2.64-.6,4.08.12,4.92,2.76a63.8,63.8,0,0,1,2.28,22.32,66.65,66.65,0,0,1-49.8,59.76c-37.8,10-76.44-15.36-82.44-53.88a66.48,66.48,0,0,1,54.24-76.2,59.11,59.11,0,0,1,16.56-.84,14.46,14.46,0,0,0,2.28,0c2.4-.12,3.48.72,3.24,3.24-.24,3.6-.72,7.2-1.2,10.68-1.68,13.8-3.36,27.72-4.92,41.52C847.07,297.61,846.83,300,846.47,303Zm55.92-12c-1.2.36-2.16.6-3,.84l-51.12,15.84a18.82,18.82,0,0,1-3.48,1c-2.16.36-3.6-.84-3.72-3.12,0-.48.12-1.08.12-1.68,1.92-16.56,4-33.12,5.88-49.68.36-3.12.6-6.24,1-9.24-20.4-2.64-47.4,7.8-60.36,33.72A61.58,61.58,0,0,0,877,357.25C899.75,342.37,909,314.05,902.39,291Z"/><path d="M911.75,271.09c-.12,1.08-.12,2.16-.24,3.24a6.13,6.13,0,0,1-4.68,5.64c-9.6,2.76-19.2,5.64-28.8,8.4-6.84,2-13.8,4.08-20.64,6a19.18,19.18,0,0,1-2.52.6c-1.56.12-2.64-.6-2.76-2.16a14.63,14.63,0,0,1,.12-4.56c3.24-18.12,6.6-36.24,10-54.36.12-.6.24-1.32.36-1.92.72-2.4,2.4-4.08,4.92-4,3.24.12,6.72,0,9.72,1.08,17.64,5.88,29,17.88,34.08,35.76a18.63,18.63,0,0,1,.48,2.52C911.63,268.69,911.75,269.89,911.75,271.09ZM857.15,289a13.53,13.53,0,0,0,1.68-.24c15.12-4.44,30.24-8.88,45.48-13.32a2.94,2.94,0,0,0,2.52-3.24,27.49,27.49,0,0,0-2-11.16,44.51,44.51,0,0,0-12-17.28c-6.12-5.64-13.08-9.72-21.6-10.68a19.29,19.29,0,0,0-3.72.12C863.87,252,860.51,270.37,857.15,289Z"/></g><g id="Card2"><path id="Path-Copy" d="M358.64,236.64h3.72l322.32.36h4.2c2.16.12,2.88,1,2.76,3.12A24.58,24.58,0,0,1,691,243q-20.7,91.8-41.52,183.36c-.24,1.08-.6,2-1,3.36-3.36.12-6.72.24-10.08.24-47,.24-94,.36-141,.6l-177.72.72c-3.84,0-4.56-.84-3.72-4.8,5.4-24.24,10.68-48.48,16.08-72.84,8-36.24,16.08-72.6,24.12-108.84C356.84,242.28,357.8,239.64,358.64,236.64Z"/><path id="Path-Copy-4" d="M714,373.92a48.6,48.6,0,1,1-48.36-48.72A48.83,48.83,0,0,1,714,373.92Z"/><path class="cls-1" d="M334.64,212.64h3.72l322.32.36h4.2c2.16.12,2.88,1,2.76,3.12A24.58,24.58,0,0,1,667,219q-20.7,91.8-41.52,183.36c-.24,1.08-.6,2-1,3.36-3.36.12-6.72.24-10.08.24-47,.24-94,.36-141,.6l-177.72.72c-3.84,0-4.56-.84-3.72-4.8,5.4-24.24,10.68-48.48,16.08-72.84,8-36.24,16.08-72.6,24.12-108.84C332.84,218.28,333.8,215.64,334.64,212.64Z"/><path d="M458.76,410.34H297.12a38.52,38.52,0,0,1-7.32-1.08,2.24,2.24,0,0,1-1.8-2.4,11.84,11.84,0,0,1,.36-2.88q18-81,36.24-162.12l6.84-31c.72-3.12,1.32-3.48,4.44-3.24,1.44.12,2.88.12,4.2.12h328.2c2.64.24,3.6,1.44,3.36,4.08-.12.6-.24,1.32-.36,1.92-8,35.64-16,71.28-24,106.8-6.24,27.6-12.48,55.32-18.6,82.92-.24.84-.36,1.68-.6,2.52a4.61,4.61,0,0,1-4.32,3.48c-1.2.12-2.4.12-3.6.12H458.88A2.11,2.11,0,0,0,458.76,410.34ZM666.12,213.18h-330Q314.7,309.12,293.28,405.3l329.88-.72Q644.58,308.82,666.12,213.18Z"/><path class="cls-3" d="M690,349.92a48.6,48.6,0,1,1-48.36-48.72A48.83,48.83,0,0,1,690,349.92Z"/><path class="cls-1" d="M647,333a14.51,14.51,0,0,0-.6,2.16c-2.64,12-5.16,24-7.8,36.12a13.28,13.28,0,0,1-.84,3.12,2.42,2.42,0,0,1-2.76,1.8,2.23,2.23,0,0,1-1.92-2.64,30.15,30.15,0,0,1,.48-3.24l7.2-33.48a23.36,23.36,0,0,0,.36-2.64c-1.32,1.08-2,1.68-2.88,2.4-4.32,3.84-8.64,7.56-13.08,11.4a13.1,13.1,0,0,1-2,1.56,2.27,2.27,0,0,1-3-.6,2.22,2.22,0,0,1-.12-3c.48-.6,1.08-1.08,1.56-1.68,7.32-6.36,14.52-12.84,21.84-19.2l1.8-1.44a2.61,2.61,0,0,1,4,.84,8.66,8.66,0,0,1,1.08,2.4c3.72,9,7.44,17.88,11,26.88a20,20,0,0,1,1,2.4,2.19,2.19,0,0,1-1.44,2.88,2.22,2.22,0,0,1-2.88-1,18.06,18.06,0,0,1-1.32-2.64c-2.88-6.84-5.64-13.68-8.52-20.52-.24-.72-.6-1.44-.84-2C647.33,333.09,647.21,333,647,333Z"/><path d="M385.08,388.38c-19.68.24-39.24.36-58.92.6h-3c-4.68,0-5.76-1.44-4.68-6.12q16.92-72.54,33.72-145.2c.36-1.32.6-2.76,1-4.08a3.13,3.13,0,0,1,3.24-2.64H359c38.88.24,77.88.6,116.76.84,5.64,0,6.12.72,5,6.36q-14,70.38-28,140.76c-.36,2-.48,4.08-.72,6.12a2.58,2.58,0,0,1-2.16,2.52,18.58,18.58,0,0,1-2.64.12c-20.64.36-41.52.6-62.28.72Zm16.32-76.44c.84,1.32,1.44,2.28,1.92,3.12q18.72,31.86,37.56,63.72a21.82,21.82,0,0,0,1.8,2.76,2.34,2.34,0,0,0,3.24.72,2.23,2.23,0,0,0,1-3.12c-.48-1-1-1.92-1.56-2.88C432.6,354.54,419.76,332.82,407,311.1c-.6-1-1.08-2-1.92-3.48,1.08-1,2.16-1.68,3.12-2.64l61.2-60.48a26.2,26.2,0,0,0,2.52-2.64,2.18,2.18,0,0,0-.12-3.24,2.29,2.29,0,0,0-3.24-.24,20.54,20.54,0,0,0-2.4,2.16l-61,60.24c-.84.84-1.68,1.56-2.64,2.52-.72-1.2-1.32-2.16-1.92-3.12Q383,270.3,365.52,240.42A28.71,28.71,0,0,0,364,237.9a2.32,2.32,0,0,0-3.24-.6,2.36,2.36,0,0,0-1,3.12,16.76,16.76,0,0,0,1.08,2l36,61.2c.6,1.08,1.2,2.28,1.92,3.36.12.24.36.48.48.72a20.9,20.9,0,0,0-3.12,2.28C373.8,332.1,351.36,354.18,329,376.26a17.38,17.38,0,0,0-2,2.16,2.32,2.32,0,0,0,.48,3.24,2.22,2.22,0,0,0,3,.12c.72-.6,1.44-1.32,2.16-2,22.08-21.84,44.28-43.68,66.36-65.52C399.6,313.62,400.32,312.9,401.4,311.94Z"/><path d="M548.76,257.58a9.36,9.36,0,0,0-6.84-3.84,15,15,0,0,0-5.16.24c-10.8,2.4-20.16,7.44-26.88,16.56-1.2,1.68-2.64,2.16-3.84,1.32s-1.44-2.16-.48-3.84a23.29,23.29,0,0,1,2.52-3.48,49.86,49.86,0,0,1,28.68-15.72c7.56-1.32,13.44,1.44,17.76,7.68a7.39,7.39,0,0,0,3.12,2.64c3,1.56,5.76,3.48,8.64,5.28,4,2.4,8.16,3.6,12.84,2.4a5,5,0,0,0,1.2-.48,1.66,1.66,0,0,0,.48-.36,29.18,29.18,0,0,1,0-3.24,8.67,8.67,0,0,1,2.4-5.88,4.54,4.54,0,0,1,4.8-1.44,4.22,4.22,0,0,1,3.24,4.08,19.68,19.68,0,0,1-1.08,5.28,13.62,13.62,0,0,1-1.68,2.64c2,1.92,4.56,2.4,7.08,2.64a46.75,46.75,0,0,0,17.76-2.28c2.64-.84,5.28-1.92,8-2.88,1.92-.72,3.36-.24,3.84,1.08s-.12,2.76-2,3.48c-8.28,3.36-16.8,6-26,5.76a20.57,20.57,0,0,1-12-3.72,2.75,2.75,0,0,0-3-.48c-6.72,2.4-13.08,1.08-19.08-2.64-2.16-1.32-4.2-2.76-6.36-4.2a6.41,6.41,0,0,0-.72,1.68c-2.28,6.12-7,9-13.2,9.72-2.88.36-5.52-.48-7.08-3.24s-.84-5.52.84-7.92c2-2.88,5-4.44,8.28-5.52A38.28,38.28,0,0,1,548.76,257.58Zm2.4,5.16a14.11,14.11,0,0,0-9.24,3.36,6.32,6.32,0,0,0-1.44,1.68c-.84,1.44-.24,2.52,1.44,2.64C546,270.9,550.68,267.18,551.16,262.74Z"/><path d="M546.24,310.38H502.8a29.24,29.24,0,0,1-3.24-.12,2.33,2.33,0,0,1-2-2.28,2.39,2.39,0,0,1,2-2.52,14.52,14.52,0,0,1,2.28-.12c29.4-.24,58.8-.36,88.32-.6a19.44,19.44,0,0,1,2.64.12c1.68.24,2.52,1.2,2.52,2.52a2.54,2.54,0,0,1-2.64,2.4,23.12,23.12,0,0,1-2.88.12H546.36A.72.72,0,0,0,546.24,310.38Z"/><path d="M529,374.22H489.72a29.24,29.24,0,0,1-3.24-.12,2.31,2.31,0,0,1,0-4.56,18.58,18.58,0,0,1,2.64-.12c26.52-.24,52.92-.36,79.44-.6h2.28c1.92.12,2.88,1.08,2.88,2.52s-1,2.28-2.88,2.4a19.44,19.44,0,0,1-2.64.12H529Z"/><path d="M533.28,349.62h36.6a23.12,23.12,0,0,1,2.88.12c1.56.24,2.64,1.2,2.52,2.52a2.62,2.62,0,0,1-2.64,2.4h-1.92c-25,.12-49.92.12-74.88.24a11.68,11.68,0,0,1-2.88-.24,2.14,2.14,0,0,1-1.92-2.28,2.21,2.21,0,0,1,2.16-2.4,23.12,23.12,0,0,1,2.88-.12h37.2Z"/><path d="M535.32,331.62H500.64a23.12,23.12,0,0,1-2.88-.12,2.36,2.36,0,0,1-2.16-2.4,2.32,2.32,0,0,1,2-2.28,18.58,18.58,0,0,1,2.64-.12c23.52,0,47-.12,70.68-.12a11.68,11.68,0,0,1,2.88.24,2.08,2.08,0,0,1,1.8,2.4,2.32,2.32,0,0,1-2,2.28,29.24,29.24,0,0,1-3.24.12Z"/><path d="M586.08,332.22c-.84-.12-1.8.12-2.52-.24a3.89,3.89,0,0,1-1.68-2c0-.72.72-2,1.32-2.16a17.8,17.8,0,0,1,5.64-.12c.6.12,1.32,1.32,1.56,2.16a2,2,0,0,1-1.8,2.28A19.48,19.48,0,0,0,586.08,332.22Z"/><path d="M584.88,354.78a23,23,0,0,1-2.64-.36,2.26,2.26,0,0,1-1.8-2.76,2.07,2.07,0,0,1,2.28-1.92c1.44,0,2.76,0,4.2.12a2.36,2.36,0,0,1,2.52,2.4,2.28,2.28,0,0,1-2.28,2.28C586.44,354.66,585.72,354.66,584.88,354.78Z"/></g><g id="Search-Bar"><path id="Path-Copy-2" d="M887.24,112.8c-.36,1.44-.48,2.88-1,4.32L871.16,166.8c-2.16,7-4.2,13.92-6.36,21a2.82,2.82,0,0,1-1,.24q-88.2.18-176.28.48-182.52.54-365.16,1.2l-115.2.36A14.65,14.65,0,0,1,204,190c-2-.24-2.76-1.56-2.16-3.48,6.84-23.28,13.56-46.68,20.4-70,.48-1.8,1.32-3.24,3.6-2.88.24,0,.72,0,.84-.12,1.68-2.28,4.08-1.68,6.36-1.68q323.1-.18,646.2-.24C881.84,111.6,884.36,111.48,887.24,112.8Z"/><path class="cls-1" d="M863.24,88.8c-.36,1.44-.48,2.88-1,4.32L847.16,142.8c-2.16,7-4.2,13.92-6.36,21a2.82,2.82,0,0,1-1,.24q-88.2.18-176.28.48-182.52.54-365.16,1.2l-115.2.36A14.65,14.65,0,0,1,180,166c-2-.24-2.76-1.56-2.16-3.48,6.84-23.28,13.56-46.68,20.4-70,.48-1.8,1.32-3.24,3.6-2.88.24,0,.72,0,.84-.12,1.68-2.28,4.08-1.68,6.36-1.68q323.1-.18,646.2-.24C857.84,87.6,860.36,87.48,863.24,88.8Z"/><path d="M508.7,169.11q-163.08.36-326.28.6c-1.44,0-2.88.12-4.2,0-3.72-.36-4.92-2.16-3.84-5.76,2.52-8.76,5.16-17.52,7.8-26.28,4.44-15.12,9.12-30.24,13.44-45.48,1.32-4.56,3.72-6.12,8.16-6.12q134.1,0,268.32-.24,193.14-.18,386.4-.6a24.22,24.22,0,0,1,4.2.12c1.92.24,2.76,1.2,2.52,3.12a42.48,42.48,0,0,1-1,5.4c-6.36,23.52-12.6,46.92-19,70.44a11.8,11.8,0,0,1-.6,1.92c-1,2.88-1.32,3.12-4.44,2.64-1.32-.12-2.64-.12-4-.12q-164,0-327.6.36Zm220.08-5.4c8.4-24.48,16.68-48.6,25.08-73.32q-276.84.36-552.72.84c-7.32,24.6-14.4,48.72-21.84,73.44Q454.34,164.13,728.78,163.71ZM840,163.47c6.6-24.6,13.08-48.72,19.68-73.08H759.14c-2.88,8.28-5.64,16.44-8.4,24.6l-8.28,24.12c-2.64,8-5.76,16.08-8.16,24.36Z"/><path d="M293.42,130.11c-.24,1.08-.36,2-.6,3a20.89,20.89,0,0,1-18,16.92c-4.8.48-8.28-2.52-8.64-7.32a15,15,0,0,1,4.32-11.28,20.42,20.42,0,0,1,11.64-6.12c1.32-.24,2.52-.48,4-.72a12.44,12.44,0,0,0-5.88-6.24,26.26,26.26,0,0,0-16.68-3.24c-11.52,1.2-21.6,5.88-30.48,13.2a24.91,24.91,0,0,0-4.44,5.52c-1.08,1.68-2.64,2.4-4.08,1.68s-1.8-2.4-.72-4.2a13.68,13.68,0,0,1,2.76-3.6c12.36-11.88,26.76-18.6,44.16-17.4a32.43,32.43,0,0,1,10,2.76,19.27,19.27,0,0,1,10.44,10c.48,1.08,1,1.92,2.28,2,8.4,1,16.08,4.56,24.12,7.08,3.48,1.08,6.84,2.16,10.32,3a32.22,32.22,0,0,0,16.2-.24c2.28-.6,4.68-1.2,7-1.68,1.44-.24,2.64.12,3.12,1.68a2.29,2.29,0,0,1-1.8,3c-3.12.84-6.36,1.68-9.48,2.52a36.67,36.67,0,0,1-18.72-1c-6-1.8-12-3.84-18-6A55.1,55.1,0,0,0,293.42,130.11Zm-5.28-.36c-5.28,0-9.6,1.2-13.2,4.56a11,11,0,0,0-3.6,7.08c-.24,2.52,1.08,3.84,3.48,3.36a21.38,21.38,0,0,0,6-2.28C285.38,139.83,288,135.75,288.14,129.75Z"/><path d="M430.7,129.39a37.86,37.86,0,0,1-.6,3.84,12.13,12.13,0,0,1-6.36,8.64c-2.16,1.08-4.44,1.44-6.48-.24s-2.4-3.84-1.92-6.24a11.37,11.37,0,0,1,4.92-7.44,38.18,38.18,0,0,1,3.24-2,5.76,5.76,0,0,0-4.08-1.8,22.13,22.13,0,0,0-21.48,10.32,8,8,0,0,1-1.08,1.68c-.84.84-1.8,1.32-2.88.72a2.23,2.23,0,0,1-1.2-2.76,9.55,9.55,0,0,1,1.32-3c4-6.6,10.08-10.08,17.4-11.52a35.25,35.25,0,0,1,6.12-.6c4.2.12,7.92,1.2,10.68,4.68a2.69,2.69,0,0,0,1.8,1c6.84-.24,13.32,1.8,19.92,3.12a117.65,117.65,0,0,0,14.52,2.16,27.87,27.87,0,0,0,16.56-4,22.4,22.4,0,0,1,3.84-1.8,2.28,2.28,0,0,1,2.76,1.2,2.22,2.22,0,0,1-.6,2.88,16.8,16.8,0,0,1-1.92,1.2c-8.76,5.4-18.36,6.6-28.32,4.68-6.36-1.2-12.6-2.64-18.84-4C436,129.75,433.46,129.63,430.7,129.39Zm-5.52,1.92c-3.84,1.8-4.92,3.24-4.32,6.12C423.86,136,424.46,135.15,425.18,131.31Z"/><path d="M797.66,138.51c-11.52,3.24-21-.48-25.08-9.84a19.07,19.07,0,0,1,31.8-20.28c6.84,7.92,6.24,17.64-2.16,27.36,1.32,1.8,2.64,3.84,4,5.76,1.08,1.56,2.16,3,3.24,4.56,1.32,1.92,1.32,3.36.12,4.32s-2.88.48-4.32-1.56c-2-2.76-4.08-5.64-6.12-8.52A9.46,9.46,0,0,0,797.66,138.51Zm6.24-17.76c0-9-8.16-14.16-13.92-13.92a14,14,0,1,0,.12,28.08A14,14,0,0,0,803.9,120.75Z"/></g><g id="Card1"><path d="M384,694.09H505.7a49.49,49.49,0,0,1,10.32,1.2c5.28,1.08,8.76,4.56,11.28,9.24a32.66,32.66,0,0,1,3.72,17.4,65.89,65.89,0,0,1-14.88,40.32A37.13,37.13,0,0,1,506.06,771a22.62,22.62,0,0,1-12.12,3.48q-40,0-79.8.24-81.18.36-162.24.48c-7.92,0-14.28-3.24-19.2-9.48a33.33,33.33,0,0,1-6.84-18.12c-1.44-16,3-30.24,13.56-42.36A38.82,38.82,0,0,1,246.5,699a27,27,0,0,1,16.8-5.4c8.28.12,16.56.12,24.84.12H384Z"/><path id="Path-Copy-3" class="cls-3" d="M360,667.69H481.7a49.49,49.49,0,0,1,10.32,1.2c5.28,1.08,8.76,4.56,11.28,9.24a32.66,32.66,0,0,1,3.72,17.4,65.89,65.89,0,0,1-14.88,40.32,37.13,37.13,0,0,1-10.08,8.76,22.62,22.62,0,0,1-12.12,3.48q-40,0-79.8.24-81.18.36-162.24.48c-7.92,0-14.28-3.24-19.2-9.48a33.33,33.33,0,0,1-6.84-18.12c-1.44-16,3-30.24,13.56-42.36a38.82,38.82,0,0,1,7.08-6.24,27,27,0,0,1,16.8-5.4c8.28.12,16.56.12,24.84.12H360Z"/><path class="cls-1" d="M329.43,695.69c-.36,1-.48,1.92-.84,2.64a6.82,6.82,0,0,1-6.12,4.2c-4.08.24-6.48-3.24-4.68-7a27.91,27.91,0,0,1,2.28-3.36c-3.36-.6-6.36-1.2-9,1.44-1.32,1.32-2.64,1.44-3.72.48a2.78,2.78,0,0,1,0-3.84c1.68-2.28,4.2-3.12,6.84-3.48a18,18,0,0,1,11.88,2.64,6.17,6.17,0,0,0,2.64,1.08,44.87,44.87,0,0,1,16,3c7.8,2.76,15.84,3,23.88,2.16,5.4-.6,10.8-1.44,16.2-2.16a11.59,11.59,0,0,1,2.88-.12,2,2,0,0,1,2,2,4.38,4.38,0,0,1-1.32,2.4,2.21,2.21,0,0,1-1.56.48c-8.88,1.2-17.64,2.76-26.64,2.88a48.52,48.52,0,0,1-15.48-2.4C339.87,697.25,335,695.57,329.43,695.69Z"/><path class="cls-1" d="M320,726.65c-.6-3.12-1.2-6,1.68-8a3.6,3.6,0,0,1,4.32,0c1.8,1.2,2.28,3.12,1.8,7.56a15.71,15.71,0,0,0,3.36,0c2.88-.72,5.64-1.56,8.4-2.52,3.12-1.08,6-2.52,9.12-3.6,6.12-2.28,12.24-1.32,18.36.24a3.27,3.27,0,0,1,1.44.72,2.59,2.59,0,0,1,1.32,3c-.36,1.32-1.56,1.8-3.24,1.44l-4.44-1.08a24,24,0,0,0-14.76,1.44c-2.88,1.2-5.76,2.52-8.76,3.6-4.44,1.68-9,2.64-13.68,1.32a4.83,4.83,0,0,0-3,.72,17.33,17.33,0,0,1-11.76,1c-4.32-1.2-7.08-4.8-6.84-8.76a5.4,5.4,0,0,1,2.16-4.2c1.2-.84,2.4-1.08,3.6,0s1.08,2.16.24,3.48c-1.2,2-.84,3.36,1.32,4.32A10.74,10.74,0,0,0,320,726.65Z"/><path class="cls-1" d="M282.87,681.53c1.68-1.56,3.48-3.36,5.28-5a12.85,12.85,0,0,1,2.64-1.8,2.4,2.4,0,0,1,2.64,4c-.72.72-1.56,1.2-2.28,1.92s-1.68,1.68-2.64,2.52c-4,3.24-6.6,7.08-6.36,12.48a5.1,5.1,0,0,1-.24,1.32c-1.08,4.92-2.4,5.88-7.44,5.52-2.76-.24-5.4-.24-8.16-.36-3.72-.12-4.8-1.08-4.68-4.68,0-2.4.36-4.8.36-7.2a10.19,10.19,0,0,1,3.12-7.2,3.59,3.59,0,0,1,2.16-1.2c3.6-.48,7.08-.84,10.68-1.08C279.75,680.45,281.07,681.05,282.87,681.53Zm-4.68,4.8c-.12-.24-.36-.6-.48-.84-2.76.36-5.64.6-8.4,1.08-.6.12-1.44.84-1.44,1.32a29.86,29.86,0,0,0-.36,8.64c2.76.24,5.4.48,8,.6,1.08.12,2-.12,1.56-1.56-3.24-.12-6.72-2.88-7.2-5.88a3.1,3.1,0,0,1,.84-2.52,2.92,2.92,0,0,1,2.64,0,10,10,0,0,1,2.52,2.52A18.26,18.26,0,0,1,278.19,686.33Z"/><path class="cls-1" d="M392.79,728.81a17.9,17.9,0,0,1,.24,2.52,2.72,2.72,0,0,1-5,1.56,3,3,0,0,1-.48-.84c-.48-1.08-.36-2.4-2-2.64a5.42,5.42,0,0,0-4.56,1.44c-.48.48-.72,1.2-1.2,1.44a4.17,4.17,0,0,1-2.64.48,2,2,0,0,1-1.32-2.64,7,7,0,0,1,1.8-3,10.33,10.33,0,0,1,9.72-2.64,3.65,3.65,0,0,0,2.76-.12c3-1.92,6.24-1.92,9.48-1.8,4.32.24,8.64.72,13.08,1.08A58.8,58.8,0,0,0,430.35,722a6.47,6.47,0,0,1,1.2-.36c1.2-.24,2.4.12,2.64,1.32a4,4,0,0,1-.72,2.88c-.48.72-1.68,1-2.64,1.2a65.17,65.17,0,0,1-22.08,1.44c-3.72-.48-7.32-.72-11-.84C395.19,727.25,395.07,727.49,392.79,728.81Z"/><path class="cls-1" d="M268.11,735.77c-1.8,0-3.48.12-5.28,0-2.4-.12-3.84-1.44-3.6-3.72a39.21,39.21,0,0,1,2-10.56,7.08,7.08,0,0,1,5.64-4.8c2.64-.24,5.16-.6,7.8-.6,3,.12,4.44,1.56,4.44,4.56a71.19,71.19,0,0,1-.72,10.08c-.36,3-1.8,4.08-4.8,4.32a23.12,23.12,0,0,1-2.88.12,19.62,19.62,0,0,0-2.64.24Zm6.24-14.88c-2.52.24-4.56.48-6.6.84a2.44,2.44,0,0,0-1.68,1.56c-.6,2.28-1,4.56-1.56,7.32,3.24-.24,6.12-.36,9.24-.6C273.87,727,274.11,724.25,274.35,720.89Z"/><path class="cls-1" d="M403.83,696.77c-2.64,0-3.84-.84-4-2.16a2.44,2.44,0,0,1,2.28-2.64c2.16-.48,4.2-.84,6.36-1.2a2.45,2.45,0,0,1,1.44,4.68C407.67,696.05,405.27,696.53,403.83,696.77Z"/></g></g><g id="Ground"><path d="M532.44,824.55H922.56c1.32,0,2.64,0,4,.12a2.3,2.3,0,0,1,2.4,2.52c-.12,1.56-1.08,2.28-2.64,2.4h-2.64q-391.14-.54-782.4-1a18.16,18.16,0,0,1-3.6-.24,2.43,2.43,0,0,1-2-2.28,2.28,2.28,0,0,1,2.16-2.4c1.2-.12,2.4-.12,3.6-.12l328.2.36h62.88Z"/><path d="M970.56,820.83l24.12-2.16a25.37,25.37,0,0,1,4.2-.24,3.1,3.1,0,0,1,3.12,3.12c0,1.56-1.2,3-2.64,2.52-4.2-1.2-8.28.12-12.24.48-8.88.84-17.88,1.08-26.76,1.08-1.44,0-2.64-.36-2.88-2-.24-1.44.6-2.52,2.4-2.88a14.74,14.74,0,0,1,3.24-.24h7.56A.44.44,0,0,0,970.56,820.83Z"/><path d="M1148.76,821.91c2.28-.24,5.16-.48,7.92-.72a23.12,23.12,0,0,1,2.88-.12,2.21,2.21,0,0,1,2.16,2,2.32,2.32,0,0,1-1.8,2.76,4.31,4.31,0,0,1-1.32.24c-4.32.36-8.64.6-13.08.84a14.52,14.52,0,0,1-2.28-.12c-1.8-.24-2.76-1.2-2.76-2.64s1.08-2.28,3-2.4C1145.16,821.91,1146.72,821.91,1148.76,821.91Z"/></g><g id="Accent"><path d="M959.55,592.37c-1,.6-2,1.2-3,1.8-12.84,7.32-26.52,11.76-41.4,11.4a38.89,38.89,0,0,1-18.24-4.68c-10.08-5.4-15.6-13.92-16.92-25.32a46,46,0,0,1,2.88-22.44,65.21,65.21,0,0,1,25.32-31.68,41.8,41.8,0,0,1,30.6-6.48c12,2,20.64,8.88,26.28,19.56,3.36,6.36,4.8,13.32,5.28,20.4a98.72,98.72,0,0,1-1.44,22.2,13.53,13.53,0,0,0-.24,1.68c.84-.6,1.56-.84,2-1.2a108,108,0,0,0,15.84-16.44c15.24-20,27.48-41.64,35.88-65.4a164,164,0,0,0,8.88-48.72c.12-4.08-.12-8-2.64-11.52a.37.37,0,0,1-.12-.24c-1-1.92-.72-3.24.6-4s2.64-.36,3.48,1.32a31.55,31.55,0,0,1,3.24,7.8,28.23,28.23,0,0,1,.36,8.4,176.74,176.74,0,0,1-19.8,73.92,324.79,324.79,0,0,1-17.4,30A133.38,133.38,0,0,1,968.67,586a5.84,5.84,0,0,0-2.4,3.36c-8,29.88-24.48,54.6-47.52,74.88-22,19.32-46.92,33.6-75.24,41.52-1.92.48-3.72,1.2-5.64,1.68a9.35,9.35,0,0,1-2.52.48c-1.44.12-2.64-.48-2.88-1.92s.6-2.52,1.92-3.12a28.58,28.58,0,0,1,3.12-.6c16.8-4.8,33.12-10.92,48-20.16,13.8-8.64,27.24-17.76,38.52-29.64,15.36-16.2,27.48-34.32,34.8-55.56.48-1.32.84-2.64,1.2-4A1.3,1.3,0,0,0,959.55,592.37Zm5.88-31c.24-9-1-17-4.8-24.48-5-10-13.2-15.84-24.24-17.16a37.12,37.12,0,0,0-26.64,6.84,60.78,60.78,0,0,0-20.88,25.44,45.79,45.79,0,0,0-4.08,20c.48,13.8,8.16,23.4,21.48,27a48,48,0,0,0,18.48,1c13-1.68,24.72-6.84,35.52-14.16a6,6,0,0,0,2.76-4.2C964.23,574.73,965.43,567.77,965.43,561.41Z"/><path d="M50.91,234.29a20,20,0,0,0-.48,3.48c0,2.52-1.32,3.72-3.6,4.32-4.92,1.32-9.84,2-14.88.84-3.36-.84-6.12-2.28-6.24-6.36a2.16,2.16,0,0,0-1.56-2.16c-2-.84-3.84-1.92-6-3-2.64,2.28-5.4,4.8-8.16,7.2-1.44,1.2-2.88,2.4-4.32,3.48-1.2,1-2.52,1.56-4,.84s-1.8-2.16-1.68-3.6c.6-6.48,1-13.08,2-19.44a55.71,55.71,0,0,1,12.12-25.8c.84-1,1-2.64,1.08-4a152.36,152.36,0,0,1,5.4-29.52,117.39,117.39,0,0,1,14.4-32.16,17.15,17.15,0,0,1,1.68-2.4c1.56-2,3.72-2.28,5.64-.48a26,26,0,0,1,4.32,5.28c4,6.12,6.24,13,8,19.92A182.69,182.69,0,0,1,60,184l.36,4a4.38,4.38,0,0,0,1.68,3.36c10.32,8.76,15.12,19.92,15.12,33.36,0,3.24.12,6.6,0,9.84-.12,3.72-1.8,4.92-5.4,3.6a69.32,69.32,0,0,1-10-4.8c-2-1.2-3.84-1.68-6.12-.48C54.27,233.33,52.59,233.69,50.91,234.29ZM29,152c-.48,1.08-.72,1.68-1,2.28-7.92,22.68-9.84,45.84-7.08,69.6a6.18,6.18,0,0,0,4.56,5.64,26.66,26.66,0,0,0,4.44,1.08c7.8,1.32,15.36.12,22.8-2.16,2.64-.84,2.52-.84,2.76-3.72a275.73,275.73,0,0,0-2-54.48c-.84-5.76-2-11.52-3.12-17.64C42.75,156.89,35.91,156.89,29,152Zm2,84c0,.24-.12.6-.12.84,2.88,2.16,6.36,1.8,9.6,1.44,1.68-.24,4,.12,4.92-2.28Z"/><path d="M44.31,389.33c.24-1.44.48-2.4.6-3.24,1-5,3-9.6,6.84-13.08a13,13,0,0,1,17-1c9.12,6.6,9.48,20.76.72,27.84-3.48,2.88-7.56,3.24-11.76,2.52-2.4-.48-4.8-1.32-7.68-2.16.24,1.08.36,2.16.6,3.12,4.56,20.4,24,36.12,44.76,35.88a35.24,35.24,0,0,0,7-1.2c1.92-.48,3-.36,3.72,1a2.73,2.73,0,0,1-1.44,3.6,14.1,14.1,0,0,1-4.32,1.44,39.2,39.2,0,0,1-19.68-1.92c-20.4-7.44-32.76-21.6-36-43.32a5.68,5.68,0,0,0-2.28-4.08,55.22,55.22,0,0,1-16.08-19.92,56.8,56.8,0,0,1-5.76-23c-.24-7.92-.48-16-.6-23.88-.24-9.72-.6-19.44-.84-29a19.77,19.77,0,0,0-.48-3.84c-.24-1.44,0-2.64,1.56-3.12a2.43,2.43,0,0,1,3.12,1.68,8.52,8.52,0,0,1,.6,3.48c.36,11.28.72,22.68,1.08,34,.24,7.56.24,15,.72,22.56a49.91,49.91,0,0,0,15.6,33.6A29.81,29.81,0,0,1,44.31,389.33Zm16.92,8.16c2.64.24,4.92-1.08,6.84-3.24a12.54,12.54,0,0,0-.72-16.92c-4.2-4.08-9.24-4.08-13.08.36-3.72,4.2-4.68,9.24-4.68,14.52a3.22,3.22,0,0,0,1.32,2A18.18,18.18,0,0,0,61.23,397.49Z"/><path d="M305,626.45c-1.08-.24-2.76-.6-4.56-1.08a148.5,148.5,0,0,1-45.12-20.28,354.65,354.65,0,0,1-60.84-50.4c-10.32-10.56-18.72-22.68-26.76-35-5-7.8-9.72-15.84-14.28-23.88s-7.56-16.44-10.44-25c-.12-.36-.24-.84-.36-1.2-.24-1.56.36-2.76,1.68-3.12a2.28,2.28,0,0,1,2.88,1.44,6,6,0,0,1,.6,1.56c5.64,18.6,15.84,34.8,26.28,51,13.68,21.36,30.84,39.48,50.52,55.32,9.24,7.44,18.6,14.88,28.32,21.6a152.19,152.19,0,0,0,47.52,22.68c1.92.48,3.84.84,5.76,1.2s3.12,1.2,3,2.76S307.71,626.45,305,626.45Z"/><path d="M926.9,6.17c-.84,1.56-1.44,2.76-2.16,4a22.38,22.38,0,0,1-1.92,3.36c-1.68,2.28-4,2.28-5.76,0-1.32-1.68-2.52-3.48-4-5.64-.84,1.32-1.56,2.28-2.16,3.24s-1.2,2-1.92,3c-2,2.76-4.44,2.64-6.24-.24l-1.44-2.52c-.48-.72-1-1.44-1.8-2.64-.72,1.56-1.32,2.88-1.8,4.08-.84,1.8-1.92,2.52-3.12,2.16a2.63,2.63,0,0,1-1.56-3.72,37.71,37.71,0,0,1,3.48-7c1.68-2.52,4-2.52,6-.24,1.32,1.56,2.4,3.36,3.72,5.28,1.2-1.8,2.16-3.36,3.24-4.8,2.28-3.12,4.68-3.12,7.32-.24,1.08,1.2,1.92,2.52,3.24,4.2,1.2-2,2.16-3.84,3.12-5.52,2.28-3.72,5-4,7.68-.36a89.75,89.75,0,0,1,5.76,9.12,2.49,2.49,0,0,1-.48,3.48c-1.08,1-2.64.72-3.72-.72a25.64,25.64,0,0,1-2.4-3.84c-.6-1.08-1.2-2-1.92-3.12A15.91,15.91,0,0,1,926.9,6.17Z"/><path d="M1193.42,563.37c-.48,1.92-1,4-1.44,6-3,12.6-8.16,24.36-13.2,36.24a3,3,0,0,1-1.08,1.56,4.31,4.31,0,0,1-2.64.48,3.32,3.32,0,0,1-1.44-2.28,6.12,6.12,0,0,1,.84-2.76c4.44-10.56,9.12-21,11.88-32.16.6-2.28,1.08-4.44,1.56-6.72a4.57,4.57,0,0,1,.6-1.8,2.53,2.53,0,0,1,3-1.44A2.7,2.7,0,0,1,1193.42,563.37Z"/><path d="M11.67,270.77c.12-5.4,3.6-8.64,8.64-7.92a7.76,7.76,0,0,1,1.56.48c3,1.92,4.68,4.56,4.56,8.16a8.37,8.37,0,0,1-4.8,7.32c-2.52,1.32-5.28.72-7.44-1.44A9.66,9.66,0,0,1,11.67,270.77Zm5.16-.12c0,1.8,1,3.6,2,3.72s2.4-1.44,2.52-2.88a2.86,2.86,0,0,0-2.16-3.12C17.55,268.25,16.83,269,16.83,270.65Z"/><path d="M1124.3,115.49a18,18,0,0,1-1.32,2.64c-4.2,6.48-8.4,13-12.6,19.56-1.08,1.68-2.28,2.16-3.48,1.44s-1.68-2-.84-4c.48-1.08,1.2-2,1.8-3.12,3.72-5.64,7.32-11.28,11-17,.72-1.2,1.68-2.16,3.12-1.56C1123,113.69,1123.58,114.77,1124.3,115.49Z"/><path d="M1107.62,111.29c-.12.48-.24,1.2-.48,1.92-2.28,6.84-4.68,13.56-7.08,20.4a10.64,10.64,0,0,1-1,2,2.31,2.31,0,0,1-2.88,1,2.37,2.37,0,0,1-1.56-2.64,14.51,14.51,0,0,1,.6-2.16c2.4-7,4.8-14,7.2-21q.9-2.7,2.88-2.52C1106.78,108.41,1107.62,109.49,1107.62,111.29Z"/><path d="M1203,579.45a19.18,19.18,0,0,1-.6,2.52l-6.84,19.44a5.61,5.61,0,0,1-.6,1.2,2.52,2.52,0,0,1-3.36,1.2,2.85,2.85,0,0,1-1.44-3.6c.36-1,1-1.68,1.32-2.64,2-5.76,4.08-11.52,6-17.28.24-.6.36-1.32.6-1.92.48-1.32,1.32-2.28,3-1.92C1202.42,576.57,1203.14,577.77,1203,579.45Z"/><path d="M1121.3,142.61c-1.92-.12-3-1.56-2.52-3.12a6.12,6.12,0,0,1,1.92-2.88c5.4-4.32,10.8-8.4,16.32-12.6,1.2-.84,2.4-1,3.48.24a2.5,2.5,0,0,1-.36,3.48,17.55,17.55,0,0,1-2.28,1.92l-9.72,7.2c-1.8,1.44-3.36,3-5.16,4.56A9.09,9.09,0,0,1,1121.3,142.61Z"/><path d="M48.27,174.05a10.65,10.65,0,0,1-10.56,10.56,10.42,10.42,0,0,1-10.44-10.32A10.94,10.94,0,0,1,38,163.61,10.42,10.42,0,0,1,48.27,174.05Zm-5-.12a5.2,5.2,0,0,0-5.28-5,5.46,5.46,0,0,0-5.52,5.64,5.12,5.12,0,0,0,5.28,5A5.61,5.61,0,0,0,43.23,173.93Z"/></g></g></g></g></g></svg>