<?xml version="1.0" encoding="UTF-8"?>
<svg xmlns="http://www.w3.org/2000/svg" viewBox="0 0 512 512">
    <!-- 红色背景 -->
    <rect width="512" height="512" fill="#DE2910"/>
    <!-- 大星星 -->
    <polygon fill="#FFDE00" points="102.4,96 118.4,142.08 172.8,142.08 124.8,175.36 140.8,221.44 102.4,188.16 64,221.44 80,175.36 32,142.08 86.4,142.08"/>
    <!-- 四颗小星星 -->
    <polygon fill="#FFDE00" transform="translate(166.4,85) rotate(53)" points="0,-20 5.9,-6.2 20,0 5.9,6.2 0,20 -5.9,6.2 -20,0 -5.9,-6.2"/>
    <polygon fill="#FFDE00" transform="translate(192,110.6) rotate(75)" points="0,-20 5.9,-6.2 20,0 5.9,6.2 0,20 -5.9,6.2 -20,0 -5.9,-6.2"/>
    <polygon fill="#FFDE00" transform="translate(204.8,146.6) rotate(10)" points="0,-20 5.9,-6.2 20,0 5.9,6.2 0,20 -5.9,6.2 -20,0 -5.9,-6.2"/>
    <polygon fill="#FFDE00" transform="translate(192,182.6) rotate(-90)" points="0,-20 5.9,-6.2 20,0 5.9,6.2 0,20 -5.9,6.2 -20,0 -5.9,-6.2"/>
</svg>
